<svg width="240" height="240" viewBox="0 0 240 240" fill="none" xmlns="http://www.w3.org/2000/svg">
<path d="M189.297 44.4034V186.025C189.297 186.308 189.293 186.591 189.279 186.874C188.836 196.573 180.829 204.306 171.012 204.306H68.2178C58.1186 204.306 49.9324 196.12 49.9324 186.025V22.0557C49.9324 13.3749 55.9788 6.10788 64.0896 4.2371C65.4185 3.931 66.7994 3.77069 68.2178 3.77069H149.87C152.646 3.77069 155.356 4.4021 157.811 5.58991C162.751 7.96741 164.142 10.9716 173.02 20.0485C183.232 31.1377 185.67 32.2744 187.751 37.0754C188.765 39.3652 189.297 41.8538 189.297 44.4034Z" fill="#0584E6"/>
<path d="M189.298 44.4033V186.025C189.298 186.308 189.293 186.591 189.279 186.874C187.95 187.18 186.57 187.34 185.151 187.34H82.357C72.2578 187.34 64.0715 179.154 64.0715 169.059V5.0897C64.0715 4.80236 64.0762 4.51923 64.0903 4.23658C65.4192 3.93048 66.8001 3.77017 68.2186 3.77017H149.871C152.647 3.77017 155.357 4.40158 157.812 5.58939C159.829 6.56017 161.672 7.90783 163.232 9.57658L173.02 20.0485L184.227 31.7738C185.721 33.3338 186.909 35.1291 187.752 37.0758C188.766 39.3652 189.298 41.8538 189.298 44.4033Z" fill="#3D9AE2"/>
<path d="M236.208 107.822V210.626C236.208 216.342 234.351 221.63 231.203 225.909C226.504 232.309 218.922 236.466 210.368 236.466H143.221C128.951 236.466 117.382 224.896 117.382 210.626V107.822C117.382 97.1573 123.848 88.0007 133.07 84.0562C136.185 82.7226 139.616 81.9825 143.221 81.9825H210.368C224.643 81.9825 236.208 93.5521 236.208 107.822Z" fill="#4CBA68"/>
<path d="M236.208 107.822V210.626C236.208 216.342 234.351 221.63 231.203 225.909C228.088 227.242 224.657 227.983 221.052 227.983H153.905C139.635 227.983 128.065 216.413 128.065 202.143V99.3393C128.065 93.6229 129.922 88.335 133.07 84.0562C136.185 82.7226 139.616 81.9825 143.221 81.9825H210.368C224.643 81.9825 236.208 93.5521 236.208 107.822Z" fill="#7CCC92"/>
<path d="M186.696 175.413V187.487C186.696 189.621 184.966 191.351 182.836 191.351H170.758C168.623 191.351 166.893 189.621 166.893 187.487V175.413C166.893 173.278 168.623 171.548 170.758 171.548H182.836C184.966 171.548 186.696 173.277 186.696 175.413Z" fill="#F72D6B"/>
<path d="M218.451 105.4V118.336C218.451 122.936 214.723 126.668 210.119 126.668H143.471C138.872 126.668 135.139 122.936 135.139 118.336V105.4C135.139 100.8 138.872 97.0676 143.471 97.0676H210.119C214.723 97.0676 218.451 100.8 218.451 105.4Z" fill="#BFC2C4"/>
<path d="M218.451 105.4V118.336C218.451 122.936 214.723 126.668 210.119 126.668H157.609C153.009 126.668 149.277 122.936 149.277 118.336V105.4C149.277 100.8 153.01 97.0676 157.609 97.0676H210.118C214.723 97.0676 218.451 100.8 218.451 105.4Z" fill="#EAEFF2"/>
<path d="M154.947 175.413V187.487C154.947 189.621 153.217 191.351 151.083 191.351H139.004C136.874 191.351 135.139 189.621 135.139 187.487V175.413C135.139 173.278 136.874 171.548 139.004 171.548H151.083C153.217 171.548 154.947 173.277 154.947 175.413Z" fill="#F72D6B"/>
<path d="M186.696 143.837V155.911C186.696 158.046 184.967 159.775 182.837 159.775H170.758C168.623 159.775 166.894 158.046 166.894 155.911V143.837C166.894 141.702 168.623 139.973 170.758 139.973H182.837C184.967 139.973 186.696 141.702 186.696 143.837Z" fill="#F72D6B"/>
<path d="M218.833 143.837V155.911C218.833 158.046 217.103 159.775 214.968 159.775H202.894C200.759 159.775 199.03 158.046 199.03 155.911V143.837C199.03 141.702 200.759 139.973 202.894 139.973H214.968C217.103 139.973 218.833 141.702 218.833 143.837Z" fill="#FFB200"/>
<path d="M154.947 143.837V155.911C154.947 158.046 153.217 159.775 151.083 159.775H139.004C136.874 159.775 135.139 158.046 135.139 155.911V143.837C135.139 141.702 136.874 139.973 139.004 139.973H151.083C153.217 139.973 154.947 141.702 154.947 143.837Z" fill="#F72D6B"/>
<path d="M186.696 205.437V217.516C186.696 219.65 184.967 221.38 182.837 221.38H170.758C168.623 221.38 166.894 219.65 166.894 217.516V205.437C166.894 203.307 168.623 201.577 170.758 201.577H182.837C184.967 201.577 186.696 203.307 186.696 205.437Z" fill="#F72D6B"/>
<path d="M154.947 205.437V217.516C154.947 219.65 153.217 221.38 151.083 221.38H139.004C136.874 221.38 135.139 219.65 135.139 217.516V205.437C135.139 203.307 136.874 201.577 139.004 201.577H151.083C153.217 201.577 154.947 203.307 154.947 205.437Z" fill="#F72D6B"/>
<path d="M218.833 177.288V214.787C218.833 218.43 215.882 221.38 212.244 221.38H205.618C201.98 221.38 199.03 218.43 199.03 214.787V177.288C199.03 174.116 201.603 171.548 204.77 171.548H213.093C216.264 171.548 218.833 174.116 218.833 177.288Z" fill="#FFB200"/>
<path d="M186.696 175.413V179.004C186.696 181.138 184.967 182.868 182.837 182.868H170.758C168.623 182.868 166.894 181.138 166.894 179.004V175.413C166.894 173.278 168.623 171.548 170.758 171.548H182.837C184.967 171.548 186.696 173.277 186.696 175.413Z" fill="#F26666"/>
<path d="M154.947 175.413V179.004C154.947 181.138 153.217 182.868 151.083 182.868H139.004C136.874 182.868 135.139 181.138 135.139 179.004V175.413C135.139 173.278 136.874 171.548 139.004 171.548H151.083C153.217 171.548 154.947 173.277 154.947 175.413Z" fill="#F26666"/>
<path d="M186.696 143.837V147.428C186.696 149.563 184.967 151.292 182.837 151.292H170.758C168.623 151.292 166.894 149.563 166.894 147.428V143.837C166.894 141.702 168.623 139.973 170.758 139.973H182.837C184.967 139.973 186.696 141.702 186.696 143.837Z" fill="#F26666"/>
<path d="M218.833 143.837V147.428C218.833 149.563 217.103 151.292 214.968 151.292H202.894C200.759 151.292 199.03 149.563 199.03 147.428V143.837C199.03 141.702 200.759 139.973 202.894 139.973H214.968C217.103 139.973 218.833 141.702 218.833 143.837Z" fill="#FFC94E"/>
<path d="M154.947 143.837V147.428C154.947 149.563 153.217 151.292 151.083 151.292H139.004C136.874 151.292 135.139 149.563 135.139 147.428V143.837C135.139 141.702 136.874 139.973 139.004 139.973H151.083C153.217 139.973 154.947 141.702 154.947 143.837Z" fill="#F26666"/>
<path d="M186.696 205.437V209.033C186.696 211.167 184.967 212.897 182.837 212.897H170.758C168.623 212.897 166.894 211.167 166.894 209.033V205.437C166.894 203.307 168.623 201.577 170.758 201.577H182.837C184.967 201.577 186.696 203.307 186.696 205.437Z" fill="#F26666"/>
<path d="M154.947 205.437V209.033C154.947 211.167 153.217 212.897 151.083 212.897H139.004C136.874 212.897 135.139 211.167 135.139 209.033V205.437C135.139 203.307 136.874 201.577 139.004 201.577H151.083C153.217 201.577 154.947 203.307 154.947 205.437Z" fill="#F26666"/>
<path d="M218.833 177.288V206.304C218.833 209.947 215.882 212.897 212.244 212.897H205.618C201.98 212.897 199.03 209.947 199.03 206.304V177.288C199.03 174.116 201.603 171.548 204.77 171.548H213.093C216.264 171.548 218.833 174.116 218.833 177.288Z" fill="#FFC94E"/>
<path d="M187.752 37.0745H164.839C160.957 37.0745 157.81 33.9273 157.81 30.0452V5.58954C159.828 6.55985 161.67 7.90704 163.229 9.57391L173.021 20.0467L184.226 31.7739C185.718 33.333 186.906 35.1288 187.752 37.0745Z" fill="#0584E6"/>
<path d="M105.322 225.353C105.322 227.818 104.313 230.052 102.692 231.677C101.066 233.299 98.8323 234.307 96.3676 234.307H41.5117C36.587 234.307 32.5576 230.278 32.5576 225.353C32.5576 222.888 33.5664 220.654 35.1873 219.029C36.8134 217.408 39.047 216.399 41.5117 216.399H96.3676C101.292 216.399 105.322 220.428 105.322 225.353Z" fill="#FFB200"/>
<path d="M105.322 207.444C105.322 209.909 104.313 212.143 102.692 213.769C101.066 215.39 98.8323 216.399 96.3676 216.399H41.5117C36.587 216.399 32.5576 212.369 32.5576 207.444C32.5576 204.98 33.5664 202.746 35.1873 201.12C36.8134 199.499 39.047 198.49 41.5117 198.49H96.3676C101.292 198.49 105.322 202.52 105.322 207.444Z" fill="#FFB200"/>
<path d="M105.322 189.536C105.322 192.001 104.313 194.235 102.692 195.86C101.066 197.482 98.8323 198.49 96.3676 198.49H41.5117C36.587 198.49 32.5576 194.461 32.5576 189.536C32.5576 187.071 33.5664 184.837 35.1873 183.212C36.8134 181.591 39.047 180.582 41.5117 180.582H96.3676C101.292 180.582 105.322 184.611 105.322 189.536Z" fill="#FFB200"/>
<path d="M105.322 171.628C105.322 174.092 104.313 176.326 102.692 177.952C101.066 179.573 98.8323 180.582 96.3676 180.582H41.5117C36.587 180.582 32.5576 176.552 32.5576 171.628C32.5576 169.874 33.0714 168.234 33.9526 166.849C34.3061 166.288 34.7209 165.77 35.1873 165.303C36.8134 163.681 39.047 162.673 41.5117 162.673H96.3676C101.292 162.673 105.322 166.703 105.322 171.628Z" fill="#FFB200"/>
<path d="M96.3657 162.674H41.5117C36.587 162.674 32.5576 158.645 32.5576 153.72C32.5576 148.795 36.587 144.766 41.5117 144.766H96.3657C101.29 144.766 105.32 148.795 105.32 153.72C105.32 158.645 101.29 162.674 96.3657 162.674Z" fill="#FFB200"/>
<path d="M73.8193 204.935C73.2489 191.57 63.7717 180.688 51.354 177.776C48.8275 177.184 46.1795 176.92 43.4565 177.035V177.034H32.0401C6.15622 178.157 -5.90847 210.396 13.9126 227.986C19.3736 232.841 26.6589 235.666 34.5353 235.328H43.4556V235.318C44.2698 235.351 45.0906 235.359 45.9193 235.323C47.7807 235.243 49.5906 234.989 51.339 234.584C63.9976 231.629 73.3614 220.483 73.8236 207.236V207.203C73.8526 206.453 73.8526 205.698 73.8193 204.935Z" fill="#FFB200"/>
<path d="M73.8242 207.202V207.235C73.3625 220.482 63.9983 231.628 51.3397 234.583C38.931 231.666 29.4538 220.789 28.8838 207.428C28.8791 207.362 28.8744 207.301 28.8744 207.235V207.202C28.3794 193.064 38.0408 180.887 51.3542 177.776C63.7723 180.688 73.2495 191.57 73.8195 204.935C73.8528 205.698 73.8528 206.453 73.8242 207.202Z" fill="#FFC94E"/>
<path d="M210.368 78.4481H193.068V44.4033C193.068 38.5734 190.749 33.1397 186.955 29.167L175.777 17.4698C166.29 7.69547 165.093 4.93406 159.443 2.19141C156.818 0.88125 153.359 0 149.871 0H68.2188C56.0552 0 46.1631 9.89672 46.1631 22.0556V140.995H41.5117C34.4945 140.995 28.7875 146.702 28.7875 153.72C28.7875 157.212 30.2013 160.374 32.4822 162.674C30.2013 164.973 28.7875 168.135 28.7875 171.628C28.7875 172.938 28.9713 173.715 29.0374 174.144C1.42518 176.953 -9.57451 211.13 10.6338 229.679C16.7369 235.283 24.8378 238.459 33.6222 238.101C36.5252 238.101 96.2917 238.077 96.3672 238.077C103.38 238.077 109.091 232.37 109.091 225.353C109.091 221.861 107.678 218.699 105.397 216.399C107.541 214.236 108.917 211.319 109.073 208.076H113.847V210.626C113.847 226.823 127.023 240 143.221 240H210.368C226.566 240 239.742 226.823 239.742 210.626V107.822C239.743 91.6247 226.566 78.4481 210.368 78.4481ZM161.582 13.3322C176.389 28.9833 179.726 32.513 180.353 33.1777C180.353 33.1777 180.357 33.1777 180.362 33.187C180.367 33.187 180.367 33.187 180.367 33.187C180.371 33.1964 180.381 33.2058 180.385 33.2105L180.39 33.2152C180.4 33.2292 180.409 33.2386 180.418 33.2433C180.423 33.248 180.428 33.2527 180.432 33.262C180.437 33.2667 180.442 33.2667 180.442 33.2714C180.446 33.2761 180.451 33.2761 180.456 33.2855C180.465 33.2902 180.47 33.2995 180.475 33.3042H161.581L161.582 13.3322ZM41.5117 148.536H96.3677C99.2238 148.536 101.552 150.864 101.552 153.72C101.552 156.58 99.2233 158.903 96.3677 158.903H41.5117C38.6556 158.903 36.3278 156.58 36.3278 153.72C36.3274 150.863 38.6556 148.536 41.5117 148.536ZM41.5117 166.444H96.3677C99.2238 166.444 101.552 168.772 101.552 171.628C101.552 174.488 99.2233 176.812 96.3677 176.812H58.4772C56.936 176.105 55.3385 175.53 53.703 175.087C51.2617 174.422 48.7356 174.045 46.1627 173.979C45.423 173.96 44.6828 173.965 43.9431 173.998H36.9072C36.535 173.286 36.3274 172.48 36.3274 171.627C36.3274 168.772 38.6556 166.444 41.5117 166.444ZM101.552 189.536C101.552 192.397 99.2233 194.72 96.3677 194.72H75.2688C73.8363 190.907 71.6777 187.396 68.8689 184.352H96.3677C99.2233 184.352 101.552 186.68 101.552 189.536ZM23.1695 182.769C20.8745 184.946 18.8336 187.533 17.2314 190.385H12.8392C15.7094 186.826 19.2771 184.296 23.1695 182.769ZM8.82861 197.453H14.3191C14.1967 197.981 13.5742 200.012 13.2916 203.104H7.49033C7.71674 201.163 8.16439 199.268 8.82861 197.453ZM9.43658 216.14C8.60221 214.245 8.00408 212.242 7.66471 210.173H13.4238C14.456 216.027 14.5122 215.018 14.7714 216.14H9.43658ZM14.14 223.208C16.4538 223.204 17.7972 223.218 18.1127 223.199C19.5217 225.423 21.2181 227.483 23.1836 229.335C19.7669 227.992 16.7275 225.942 14.14 223.208ZM46.3089 231.037C32.515 231.63 20.8366 220.947 20.2525 207.12C19.3052 185.107 45.5974 172.429 62.1531 187.628C78.4736 202.609 68.5389 230.122 46.3089 231.037ZM96.3677 230.537H65.9378C69.3072 227.685 72.0738 224.156 74.0388 220.169H96.3677C99.2238 220.169 101.552 222.497 101.552 225.353C101.552 228.213 99.2233 230.537 96.3677 230.537ZM101.509 208.076C101.198 210.64 99.0114 212.629 96.3677 212.629H76.6403C77.3238 209.358 77.5169 205.833 77.0974 202.261H96.3677C99.5439 202.26 101.914 205.102 101.509 208.076ZM113.847 200.535H107.042C106.566 199.796 106.014 199.112 105.397 198.49C110.321 193.523 110.326 185.549 105.397 180.582C107.678 178.283 109.091 175.12 109.091 171.628C109.091 168.136 107.678 164.974 105.397 162.674C113.323 154.681 107.659 140.996 96.3672 140.996H53.703V22.0556C53.703 14.0536 60.2158 7.54031 68.2183 7.54031H154.042V37.0748C154.042 39.158 155.729 40.845 157.812 40.845H185.08C185.867 43.8989 185.381 42.8902 185.527 78.4477H143.221C127.023 78.4477 113.847 91.6242 113.847 107.822V200.535ZM232.674 210.626C232.674 222.926 222.669 232.931 210.368 232.931H143.222C130.926 232.931 120.916 222.926 120.916 210.626V107.822C120.916 95.5223 130.926 85.5169 143.222 85.5169H210.369C222.669 85.5169 232.674 95.5219 232.674 107.822V210.626H232.674Z" fill="#110261"/>
<path d="M156.295 123.134H143.471C140.833 123.134 138.674 120.975 138.674 118.336V105.4C138.674 102.761 140.833 100.602 143.471 100.602H210.119C212.767 100.602 214.916 102.756 214.916 105.4V118.336C214.916 120.98 212.767 123.134 210.119 123.134H171.536C169.584 123.134 168.002 124.716 168.002 126.668C168.002 128.62 169.584 130.203 171.536 130.203H210.119C216.665 130.203 221.985 124.877 221.985 118.336V105.4C221.985 98.8583 216.664 93.5333 210.119 93.5333H143.471C136.918 93.5333 131.605 98.8461 131.605 105.4V118.336C131.605 124.89 136.918 130.203 143.471 130.203H156.295C158.246 130.203 159.829 128.62 159.829 126.668C159.829 124.716 158.246 123.134 156.295 123.134Z" fill="#110261"/>
<path d="M139.004 194.885H151.082C155.164 194.885 158.481 191.567 158.481 187.486V175.412C158.481 171.331 155.163 168.013 151.082 168.013H139.004C134.927 168.013 131.605 171.331 131.605 175.412V187.486C131.605 191.567 134.927 194.885 139.004 194.885ZM138.674 175.412C138.674 175.228 138.825 175.082 139.004 175.082H151.082C151.262 175.082 151.412 175.228 151.412 175.412V187.486C151.412 187.67 151.262 187.816 151.082 187.816H139.004C138.825 187.816 138.674 187.67 138.674 187.486V175.412Z" fill="#110261"/>
<path d="M214.968 136.438H202.894C198.813 136.438 195.495 139.756 195.495 143.837V155.911C195.495 159.992 198.813 163.31 202.894 163.31H214.968C219.05 163.31 222.367 159.992 222.367 155.911V143.837C222.367 139.756 219.049 136.438 214.968 136.438ZM215.298 155.911C215.298 156.095 215.152 156.241 214.968 156.241H202.894C202.715 156.241 202.564 156.095 202.564 155.911C202.71 143.965 202.258 143.507 202.894 143.507H214.968C215.152 143.507 215.298 143.653 215.298 143.837V155.911Z" fill="#110261"/>
<path d="M139.004 163.31H151.082C155.164 163.31 158.481 159.992 158.481 155.911V143.837C158.481 139.756 155.163 136.438 151.082 136.438H139.004C134.927 136.438 131.605 139.756 131.605 143.837V155.911C131.605 159.992 134.927 163.31 139.004 163.31ZM138.674 143.837C138.674 143.653 138.825 143.507 139.004 143.507H151.082C151.262 143.507 151.412 143.653 151.412 143.837V155.911C151.412 156.095 151.262 156.241 151.082 156.241H139.004C138.825 156.241 138.674 156.095 138.674 155.911V143.837Z" fill="#110261"/>
<path d="M156.619 200.535C155.262 199.008 153.283 198.042 151.082 198.042H139.003C136.802 198.042 134.823 199.008 133.47 200.535C130.902 203.415 131.774 206.553 131.604 208.075V217.515C131.604 221.597 134.927 224.914 139.003 224.914H151.082C155.163 224.914 158.481 221.596 158.481 217.515V208.075C158.311 206.587 159.173 203.415 156.619 200.535ZM151.082 217.845C139.149 217.699 138.673 218.151 138.673 217.515C138.673 204.73 138.532 205.111 139.003 205.111H151.082C151.662 205.111 151.304 205.917 151.412 208.075C151.411 208.076 151.718 217.845 151.082 217.845Z" fill="#110261"/>
<path d="M213.092 168.013H204.769C199.656 168.013 195.495 172.174 195.495 177.288V214.787C195.495 220.371 200.038 224.914 205.618 224.914H212.244C217.829 224.914 222.367 220.371 222.367 214.787V177.288C222.367 172.174 218.21 168.013 213.092 168.013ZM215.298 214.787C215.298 216.474 213.931 217.845 212.244 217.845H205.618C203.935 217.845 202.564 216.474 202.564 214.787V177.288C202.564 176.072 203.553 175.082 204.769 175.082H213.092C214.308 175.082 215.297 176.072 215.297 177.288L215.298 214.787Z" fill="#110261"/>
<path d="M91.2407 102.669C86.931 101.086 83.8175 99.942 83.8175 95.9492C83.8175 92.3103 86.2344 90.4653 91.0002 90.4653C96.0594 90.4653 97.4216 92.6923 99.2038 92.6923C101.143 92.6923 102.216 90.6336 102.216 89.2105C102.216 86.2658 97.4132 84.8056 93.1194 84.4203V81.7653C93.1194 79.9184 91.6171 78.4161 89.7702 78.4161C87.9233 78.4161 86.421 79.9184 86.421 81.7653V84.8436C80.5499 86.2377 77.324 90.2928 77.324 96.3012C77.324 104.528 83.3802 106.804 88.2477 108.633C93.013 110.424 96.7775 111.838 96.7775 117.279C96.7775 121.773 94.2824 124.052 89.36 124.052C82.1563 124.052 82.0888 119.188 79.341 119.188C77.6394 119.188 76.2688 121.093 76.2688 122.67C76.2688 125.455 80.4168 129.116 86.421 130.066V132.632C86.421 134.479 87.9233 135.981 89.7702 135.981C91.6171 135.981 93.1194 134.479 93.1194 132.632V129.997C99.5779 128.782 103.272 124.04 103.272 116.927C103.271 107.09 96.6008 104.639 91.2407 102.669Z" fill="#110261"/>
<path d="M182.836 198.042H170.757C168.557 198.042 166.577 199.008 165.22 200.535C162.661 203.419 163.528 206.553 163.359 208.075V217.515C163.359 221.597 166.676 224.914 170.757 224.914H182.836C186.913 224.914 190.23 221.596 190.23 217.515V205.436C190.23 203.349 189.358 201.459 187.963 200.116C186.634 198.834 184.825 198.042 182.836 198.042ZM182.836 217.845C170.904 217.699 170.427 218.151 170.427 217.515V205.436C170.427 205.257 170.578 205.111 170.757 205.111H182.836C183.015 205.111 183.161 205.257 183.161 205.436C183.02 217.398 183.463 217.845 182.836 217.845Z" fill="#110261"/>
<path d="M182.836 136.438H170.758C166.676 136.438 163.359 139.756 163.359 143.837V155.911C163.359 159.992 166.677 163.31 170.758 163.31H182.836C183.788 163.31 184.693 163.131 185.527 162.801C188.279 161.722 190.231 159.04 190.231 155.911V143.837C190.23 139.742 186.894 136.438 182.836 136.438ZM183.162 155.911C183.162 156.095 183.015 156.241 182.836 156.241H170.758C170.579 156.241 170.428 156.095 170.428 155.911V143.837C170.428 143.201 170.866 143.649 182.836 143.507C183.015 143.507 183.162 143.653 183.162 143.837V155.911Z" fill="#110261"/>
<path d="M185.527 168.522C184.693 168.192 183.788 168.013 182.836 168.013H170.758C166.676 168.013 163.359 171.331 163.359 175.412V187.486C163.359 191.567 166.677 194.884 170.758 194.884H182.836C186.913 194.884 190.23 191.567 190.23 187.486V175.412C190.23 172.283 188.28 169.601 185.527 168.522ZM183.162 187.486C183.162 187.669 183.015 187.816 182.836 187.816H170.758C170.579 187.816 170.428 187.669 170.428 187.486V175.412C170.428 175.228 170.579 175.082 170.758 175.082H182.836C183.015 175.082 183.162 175.228 183.162 175.412V187.486Z" fill="#110261"/>
<path d="M153.557 55.3697H162.435C164.386 55.3697 165.97 53.7909 165.97 51.8353C165.97 49.8843 164.386 48.3009 162.435 48.3009H153.557C151.606 48.3009 150.022 49.8843 150.022 51.8353C150.022 53.7909 151.605 55.3697 153.557 55.3697Z" fill="#110261"/>
<path d="M76.7392 55.3697H139.419C141.369 55.3697 142.953 53.7909 142.953 51.8353C142.953 49.8843 141.369 48.3009 139.419 48.3009H76.7392C74.7883 48.3009 73.2048 49.8843 73.2048 51.8353C73.2044 53.7909 74.7883 55.3697 76.7392 55.3697Z" fill="#110261"/>
<path d="M87.9742 72.9148C89.9251 72.9148 91.5086 71.3314 91.5086 69.3804C91.5086 67.4295 89.9251 65.8461 87.9742 65.8461H76.7392C74.7883 65.8461 73.2048 67.4295 73.2048 69.3804C73.2048 71.3314 74.7883 72.9148 76.7392 72.9148H87.9742Z" fill="#110261"/>
<path d="M165.97 69.3804C165.97 67.4295 164.387 65.8461 162.436 65.8461H102.112C100.161 65.8461 98.5779 67.4295 98.5779 69.3804C98.5779 71.3314 100.161 72.9148 102.112 72.9148H162.435C164.386 72.9148 165.97 71.3314 165.97 69.3804Z" fill="#110261"/>
<path d="M43.9414 198.822C43.9414 197.934 44.2686 197.679 44.5747 197.509C45.5244 196.984 47.7032 196.829 49.6986 197.856C50.2288 198.128 50.8297 198.437 51.6116 198.437C55.0977 198.437 57.8549 191.959 49.5275 190.527V190.305C49.5275 188.33 47.9207 186.723 45.9458 186.723C43.971 186.723 42.3641 188.33 42.3641 190.305V190.984C38.8747 192.25 36.9008 195.128 36.9008 199.034C36.9008 205.062 41.2804 206.708 44.4791 207.909C47.5293 209.055 48.5839 209.557 48.5839 211.631C48.5839 212.929 48.2347 214.129 45.6993 214.129C42.0046 214.129 42.4471 211.209 39.6819 211.209C37.7277 211.209 36.2666 213.141 36.2666 214.87C36.2666 217.318 38.8128 219.642 42.3641 220.585V220.853C42.3641 222.828 43.971 224.434 45.9458 224.434C47.9207 224.434 49.5275 222.828 49.5275 220.853V220.491C53.3703 219.256 55.6246 215.947 55.6246 211.421C55.6255 200.68 43.9414 202.293 43.9414 198.822Z" fill="#110261"/>
</svg>
