<svg width="155" height="155" viewBox="0 0 155 155"  xmlns="http://www.w3.org/2000/svg">
<path d="M154.015 74.4852C152.63 72.591 119.637 28.1044 77.4992 28.1044C35.3613 28.1044 2.36678 72.591 0.983586 74.4834C-0.327862 76.2804 -0.327862 78.7178 0.983586 80.5148C2.36678 82.409 35.3613 126.896 77.4992 126.896C119.637 126.896 152.63 82.4087 154.015 80.5163C155.328 78.7196 155.328 76.2804 154.015 74.4852ZM77.4992 116.676C46.4601 116.676 19.577 87.1492 11.619 77.4965C19.5667 67.8353 46.3935 38.3241 77.4992 38.3241C108.537 38.3241 135.418 67.8456 143.38 77.5035C135.432 87.1644 108.605 116.676 77.4992 116.676Z" />
<path d="M77.4992 46.8407C60.5939 46.8407 46.8398 60.5948 46.8398 77.5002C46.8398 94.4055 60.5939 108.16 77.4992 108.16C94.4046 108.16 108.159 94.4055 108.159 77.5002C108.159 60.5948 94.4046 46.8407 77.4992 46.8407ZM77.4992 97.9396C66.2284 97.9396 57.0598 88.7707 57.0598 77.5002C57.0598 66.2296 66.2287 57.0607 77.4992 57.0607C88.7698 57.0607 97.9387 66.2296 97.9387 77.5002C97.9387 88.7707 88.7701 97.9396 77.4992 97.9396Z" />
</svg>
