<svg width="349" height="372" viewBox="0 0 349 372" fill="none" xmlns="http://www.w3.org/2000/svg">
<g clip-path="url(#clip0)">
<path d="M177.331 54.0487L179.437 71.1955L171.354 72.188C167.547 72.6555 164.84 76.1204 165.308 79.9273C165.775 83.7341 169.24 86.4414 173.047 85.974L181.129 84.9814L181.991 91.9996C184.041 108.702 199.244 120.579 215.946 118.528C232.648 116.478 244.525 101.275 242.475 84.5732L237.815 46.6223L177.331 54.0487Z" fill="#FFCCAA"/>
<path d="M228.268 47.7943L232.928 85.7452C234.779 100.823 225.279 114.674 211.126 118.736C212.712 118.792 214.322 118.727 215.946 118.528C232.648 116.477 244.526 101.275 242.475 84.5728L237.815 46.6219L228.268 47.7943Z" fill="#F2A077"/>
<path d="M219.699 102.276C214.416 102.925 209.607 99.168 208.958 93.8846L208.636 91.2569C208.537 90.457 209.106 89.7291 209.906 89.6307L226.142 87.637C226.942 87.5386 227.67 88.1074 227.768 88.9073L228.091 91.535C228.74 96.8188 224.983 101.628 219.699 102.276Z" fill="#CE3A4C"/>
<path d="M238.227 49.9831L183.218 56.7373C180.193 57.109 178.045 59.8619 178.416 62.8839L179.436 71.1954L171.353 72.1879C170.726 72.2648 170.13 72.4227 169.569 72.6538L164.901 34.6264C164.24 29.2461 168.065 24.3503 173.445 23.6895L214.801 18.6115C224.234 17.4535 232.903 13.0748 236.627 5.82678C258.66 14.5887 252.92 48.179 238.227 49.9831Z" fill="#475D6D"/>
<path d="M236.627 5.82727C235.739 7.55598 234.566 9.11958 233.172 10.5169C247.85 22.469 241.875 49.5354 228.727 51.1499L238.228 49.9832C252.92 48.1791 258.66 14.5888 236.627 5.82727Z" fill="#2C3F4F"/>
<path d="M333.093 128.463L330.988 145.61L339.07 146.602C342.877 147.07 345.584 150.535 345.117 154.342C344.649 158.148 341.184 160.856 337.377 160.388L329.295 159.396L328.433 166.414C326.383 183.116 311.18 194.993 294.478 192.943C277.776 190.892 265.899 175.69 267.949 158.987L272.609 121.037L333.093 128.463Z" fill="#FFCCAA"/>
<path d="M339.07 146.602L330.988 145.61L333.093 128.463L272.609 121.037L324.131 127.363L322.026 144.509L320.333 158.295L319.472 165.314C317.521 181.2 305.486 192.935 292.071 192.54C292.863 192.702 293.663 192.842 294.478 192.943C311.18 194.993 326.383 183.116 328.433 166.414L329.295 159.396L337.377 160.388C341.184 160.856 344.649 158.148 345.117 154.342C345.584 150.535 342.877 147.07 339.07 146.602Z" fill="#F2A077"/>
<path d="M290.725 176.691C296.008 177.34 300.817 173.583 301.466 168.299L301.788 165.672C301.887 164.872 301.318 164.144 300.518 164.045L284.282 162.052C283.482 161.953 282.754 162.522 282.656 163.322L282.333 165.95C281.684 171.233 285.441 176.042 290.725 176.691Z" fill="#CE3A4C"/>
<path d="M336.978 98.1043L298.13 93.3343C295.885 93.0588 293.865 91.8533 292.543 90.0186C288.915 84.9844 283.162 81.5052 276.403 81.0136C265.228 80.2009 255.131 88.1855 253.336 99.2457C251.343 111.529 259.96 122.895 272.195 124.398L327.205 131.152C330.228 131.523 332.378 134.275 332.007 137.299L330.987 145.61L339.07 146.603C339.697 146.68 340.293 146.838 340.854 147.069L345.523 109.042C346.183 103.661 342.358 98.7647 336.978 98.1043Z" fill="#F26666"/>
<path d="M336.978 98.1043L329.949 97.2411C335.329 97.9015 339.154 102.798 338.494 108.178L333.855 145.962L339.07 146.602C339.698 146.679 340.293 146.837 340.854 147.068L345.523 109.041C346.183 103.661 342.358 98.7647 336.978 98.1043Z" fill="#F72D6B"/>
<path d="M205.14 73.0212C201.553 70.2194 196.356 70.8575 193.553 74.4439C192.592 75.6742 192.81 77.4508 194.04 78.4124C194.557 78.8161 195.171 79.0118 195.779 79.0118C196.619 79.0118 197.451 78.6386 198.009 77.925C198.892 76.7949 200.529 76.5944 201.659 77.4768C202.889 78.4381 204.666 78.2198 205.627 76.9894C206.589 75.7591 206.371 73.9825 205.14 73.0212Z" fill="#110261"/>
<path d="M234.65 73.4265C235.611 72.1961 235.393 70.4196 234.163 69.458C230.576 66.6557 225.378 67.2939 222.576 70.8806C221.615 72.1109 221.833 73.8875 223.063 74.8491C223.58 75.2529 224.193 75.4485 224.802 75.4485C225.642 75.4485 226.474 75.0753 227.032 74.3617C227.914 73.2316 229.551 73.0303 230.682 73.9135C231.912 74.8748 233.689 74.6565 234.65 73.4265Z" fill="#110261"/>
<path d="M206.152 94.2283C206.99 101.052 213.221 105.919 220.043 105.082C226.865 104.244 231.734 98.0122 230.896 91.1901L230.574 88.5627C230.434 87.4262 229.861 86.4122 228.958 85.7069C228.056 85.002 226.933 84.6918 225.797 84.8301L209.561 86.8234C208.425 86.9629 207.411 87.5366 206.706 88.4391C206.001 89.3415 205.69 90.4641 205.829 91.6002L206.152 94.2283ZM225.128 90.6092L225.284 91.8791C225.742 95.6068 223.082 99.0115 219.354 99.4691C215.631 99.9297 212.222 97.2666 211.764 93.5389L211.608 92.2689L225.128 90.6092Z" fill="#110261"/>
<path d="M253.795 33.1619C254.566 27.1793 253.689 21.096 251.326 16.0324C248.551 10.0867 243.829 5.64959 237.671 3.20053C236.318 2.66262 234.777 3.24011 234.112 4.53532C231.07 10.455 223.722 14.6682 214.457 15.8058L198.108 17.8131C196.558 18.0031 195.456 19.414 195.647 20.9637C195.837 22.5137 197.249 23.6152 198.797 23.4252L215.146 21.4179C225.094 20.1962 233.319 15.7934 237.735 9.45154C246.95 14.3715 249.186 24.685 248.187 32.4389C247.149 40.4989 242.911 46.5592 237.882 47.1766L182.874 53.9313C178.308 54.4918 175.05 58.6628 175.61 63.2284L176.286 68.7335L172.002 69.2597L167.707 34.2822C167.48 32.4298 167.987 30.5997 169.136 29.1292C170.285 27.6588 171.938 26.7235 173.79 26.4962L187.512 24.8116C189.061 24.6213 190.163 23.2107 189.973 21.6611C189.783 20.1114 188.371 19.0107 186.822 19.1996L173.101 20.8845C166.183 21.7334 161.245 28.0527 162.095 34.9709L166.534 71.1252C163.667 73.1694 162.058 76.6653 162.503 80.2731C163.105 85.1648 167.27 88.8537 172.191 88.8537C172.574 88.8537 172.974 88.8296 173.392 88.7798L178.668 88.13L179.186 92.342C180.27 101.17 184.726 109.047 191.734 114.522C197.647 119.143 204.779 121.586 212.165 121.586C213.533 121.586 214.91 121.502 216.289 121.333C220.548 120.809 224.594 119.502 228.313 117.448C231.914 115.461 235.082 112.853 237.73 109.695C238.733 108.499 238.577 106.716 237.381 105.712C236.184 104.709 234.401 104.866 233.398 106.062C231.199 108.683 228.569 110.849 225.58 112.498C222.496 114.201 219.138 115.286 215.599 115.721C208.273 116.621 201.033 114.613 195.216 110.067C189.398 105.521 185.698 98.9817 184.798 91.6526L183.935 84.6337C183.843 83.8896 183.46 83.2122 182.869 82.7505C182.278 82.2887 181.529 82.0806 180.784 82.1726L172.715 83.1666C172.53 83.1889 172.354 83.1998 172.191 83.1998C170.121 83.1998 168.368 81.6449 168.114 79.5822C167.887 77.7419 168.926 75.9691 170.638 75.271C170.641 75.2698 170.644 75.2679 170.647 75.2668C170.979 75.1303 171.333 75.038 171.698 74.9931L179.781 74.0006C181.331 73.8106 182.433 72.3997 182.243 70.85L181.222 62.5386C181.042 61.0674 182.092 59.7231 183.563 59.5426L235.763 53.1332L239.667 84.9172C240.178 89.0667 239.764 93.166 238.437 97.1026C237.938 98.5821 238.733 100.186 240.213 100.685C240.512 100.786 240.817 100.834 241.116 100.834C242.296 100.834 243.397 100.089 243.795 98.9093C245.395 94.1635 245.894 89.2231 245.279 84.227L241.337 52.1309C247.719 49.8579 252.575 42.6276 253.795 33.1619Z" fill="#110261"/>
<path d="M308.762 151.89C309.892 151.007 311.53 151.209 312.412 152.339C312.97 153.052 313.802 153.425 314.642 153.425C315.251 153.425 315.864 153.229 316.381 152.826C317.611 151.864 317.829 150.088 316.868 148.857C314.066 145.271 308.868 144.633 305.281 147.435C304.051 148.396 303.832 150.173 304.794 151.403C305.755 152.634 307.532 152.852 308.762 151.89Z" fill="black"/>
<path d="M276.259 143.871C275.029 144.833 274.81 146.609 275.771 147.84C276.732 149.07 278.509 149.289 279.74 148.327C280.869 147.445 282.507 147.645 283.39 148.775C283.948 149.489 284.779 149.862 285.62 149.862C286.229 149.862 286.841 149.666 287.358 149.263C288.589 148.301 288.807 146.524 287.845 145.294C285.043 141.708 279.846 141.069 276.259 143.871Z" fill="black"/>
<path d="M300.86 161.237L284.624 159.244C283.488 159.105 282.365 159.416 281.463 160.121C279.433 161.706 279.907 163.841 279.525 165.604C278.165 176.676 290.915 183.708 299.571 176.945C304.774 172.881 304.252 167.275 304.592 166.014C304.88 163.669 303.206 161.526 300.86 161.237ZM296.09 172.49C294.657 173.61 292.873 174.104 291.067 173.883C287.331 173.425 284.678 170.03 285.137 166.293L285.293 165.023L298.813 166.683C298.648 167.282 298.898 170.296 296.09 172.49Z" fill="black"/>
<path d="M345.741 100.061C343.662 97.4008 340.672 95.7086 337.32 95.2974L298.472 90.5274C297.022 90.3495 295.697 89.5613 294.835 88.3652C292.145 84.6322 288.486 81.7369 284.255 79.9916C282.812 79.3964 281.159 80.0839 280.564 81.5273C279.969 82.971 280.656 84.6236 282.1 85.2188C285.356 86.5619 288.174 88.793 290.247 91.6707C292.028 94.1413 294.775 95.7701 297.783 96.1395L336.631 100.909C340.455 101.379 343.184 104.872 342.714 108.695L338.42 143.673L334.135 143.147L334.811 137.641C335.371 133.076 332.113 128.905 327.547 128.344L272.538 121.59C267.37 120.955 262.802 118.312 259.675 114.146C256.55 109.982 255.289 104.851 256.126 99.6972C257.471 91.4106 264.25 84.921 272.613 83.9156C274.163 83.7294 275.269 82.3219 275.083 80.7715C274.896 79.2214 273.488 78.1143 271.938 78.3021C261.088 79.6059 252.29 88.032 250.544 98.7917C249.46 105.477 251.096 112.135 255.153 117.54C258.639 122.185 263.509 125.367 269.065 126.695L265.141 158.64C264.618 162.895 264.908 167.139 266.003 171.254C266.339 172.519 267.483 173.355 268.733 173.355C268.974 173.355 269.218 173.324 269.462 173.259C270.971 172.858 271.869 171.309 271.467 169.8C270.559 166.387 270.319 162.864 270.753 159.329L274.657 127.547L326.857 133.956C328.329 134.137 329.379 135.481 329.198 136.952L328.178 145.264C328.086 146.008 328.294 146.758 328.756 147.349C329.218 147.94 329.895 148.323 330.639 148.414L338.722 149.407C339.065 149.449 339.398 149.537 339.713 149.66C341.473 150.338 342.538 152.111 342.306 153.996C342.052 156.058 340.3 157.613 338.229 157.613C338.067 157.613 337.892 157.602 337.719 157.581L329.637 156.586C328.892 156.494 328.142 156.703 327.551 157.164C326.96 157.625 326.577 158.303 326.485 159.047L325.622 166.067C324.722 173.395 321.022 179.935 315.204 184.481C309.387 189.026 302.149 191.036 294.82 190.135C290.975 189.663 287.35 188.426 284.046 186.456C280.851 184.552 278.112 182.063 275.906 179.058C274.982 177.799 273.212 177.529 271.954 178.453C270.696 179.377 270.425 181.147 271.349 182.405C274.006 186.022 277.304 189.019 281.151 191.313C285.135 193.688 289.503 195.18 294.132 195.747C295.512 195.916 296.888 196 298.256 196C305.641 196 312.774 193.556 318.687 188.936C325.695 183.46 330.151 175.583 331.235 166.756L331.753 162.544C336.799 163.143 337.192 163.267 338.229 163.267C343.15 163.267 347.316 159.578 347.919 154.685C348.366 151.037 346.764 147.562 343.888 145.528L348.326 109.384C348.738 106.033 347.82 102.722 345.741 100.061Z" fill="#110261"/>
<path d="M305.716 39.2904C307.277 39.2904 308.543 38.0246 308.543 36.4633V29.5428C308.543 27.9815 307.277 26.7157 305.716 26.7157C304.154 26.7157 302.888 27.9815 302.888 29.5428V36.4633C302.888 38.0246 304.154 39.2904 305.716 39.2904Z" fill="#110261"/>
<path d="M305.716 60.5642C307.277 60.5642 308.543 59.2984 308.543 57.737V50.8165C308.543 49.2552 307.277 47.9894 305.716 47.9894C304.154 47.9894 302.888 49.2552 302.888 50.8165V57.737C302.888 59.2984 304.154 60.5642 305.716 60.5642Z" fill="#110261"/>
<path d="M312.892 46.4672H319.813C321.374 46.4672 322.64 45.2014 322.64 43.6401C322.64 42.0787 321.374 40.8129 319.813 40.8129H312.892C311.331 40.8129 310.065 42.0787 310.065 43.6401C310.065 45.2014 311.331 46.4672 312.892 46.4672Z" fill="#110261"/>
<path d="M291.619 46.4672H298.539C300.101 46.4672 301.367 45.2014 301.367 43.6401C301.367 42.0787 300.101 40.8129 298.539 40.8129H291.619C290.058 40.8129 288.792 42.0787 288.792 43.6401C288.792 45.2014 290.058 46.4672 291.619 46.4672Z" fill="#110261"/>
<path d="M204.705 138.434C203.144 138.434 201.878 139.7 201.878 141.261V148.182C201.878 149.743 203.144 151.009 204.705 151.009C206.267 151.009 207.533 149.743 207.533 148.182V141.261C207.533 139.7 206.267 138.434 204.705 138.434Z" fill="#110261"/>
<path d="M204.705 159.708C203.144 159.708 201.878 160.974 201.878 162.535V169.456C201.878 171.017 203.144 172.283 204.705 172.283C206.267 172.283 207.533 171.017 207.533 169.456V162.535C207.533 160.974 206.267 159.708 204.705 159.708Z" fill="#110261"/>
<path d="M218.802 152.531H211.882C210.32 152.531 209.055 153.797 209.055 155.358C209.055 156.92 210.32 158.186 211.882 158.186H218.802C220.364 158.186 221.629 156.92 221.629 155.358C221.629 153.797 220.364 152.531 218.802 152.531Z" fill="#110261"/>
<path d="M197.529 152.531H190.609C189.047 152.531 187.781 153.797 187.781 155.358C187.781 156.92 189.047 158.186 190.609 158.186H197.529C199.09 158.186 200.356 156.92 200.356 155.358C200.356 153.797 199.09 152.531 197.529 152.531Z" fill="#110261"/>
<g clip-path="url(#clip1)">
<path d="M60.0784 274.195C58.5841 275.416 57.156 276.718 55.7999 278.091C40.0249 294.079 36.9492 324.013 49.1627 342.881C64.7445 367.165 97.0635 374.216 121.347 358.634C131.246 352.282 138.708 342.776 142.534 331.654C144.371 325.898 147.56 320.67 151.838 316.405C152.879 315.389 153.977 314.41 155.132 313.467C156.227 312.572 157.344 311.722 158.485 310.921C163.574 307.505 169.419 305.379 175.514 304.725C204.116 300.924 224.221 274.657 220.42 246.055C218.876 234.427 213.463 223.657 205.053 215.484C189.013 199.765 159.065 196.817 140.253 209.088C138.643 210.139 137.088 211.274 135.596 212.493L60.0784 274.195Z" fill="#FFB200"/>
<path d="M156.362 276.463C160.831 272.812 161.493 266.23 157.842 261.761C154.191 257.293 147.609 256.63 143.14 260.281C138.672 263.932 138.009 270.514 141.66 274.983C145.311 279.452 151.894 280.114 156.362 276.463Z" fill="#F72D6B"/>
<path d="M182.45 203.305C179.713 266.208 117.666 339.481 92.3982 366.832C114.966 367.211 135.206 352.999 142.514 331.647C144.351 325.891 147.541 320.663 151.819 316.398C152.874 315.388 153.98 314.408 155.132 313.467C156.227 312.572 157.344 311.722 158.484 310.921C163.573 307.505 169.418 305.378 175.514 304.725C204.116 300.924 224.221 274.657 220.42 246.055C218.875 234.427 213.463 223.657 205.053 215.484C198.721 209.507 190.924 205.309 182.45 203.305Z" fill="#FF9405"/>
<path d="M72.3132 300.178L83.1014 291.364L94.1195 304.849L107.605 293.831L116.42 304.619L102.934 315.638L113.952 329.123L103.164 337.937L92.146 324.452L78.6608 335.47L69.8461 324.682L83.3313 313.664L72.3132 300.178Z" fill="#383856"/>
<path d="M162.02 244.856C166.488 241.205 167.151 234.622 163.5 230.154C159.849 225.685 153.267 225.022 148.798 228.673C144.329 232.324 143.667 238.907 147.318 243.375C150.969 247.844 157.551 248.507 162.02 244.856Z" fill="#0FDE8C"/>
<path d="M188.463 277.221C192.932 273.569 193.595 266.987 189.944 262.519C186.293 258.05 179.71 257.387 175.242 261.038C170.773 264.689 170.11 271.272 173.761 275.74C177.413 280.209 183.995 280.872 188.463 277.221Z" fill="#0FDE8C"/>
<path d="M194.121 245.612C198.59 241.961 199.252 235.379 195.601 230.91C191.95 226.442 185.368 225.779 180.899 229.43C176.431 233.081 175.768 239.664 179.419 244.132C183.07 248.601 189.652 249.263 194.121 245.612Z" fill="#F72D6B"/>
<path d="M92.4433 247.751L83.6285 236.962L94.4167 228.148L103.231 238.936" fill="#874D1B"/>
<path d="M148.334 258.062C150.145 258.682 151.747 259.794 152.962 261.27C156.613 265.739 155.95 272.321 151.481 275.972C149.996 277.177 148.206 277.947 146.307 278.194C151.726 280.126 157.69 277.295 159.621 271.876C161.553 266.456 158.723 260.494 153.304 258.562C151.715 257.993 150.007 257.824 148.334 258.062Z" fill="#D62121"/>
<path d="M153.992 226.454C155.803 227.074 157.404 228.186 158.619 229.662C162.271 234.131 161.608 240.713 157.139 244.364C155.654 245.569 153.863 246.339 151.965 246.586C157.384 248.518 163.347 245.687 165.279 240.268C167.21 234.849 164.38 228.886 158.961 226.954C157.372 226.386 155.664 226.216 153.992 226.454Z" fill="#83B2B7"/>
<path d="M186.093 227.211C187.904 227.831 189.505 228.943 190.72 230.419C194.372 234.888 193.709 241.47 189.24 245.121C187.755 246.326 185.965 247.096 184.066 247.343C189.485 249.275 195.448 246.445 197.38 241.025C199.312 235.605 196.482 229.643 191.062 227.711C189.474 227.142 187.765 226.973 186.093 227.211Z" fill="#D62121"/>
<path d="M180.435 258.818C182.246 259.439 183.847 260.551 185.063 262.027C188.714 266.496 188.051 273.078 183.582 276.729C182.097 277.933 180.307 278.703 178.408 278.951C183.827 280.882 189.79 278.052 191.722 272.633C193.654 267.214 190.824 261.25 185.404 259.319C183.816 258.75 182.108 258.581 180.435 258.818Z" fill="#83B2B7"/>
<path d="M76.5078 332.835L78.6608 335.47L92.146 324.452L103.164 337.937L113.952 329.123L102.934 315.638L116.419 304.62L107.605 293.831L103.103 297.509C98.519 313.641 82.8828 327.658 76.5078 332.835Z" fill="#202033"/>
<path d="M91.8414 247.014L92.443 247.751L103.231 238.936L95.9921 230.076C96.571 236.031 95.1085 242.002 91.8414 247.014Z" fill="#6B3713"/>
<path d="M105.401 291.134L94.6132 299.948L85.7987 289.16C84.5823 287.671 82.387 287.45 80.8981 288.667L70.1099 297.481C68.6211 298.698 68.4 300.893 69.6165 302.382L78.431 313.17L67.6425 321.985C66.1536 323.201 65.9326 325.396 67.1491 326.885L75.9635 337.673C77.18 339.162 79.3753 339.383 80.8642 338.167L91.6524 329.352L100.467 340.14C101.683 341.629 103.879 341.85 105.367 340.634L116.156 331.819C117.645 330.603 117.866 328.408 116.649 326.919L107.835 316.131L118.623 307.316C120.112 306.1 120.333 303.905 119.116 302.416L110.302 291.628C109.086 290.139 106.89 289.917 105.401 291.134ZM111.519 304.126L100.731 312.94C99.242 314.157 99.021 316.352 100.237 317.841L109.052 328.629L103.658 333.036L94.8434 322.248C93.6269 320.759 91.4316 320.538 89.9427 321.755L79.1543 330.569L74.747 325.175L85.5352 316.361C87.0241 315.144 87.2451 312.949 86.0286 311.46L77.2141 300.672L82.6082 296.265L91.4227 307.053C92.6392 308.542 94.8345 308.763 96.3234 307.546L107.112 298.732L111.519 304.126Z" fill="#110261"/>
<path d="M164.243 247.555C170.201 242.687 171.084 233.91 166.217 227.952C161.349 221.994 152.572 221.111 146.614 225.978C140.656 230.846 139.773 239.623 144.64 245.581C149.508 251.539 158.285 252.422 164.243 247.555ZM151.021 231.372C154.001 228.937 158.387 229.379 160.823 232.359C163.258 235.339 162.816 239.725 159.836 242.161C156.855 244.596 152.469 244.154 150.034 241.174C147.599 238.193 148.044 233.805 151.021 231.372Z" fill="#110261"/>
<path d="M173.058 258.343C167.1 263.211 166.216 271.988 171.084 277.946C175.952 283.904 184.729 284.787 190.687 279.92C196.644 275.052 197.528 266.275 192.66 260.317C187.792 254.359 179.015 253.475 173.058 258.343ZM186.279 274.525C183.299 276.96 178.913 276.519 176.478 273.539C174.043 270.558 174.485 266.172 177.465 263.737C180.445 261.302 184.831 261.744 187.266 264.724C189.701 267.704 189.26 272.09 186.279 274.525Z" fill="#110261"/>
<path d="M140.957 257.586C134.999 262.453 134.115 271.231 138.983 277.188C143.851 283.146 152.628 284.03 158.586 279.162C164.543 274.294 165.427 265.517 160.559 259.559C155.692 253.602 146.914 252.718 140.957 257.586ZM154.179 273.768C151.198 276.203 146.812 275.762 144.377 272.781C141.942 269.801 142.384 265.415 145.364 262.98C148.345 260.545 152.731 260.987 155.166 263.967C157.601 266.947 157.159 271.333 154.179 273.768Z" fill="#110261"/>
<path d="M178.715 226.735C172.757 231.603 171.874 240.38 176.741 246.338C181.609 252.295 190.386 253.179 196.344 248.311C202.302 243.444 203.186 234.666 198.318 228.709C193.45 222.751 184.673 221.867 178.715 226.735ZM191.937 242.918C188.957 245.353 184.571 244.911 182.136 241.931C179.701 238.951 180.142 234.565 183.123 232.129C186.103 229.694 190.489 230.136 192.924 233.116C195.359 236.097 194.917 240.483 191.937 242.918Z" fill="#110261"/>
<path d="M138.371 206.179C136.647 207.295 134.986 208.504 133.393 209.797L103.725 234.037L94.9103 223.249L89.5165 227.656L85.1093 222.262C80.2415 216.304 71.4643 215.42 65.5066 220.288L52.0214 231.306C49.0412 233.741 44.6552 233.3 42.2201 230.319C39.7851 227.339 40.2267 222.953 43.207 220.518L86.3599 185.26C92.3177 180.392 93.2014 171.615 88.3336 165.657C83.4659 159.699 74.6887 158.816 68.731 163.683L55.2458 174.702C52.2655 177.137 47.8795 176.695 45.4445 173.715L36.6295 162.926L31.2354 167.333L40.0499 178.121C44.9176 184.079 53.6948 184.963 59.6525 180.095L73.1377 169.077C76.118 166.642 80.504 167.083 82.939 170.064C85.3741 173.044 84.9325 177.43 81.9522 179.865L38.7992 215.123C32.8415 219.991 31.9578 228.768 36.8255 234.726C41.6933 240.684 50.4705 241.567 56.4282 236.7L69.9134 225.681C72.8936 223.246 77.2796 223.688 79.7147 226.668L84.1219 232.062L78.7278 236.47L87.5423 247.258L57.8745 271.498C56.2856 272.801 54.7692 274.193 53.3317 275.659C36.3537 292.86 33.1157 324.502 46.2376 344.773C62.8726 370.665 97.3515 378.168 123.241 361.53C133.785 354.756 141.738 344.624 145.814 332.774C147.467 327.547 150.356 322.794 154.234 318.919C156.187 317.049 158.276 315.329 160.487 313.775C165.118 310.684 170.43 308.763 175.966 308.18C206.478 304.146 227.938 276.141 223.904 245.629C222.26 233.214 216.485 221.715 207.508 212.984C190.254 196.089 158.592 192.963 138.371 206.179ZM88.5294 237.457L93.9235 233.05L98.3307 238.444L92.9366 242.851L88.5294 237.457ZM217.363 255.129C216.314 278.731 198.485 298.178 175.063 301.272C168.406 301.993 162.025 304.328 156.477 308.079C155.27 308.926 154.088 309.824 152.929 310.771C151.701 311.774 150.543 312.806 149.412 313.887C144.724 318.531 141.227 324.236 139.218 330.519C130.449 355.979 102.701 369.512 77.2376 360.746C66.8723 357.175 58.0134 350.219 52.0885 340.991C40.8132 323.569 43.7108 295.332 58.2952 280.551C59.5563 279.259 60.8897 278.04 62.2822 276.893L137.8 215.191C139.197 214.05 140.656 212.984 142.166 211.997C159.555 200.654 187.8 203.446 202.63 217.964C212.667 227.649 218.036 241.195 217.363 255.129Z" fill="#110261"/>
</g>
<path d="M67.8556 25.7678H58.0214C55.3048 25.7678 53.1044 27.9682 53.1044 30.6849V39.4501L72.7726 39.4472V30.6849C72.7726 27.9682 70.5722 25.7678 67.8556 25.7678Z" fill="#0FDE8C"/>
<path d="M123.541 29.0353L112.478 32.7229L108.79 43.7865L105.102 32.7229L94.0385 29.0353L105.102 25.3477L108.79 14.459L112.478 25.3477L123.541 29.0353Z" fill="#FFB200"/>
<path d="M37.0179 24.3816L30.4637 27.6587L27.1837 34.2158L23.9067 27.6587L17.3496 24.3816L23.9067 21.1036L27.1837 14.459L30.4637 21.1036L37.0179 24.3816Z" fill="#FFB200"/>
<path d="M20.3467 61.6628C16.1622 68.8928 13.7676 77.2917 13.7676 86.2482H30.9778C30.9778 86.2482 34.9999 62.3338 35.2556 61.6628H20.3467Z" fill="#FCFCFC"/>
<path d="M20.347 61.6629H35.2559L53.1044 39.4471V38.0609C39.1107 40.8997 27.2752 49.6841 20.347 61.6629Z" fill="#F72D6B"/>
<path d="M90.6241 110.833H105.53C97.1071 125.395 81.4321 135.236 63.4423 135.414C76.5093 135.079 85.9281 123.314 90.6241 110.833Z" fill="#FCFCFC"/>
<path d="M35.2527 110.834H20.3467C16.1622 103.603 13.7676 95.2047 13.7676 86.2482H30.9778C30.9778 95.2047 32.5332 103.603 35.2527 110.834Z" fill="#FFB200"/>
<path d="M35.253 110.833C40.7796 125.53 51.1078 135.419 62.9386 135.419C44.7382 135.419 28.8488 125.53 20.347 110.833H35.253Z" fill="#FCFCFC"/>
<path d="M112.109 86.2482C112.109 95.2047 109.714 103.603 105.53 110.834H90.6238C93.5606 103.125 94.8997 94.4337 94.8997 86.2482H112.109Z" fill="#FFB200"/>
<path d="M112.109 86.2482H94.8997C94.8997 77.2917 93.3433 68.8928 90.6238 61.6628H105.53C109.714 68.8928 112.109 77.2917 112.109 86.2482Z" fill="#FCFCFC"/>
<path d="M105.53 61.6629H90.624C86.7 51.2289 80.3573 43.2183 72.7726 39.4471V38.0609C86.7663 40.8997 98.6019 49.6841 105.53 61.6629Z" fill="#F72D6B"/>
<path d="M90.624 61.6628C93.3435 68.8928 94.8998 77.2917 94.8998 86.2482H75.2316C75.2316 77.2917 74.6317 68.8928 73.5868 61.6628H90.624Z" fill="#0FDE8C"/>
<path d="M94.8998 86.2482C94.8998 94.4587 93.5088 103.259 90.624 110.834H73.5868C74.6317 103.603 75.2316 95.2047 75.2316 86.2482H94.8998Z" fill="#FCFCFC"/>
<path d="M90.6243 110.833C85.8985 123.392 76.1836 135.419 62.9387 135.419C67.4866 135.419 71.4597 125.53 73.5871 110.833H90.6243Z" fill="#F72D6B"/>
<path d="M75.2316 86.2482H50.6462C50.6462 77.2917 51.2461 68.8928 52.291 61.6628H73.5868C74.6317 68.8928 75.2316 77.2917 75.2316 86.2482Z" fill="#FCFCFC"/>
<path d="M50.6462 86.2482H75.2316C75.2316 95.2047 74.6317 103.603 73.5868 110.834H52.291C51.2461 103.603 50.6462 95.2047 50.6462 86.2482Z" fill="#0FDE8C"/>
<path d="M52.2911 110.833H73.5869C71.4595 125.53 67.4865 135.419 62.9385 135.419C58.3906 135.419 54.4175 125.53 52.2911 110.833Z" fill="#FCFCFC"/>
<path d="M90.6243 61.6629H73.5871C71.4597 46.9655 67.4866 37.0775 62.9387 37.0775C62.9926 37.0775 63.0445 37.0775 63.0983 37.0794C76.2393 37.1756 85.8908 49.0755 90.6243 61.6629Z" fill="#FCFCFC"/>
<path d="M62.9385 37.0775C67.4865 37.0775 71.4595 46.9655 73.5869 61.6629H52.2911C54.4175 46.9655 58.3906 37.0775 62.9385 37.0775Z" fill="#FFB200"/>
<path d="M52.2908 110.833C54.4172 125.53 58.3903 135.419 62.9382 135.419C51.1075 135.419 40.7792 125.53 35.2527 110.833H52.2908Z" fill="#F72D6B"/>
<path d="M54.4888 38.8127C54.4859 38.8156 54.4811 38.8175 54.4763 38.8175C45.1747 42.8761 38.7695 52.218 35.256 61.6629H52.2912C54.4176 46.9655 58.3907 37.0775 62.9386 37.0775C59.8615 37.0775 57.2266 37.686 54.4888 38.8127Z" fill="#FCFCFC"/>
<path d="M35.2559 61.6628C32.3595 69.2648 30.9781 78.03 30.9781 86.2482H50.6464C50.6464 77.2917 51.2463 68.8928 52.2912 61.6628C50.5359 61.6628 37.0767 61.6628 35.2559 61.6628Z" fill="#0FDE8C"/>
<path d="M52.2912 110.834H35.2531C32.5335 103.603 30.9781 95.2047 30.9781 86.2482H50.6464C50.6464 95.2047 51.2463 103.603 52.2912 110.834Z" fill="#FCFCFC"/>
<path d="M35.8953 64.1209C37.2517 64.1209 38.3533 63.0192 38.3533 61.6628C38.3533 60.4208 37.4286 59.3903 36.2318 59.2288C34.8013 59.0058 33.4363 60.1478 33.4363 61.6628C33.4363 63.0231 34.5408 64.1209 35.8953 64.1209Z" fill="black"/>
<path d="M16.2508 26.5801L22.0743 29.4909L24.9852 35.3145C25.4014 36.1479 26.2531 36.6738 27.1837 36.6738C28.1142 36.6738 28.9659 36.1479 29.3831 35.3155L32.2959 29.4909L38.1175 26.5801C38.951 26.1638 39.4768 25.3121 39.4768 24.3816C39.4768 23.4501 38.951 22.5993 38.1175 22.1821L32.3026 19.2742L29.3889 13.3708C28.9746 12.5316 28.12 12 27.1837 12C26.2474 12 25.3928 12.5316 24.9784 13.3708L22.0676 19.2742L16.2508 22.1821C15.4173 22.5984 14.8915 23.4501 14.8915 24.3816C14.8915 25.3121 15.4173 26.1638 16.2508 26.5801ZM25.0063 23.303C25.486 23.0636 25.8744 22.6724 26.1118 22.1917L27.1846 20.0154L28.2584 22.1917C28.4958 22.6734 28.8842 23.0636 29.3639 23.303L31.5201 24.3816L29.3639 25.4602C28.8881 25.6976 28.5026 26.0831 28.2651 26.5589L27.1846 28.718L26.106 26.5599C25.8676 26.0831 25.4812 25.6976 25.0054 25.4602L22.8482 24.3816L25.0063 23.303Z" fill="#110261"/>
<path d="M93.2616 31.3674L103.159 34.6666L106.457 44.5642C106.792 45.5678 107.732 46.2445 108.79 46.2445C109.848 46.2445 110.788 45.5678 111.123 44.5642L114.421 34.6666L124.318 31.3674C125.323 31.0329 126 30.0937 126 29.0353C126 27.9769 125.323 27.0377 124.318 26.7031L114.414 23.4011L111.119 13.6698C110.78 12.672 109.844 12 108.79 12C107.736 12 106.8 12.672 106.461 13.6698L103.166 23.4011L93.2616 26.7031C92.2571 27.0377 91.5803 27.9769 91.5803 29.0353C91.5803 30.0937 92.2571 31.0329 93.2616 31.3674ZM105.88 27.6798C106.609 27.4366 107.184 26.8646 107.431 26.136L108.79 22.1225L110.149 26.136C110.396 26.8646 110.97 27.4366 111.7 27.6798L115.767 29.0353L111.7 30.3907C110.966 30.6349 110.39 31.2117 110.145 31.9461L108.79 36.0124L107.435 31.9461C107.19 31.2117 106.614 30.6349 105.88 30.3907L101.813 29.0353L105.88 27.6798Z" fill="#110261"/>
<path d="M11.3099 86.2482C11.3099 114.813 34.4908 137.877 62.9387 137.877C63.1213 137.877 63.3068 137.877 63.4895 137.872C91.6682 137.582 114.568 114.64 114.568 86.2482C114.568 62.0137 97.8561 41.6235 75.2318 36.096V30.6849C75.2318 26.6176 71.923 23.3097 67.8557 23.3097H65.3977V14.459C65.3977 13.1007 64.296 12 62.9387 12C61.5813 12 60.4806 13.1007 60.4806 14.459V23.3097H58.0216C53.9543 23.3097 50.6465 26.6176 50.6465 30.6849V36.096C28.0193 41.6235 11.3099 62.0166 11.3099 86.2482ZM16.2972 88.7063H28.5576C28.7711 95.6046 29.8833 102.265 31.804 108.375H21.792C18.5341 102.327 16.6596 95.5969 16.2972 88.7063ZM24.8528 113.292H33.5728C35.8251 118.805 38.9676 124.147 43.0483 128.483C35.8578 125.091 29.5526 119.89 24.8528 113.292ZM33.4776 88.7063H48.2048C48.2894 95.5459 48.7239 102.252 49.4814 108.375H36.9739C34.9051 102.351 33.7064 95.669 33.4776 88.7063ZM38.9224 113.292H50.1822C51.0954 118.935 52.6864 126.229 55.2473 131.342C47.7203 128.106 42.2793 120.696 38.9224 113.292ZM71.4385 64.1209C72.2191 70.2079 72.669 76.9226 72.7555 83.7892H53.1218C53.2084 76.9226 53.6582 70.2079 54.4388 64.1209H71.4385ZM55.1636 59.2039C57.6486 44.419 61.4131 39.5356 62.9387 39.5356C64.4652 39.5356 68.2287 44.42 70.7137 59.2039H55.1636ZM72.7555 88.7063C72.669 95.5729 72.2191 102.288 71.4385 108.375H54.4388C53.6582 102.288 53.2084 95.5729 53.1218 88.7063H72.7555ZM62.9387 132.96C61.4131 132.96 57.6486 128.074 55.1636 113.29H70.7137C68.2287 128.074 64.4652 132.96 62.9387 132.96ZM70.5781 131.446C73.1717 126.323 74.779 118.954 75.6952 113.29H86.7492C83.4212 120.789 78.1292 128.318 70.5781 131.446ZM77.6726 83.7892C77.588 76.9495 77.1535 70.2435 76.396 64.1209H88.8295C90.9165 70.2089 92.1556 76.9534 92.3959 83.7892H77.6726ZM92.3901 88.7063C92.1267 95.322 90.8194 102.159 88.6776 108.375H76.396C77.1535 102.252 77.5889 95.5459 77.6735 88.7063H92.3901ZM82.8886 128.448C86.8626 124.111 89.8763 118.766 92.0844 113.29H101.025C96.342 119.858 90.0551 125.052 82.8886 128.448ZM104.085 108.375H93.8503C95.8518 102.079 97.0649 95.2806 97.3101 88.7043H109.58C109.218 95.595 107.343 102.327 104.085 108.375ZM109.58 83.7892H97.3168C97.0928 77.011 95.9441 70.2944 94.0003 64.1209H104.085C107.343 70.1685 109.218 76.8986 109.58 83.7892ZM101.026 59.2039H92.2344C90.0032 53.6994 86.9107 48.3334 82.7934 43.9518C90.0378 47.3568 96.3334 52.6007 101.026 59.2039ZM86.8944 59.2039H75.6952C74.7848 53.5735 73.191 46.257 70.6214 41.1362C78.1551 44.3498 83.5404 51.7307 86.8944 59.2039ZM55.5635 30.6849C55.5635 29.3294 56.6662 28.2268 58.0216 28.2268H67.8557C69.2112 28.2268 70.3148 29.3294 70.3148 30.6849V35.1463C65.5092 34.4589 60.5739 34.4311 55.5635 35.1463V30.6849ZM43.182 43.9076C41.1305 46.0619 39.23 48.5488 37.5526 51.2894C36.8431 52.4478 37.2075 53.9619 38.3658 54.6703C39.5242 55.3788 41.0373 55.0145 41.7458 53.8561C44.9556 48.6113 49.5304 43.6009 55.255 41.14C52.6883 46.2561 51.0944 53.5658 50.1822 59.2039H45.7294C44.3711 59.2039 43.2704 60.3046 43.2704 61.6629C43.2704 63.0202 44.3711 64.119 45.7294 64.119H49.4814C48.7239 70.2415 48.2884 76.9495 48.2038 83.7892H33.4776C33.6122 79.7383 34.0871 75.821 34.9715 71.399C35.2377 70.0676 34.3745 68.7727 33.0431 68.5064C31.7117 68.2401 30.4168 69.1034 30.1496 70.4348C29.1979 75.1923 28.6932 79.4076 28.5576 83.7892H16.2972C16.6596 76.8986 18.5341 70.1685 21.792 64.1209H26.0611C27.4185 64.1209 28.5192 63.0202 28.5192 61.6629C28.5192 60.3046 27.4185 59.2039 26.0611 59.2039H24.8509C29.5641 52.5709 35.8962 47.3106 43.182 43.9076Z" fill="#110261"/>
<path d="M2.45902 46.9117H4.91707V49.3697C4.91707 50.728 6.01776 51.8287 7.37608 51.8287C8.73344 51.8287 9.83414 50.728 9.83414 49.3697V46.9117H12.2932C13.6505 46.9117 14.7512 45.811 14.7512 44.4526C14.7512 43.0953 13.6505 41.9946 12.2932 41.9946H9.83414V39.5356C9.83414 38.1782 8.73344 37.0775 7.37608 37.0775C6.01776 37.0775 4.91707 38.1782 4.91707 39.5356V41.9946H2.45902C1.10069 41.9946 0 43.0953 0 44.4526C0 45.811 1.10069 46.9117 2.45902 46.9117Z" fill="#110261"/>
</g>
<defs>
<clipPath id="clip0">
<rect width="349" height="372" fill="white"/>
</clipPath>
<clipPath id="clip1">
<rect width="209" height="209" fill="white" transform="translate(-47 231.237) rotate(-39.2505)"/>
</clipPath>
</defs>
</svg>
