<svg width="250" height="62" viewBox="0 0 250 62" fill="none" xmlns="http://www.w3.org/2000/svg">
<path d="M226.684 43.3825H223.825C222.786 43.3825 221.944 42.5405 221.944 41.501C221.944 40.4615 222.786 39.6195 223.825 39.6195H228.856C229.543 39.6195 230.104 39.0582 230.104 38.3721C230.104 37.6861 229.543 37.1247 228.856 37.1247H226.497V35.3888C226.497 34.7027 225.935 34.1414 225.249 34.1414C224.563 34.1414 224.002 34.7027 224.002 35.3888V37.1247H223.825C221.414 37.1247 219.449 39.0894 219.449 41.501C219.449 43.9127 221.414 45.8773 223.825 45.8773H226.684C227.723 45.8773 228.565 46.7193 228.565 47.7588C228.565 48.7983 227.723 49.6403 226.684 49.6403H221.559C220.873 49.6403 220.312 50.2016 220.312 50.8877C220.312 51.5738 220.873 52.1351 221.559 52.1351H224.012V53.9127C224.012 54.5987 224.574 55.1601 225.26 55.1601C225.946 55.1601 226.507 54.5987 226.507 53.9127V52.1351H226.715C226.725 52.1351 226.736 52.1351 226.746 52.1351C229.137 52.1039 231.06 50.1497 231.06 47.7588C231.06 45.3472 229.096 43.3825 226.684 43.3825Z" fill="#63BEFF"/>
<path d="M244.002 40.5551C242.692 37.5405 240.884 34.6195 238.597 31.8857C235.832 28.5593 233.077 26.3347 231.674 25.3056L236.975 15.4719C237.235 14.9834 237.152 14.3805 236.746 13.9958C235.374 12.6549 233.919 12 232.297 12C230.811 12 229.449 12.5613 228.264 13.0603C227.329 13.4449 226.445 13.8191 225.728 13.8191C225.509 13.8191 225.322 13.7879 225.135 13.7152C222.661 12.8108 220.759 12.2495 218.919 12.2495C216.59 12.2495 214.605 13.185 212.661 15.1809C212.256 15.5967 212.193 16.2516 212.516 16.7401L218.233 25.3784C216.819 26.4283 214.116 28.632 211.403 31.8857C209.127 34.6195 207.308 37.5405 205.998 40.5551C204.356 44.3493 203.524 48.3098 203.524 52.3222C203.524 57.6549 207.869 62 213.202 62H236.798C242.131 62 246.476 57.6549 246.476 52.3222C246.476 48.3098 245.645 44.3493 244.002 40.5551ZM215.177 16.2204C216.383 15.1809 217.536 14.7235 218.919 14.7235C220.395 14.7235 222.058 15.2225 224.272 16.0437C224.73 16.21 225.218 16.2931 225.717 16.2931C226.933 16.2931 228.098 15.815 229.21 15.3472C230.281 14.9002 231.299 14.474 232.287 14.474C232.765 14.474 233.441 14.5572 234.293 15.1601L229.304 24.4324H220.613L215.177 16.2204ZM236.798 59.5052H213.202C209.241 59.5052 206.019 56.2827 206.019 52.3222C206.019 45.659 208.462 39.3389 213.264 33.5385C216.299 29.869 219.387 27.5925 220.322 26.9272H229.657C230.603 27.5821 233.68 29.869 236.715 33.5385C241.528 39.3389 243.961 45.6486 243.961 52.3222C243.981 56.2827 240.759 59.5052 236.798 59.5052Z" fill="#63BEFF"/>
<path d="M126.81 33.8369C126.695 33.8121 126.577 33.8076 126.461 33.825C125.297 33.6895 124.418 32.7043 124.416 31.5323C124.416 30.9707 123.961 30.5154 123.399 30.5154C122.838 30.5154 122.382 30.9707 122.382 31.5323C122.385 33.4893 123.694 35.2035 125.581 35.7214V36.7384C125.581 37.3 126.036 37.7554 126.598 37.7554C127.16 37.7554 127.615 37.3 127.615 36.7384V35.783C129.793 35.3271 131.273 33.2986 131.044 31.0854C130.815 28.8722 128.95 27.1903 126.725 27.1898C125.45 27.1898 124.416 26.156 124.416 24.8808C124.416 23.6056 125.45 22.5717 126.725 22.5717C128 22.5717 129.034 23.6056 129.034 24.8808C129.034 25.4424 129.49 25.8977 130.051 25.8977C130.613 25.8977 131.068 25.4424 131.068 24.8808C131.065 22.8259 129.626 21.0537 127.615 20.6296V19.704C127.615 19.1424 127.16 18.687 126.598 18.687C126.036 18.687 125.581 19.1424 125.581 19.704V20.6917C123.483 21.2647 122.132 23.3022 122.421 25.4583C122.71 27.6144 124.55 29.2238 126.725 29.2233C127.984 29.2233 129.01 30.2308 129.033 31.4886C129.056 32.7465 128.067 33.7912 126.81 33.8369V33.8369Z" fill="#63BEFF"/>
<path d="M111.978 28.2847C111.978 36.4295 118.58 43.0319 126.725 43.0319C134.87 43.0319 141.472 36.4295 141.472 28.2847C141.472 20.14 134.87 13.5375 126.725 13.5375C118.584 13.5465 111.987 20.1439 111.978 28.2847ZM126.725 15.5715C133.746 15.5715 139.438 21.2632 139.438 28.2847C139.438 35.3063 133.746 40.998 126.725 40.998C119.703 40.998 114.012 35.3063 114.012 28.2847C114.02 21.2667 119.707 15.5794 126.725 15.5715Z" fill="#63BEFF"/>
<path d="M146.486 45.5391L138.519 49.3031C137.419 47.2572 135.309 45.9552 132.987 45.8897L125.633 45.6876C124.469 45.6543 123.326 45.3593 122.291 44.8245L121.542 44.4367C117.711 42.4395 113.144 42.4445 109.316 44.4496L109.363 42.7543C109.378 42.1927 108.936 41.7249 108.374 41.7095L100.31 41.4876C99.7483 41.4722 99.281 41.9146 99.2656 42.4762L98.7785 60.1731C98.7631 60.7347 99.2055 61.2025 99.7671 61.2179L107.831 61.4398H107.859C108.41 61.4398 108.861 61.0014 108.876 60.4507L108.9 59.604L110.995 58.4823C111.817 58.0398 112.778 57.9345 113.677 58.1888L126.187 61.7C126.209 61.7065 126.231 61.7115 126.253 61.7164C127.158 61.9056 128.079 62.0005 129.003 62C130.959 62.001 132.893 61.5794 134.671 60.763C134.715 60.7431 134.757 60.7198 134.797 60.6935L152.937 48.9605C153.388 48.668 153.534 48.0746 153.27 47.6058C151.923 45.2163 148.936 44.3061 146.486 45.5391V45.5391ZM100.84 59.2127L101.271 43.5488L107.302 43.7147L106.871 59.3791L100.84 59.2127ZM133.755 58.9465C131.546 59.9437 129.078 60.2188 126.704 59.7336L114.227 56.2313C112.823 55.8345 111.319 55.9989 110.035 56.6896L108.964 57.2632L109.251 46.8486C112.643 44.5921 116.994 44.3602 120.607 46.2427L121.356 46.6306C122.664 47.3059 124.106 47.6783 125.577 47.721L132.932 47.9231C134.998 47.9827 136.752 49.4536 137.171 51.4776L126.217 51.1752C125.655 51.1598 125.188 51.6027 125.172 52.1639C125.156 52.7255 125.599 53.1933 126.16 53.2087L138.25 53.5414H138.278C138.829 53.5409 139.279 53.1024 139.294 52.5522C139.307 52.1102 139.274 51.6678 139.196 51.2328L147.367 47.372C147.375 47.3685 147.383 47.3645 147.391 47.3605C148.55 46.7741 149.951 46.9702 150.905 47.8526L133.755 58.9465Z" fill="#63BEFF"/>
<g clip-path="url(#clip0)">
<path d="M43.7799 44.0575V26.5015C43.7799 25.9563 43.3065 25.5796 42.7279 25.5796H38.6567C38.0781 25.5796 37.5732 25.9563 37.5732 26.5015V42.3425C36.8999 42.3623 36.2266 42.4416 35.5744 42.5903V31.6761C35.5744 31.1309 35.08 30.7344 34.5014 30.7344H30.4301C29.8515 30.7344 29.3676 31.121 29.3676 31.6761V46.4762C28.1158 48.1317 27.4425 50.1242 27.453 52.1663C27.453 57.5986 32.1238 62 37.8783 62C43.6432 62 48.314 57.5986 48.314 52.1762C48.314 48.9248 46.6203 45.8914 43.7799 44.0575ZM39.6772 27.5622H41.6759V43.0067C41.0342 42.7688 40.361 42.5903 39.6772 42.4912V27.5622ZM31.4716 32.717H33.4704V43.2743C32.7656 43.5816 32.0923 43.9583 31.4716 44.4044V32.717ZM45.0528 56.1612C43.5485 58.5503 40.8238 60.0075 37.8888 60.0075C33.2916 60.0075 29.5675 56.4884 29.5675 52.1663C29.5675 48.9941 31.5979 46.1293 34.7118 44.9199C34.838 44.9001 34.9537 44.8505 35.0589 44.791C35.9636 44.4738 36.9315 44.3152 37.8993 44.3152C38.1202 44.3152 38.3306 44.3251 38.5515 44.3449H38.562C39.8244 44.4342 41.0553 44.8009 42.1388 45.4155C46.0942 47.6262 47.3988 52.434 45.0528 56.1612Z" fill="#63BEFF"/>
<path d="M37.8994 51.3634C37.163 51.3634 36.5739 50.8082 36.5739 50.1143C36.5739 49.4204 37.1525 48.8653 37.8889 48.8554C38.6253 48.8554 39.2144 49.4204 39.2144 50.1044C39.2144 50.6496 39.6878 51.0957 40.2664 51.0957C40.8555 51.0957 41.3289 50.6595 41.3394 50.1044C41.3394 48.7761 40.4768 47.5766 39.1618 47.0908V46.2681C39.1618 45.7228 38.6884 45.2768 38.1098 45.2768C37.5312 45.2768 37.0578 45.7228 37.0578 46.2681V46.9818C35.2273 47.4279 34.1227 49.1924 34.5961 50.9173C34.9748 52.3447 36.3319 53.336 37.8889 53.336C38.6147 53.336 39.2039 53.9011 39.2039 54.5851C39.2039 55.2691 38.6042 55.8242 37.8783 55.8242C37.1525 55.8242 36.5634 55.2592 36.5634 54.5752C36.5634 54.03 36.09 53.5839 35.5114 53.5839C34.9328 53.5839 34.4699 54.02 34.4804 54.5653V54.5752C34.4909 56.0423 35.5429 57.331 37.0473 57.6978V58.1438C37.0473 58.6891 37.5207 59.1352 38.0993 59.1352C38.6779 59.1352 39.1513 58.6891 39.1513 58.1438V57.5986C40.9186 56.9444 41.7812 55.0708 41.0975 53.4153C40.582 52.1762 39.3091 51.3634 37.8994 51.3634Z" fill="#63BEFF"/>
<path d="M18.0061 38.6648H13.9033C13.3247 38.6648 12.8513 39.1108 12.8513 39.6561V55.2195C12.8513 55.7647 13.3247 56.2108 13.9033 56.2108H18.0061C18.5847 56.2108 19.0581 55.7647 19.0581 55.2195V39.6561C19.0581 39.1108 18.5847 38.6648 18.0061 38.6648ZM16.9541 54.3273H14.9553V40.6474H16.9541V54.3273Z" fill="#63BEFF"/>
<path d="M26.3169 36.3848H22.2141C21.6355 36.3848 21.1621 36.8309 21.1621 37.3761V55.3186C21.1621 55.8639 21.6355 56.3099 22.2141 56.3099H26.3169C26.8955 56.3099 27.3689 55.8639 27.3689 55.3186V37.3761C27.3689 36.8309 26.8955 36.3848 26.3169 36.3848ZM25.2649 54.3273H23.2661V38.3674H25.2649V54.3273Z" fill="#63BEFF"/>
<path d="M9.69529 47.19H5.59252C5.01392 47.19 4.54053 47.6361 4.54053 48.1813V55.2195C4.54053 55.7647 5.01392 56.2108 5.59252 56.2108H9.69529C10.2739 56.2108 10.7473 55.7647 10.7473 55.2195V48.1813C10.7473 47.6361 10.2739 47.19 9.69529 47.19ZM8.6433 54.3273H6.64451V49.1726H8.6433V54.3273Z" fill="#63BEFF"/>
<path d="M43.6223 13L36.4267 13.0099C35.8481 13 35.3747 13.4461 35.3642 13.9913C35.3536 14.5365 35.827 14.9826 36.4056 14.9925C36.4162 14.9925 36.4162 14.9925 36.4267 14.9925L41.087 14.9826L29.6729 25.6986L25.6858 21.9713C25.486 21.7928 25.2124 21.7036 24.9389 21.7135C24.6654 21.7036 24.3919 21.7928 24.192 21.9713L3.99374 41.0042C3.58347 41.3909 3.58347 42.0154 3.99374 42.3921C4.19362 42.5804 4.45662 42.6795 4.74066 42.6795C5.0247 42.6795 5.28769 42.5804 5.48757 42.3921L24.9494 24.053L28.9365 27.8398C29.1258 28.038 29.3994 28.1471 29.6834 28.157C29.9674 28.1471 30.2304 28.0281 30.4303 27.8398L42.5703 16.3902L42.5598 20.8015C42.5598 21.3567 43.0227 21.8028 43.6118 21.8226C44.2009 21.8127 44.6638 21.3567 44.6638 20.8015L44.6743 14.0012C44.6743 13.456 44.2009 13 43.6223 13Z" fill="#63BEFF"/>
</g>
<defs>
<clipPath id="clip0">
<rect width="52" height="49" fill="white" transform="translate(0 13)"/>
</clipPath>
</defs>
</svg>
