<svg width="145" height="152" viewBox="0 0 145 152" fill="none" xmlns="http://www.w3.org/2000/svg">
<path d="M29.6839 133.383H26.8253C25.7858 133.383 24.9438 132.541 24.9438 131.501C24.9438 130.462 25.7858 129.62 26.8253 129.62H31.8565C32.5425 129.62 33.1039 129.058 33.1039 128.372C33.1039 127.686 32.5425 127.125 31.8565 127.125H29.4968V125.389C29.4968 124.703 28.9355 124.141 28.2494 124.141C27.5633 124.141 27.002 124.703 27.002 125.389V127.125H26.8253C24.4136 127.125 22.449 129.089 22.449 131.501C22.449 133.913 24.4136 135.877 26.8253 135.877H29.6839C30.7234 135.877 31.5654 136.719 31.5654 137.759C31.5654 138.798 30.7234 139.64 29.6839 139.64H24.5592C23.8731 139.64 23.3118 140.202 23.3118 140.888C23.3118 141.574 23.8731 142.135 24.5592 142.135H27.0124V143.913C27.0124 144.599 27.5737 145.16 28.2598 145.16C28.9459 145.16 29.5072 144.599 29.5072 143.913V142.135H29.7151C29.7255 142.135 29.7359 142.135 29.7463 142.135C32.1371 142.104 34.0602 140.15 34.0602 137.759C34.0602 135.347 32.0955 133.383 29.6839 133.383Z" fill="#63BEFF"/>
<path d="M47.0021 130.555C45.6923 127.541 43.8836 124.62 41.5967 121.886C38.8316 118.559 36.0769 116.335 34.6736 115.306L39.9751 105.472C40.2349 104.983 40.1518 104.38 39.7464 103.996C38.3742 102.655 36.9189 102 35.2973 102C33.8108 102 32.4491 102.561 31.2641 103.06C30.3285 103.445 29.4449 103.819 28.7277 103.819C28.5094 103.819 28.3223 103.788 28.1352 103.715C25.6611 102.811 23.7589 102.249 21.9189 102.249C19.5905 102.249 17.605 103.185 15.6611 105.181C15.2557 105.597 15.1934 106.252 15.5156 106.74L21.2329 115.378C19.8191 116.428 17.1164 118.632 14.4033 121.886C12.1268 124.62 10.3077 127.541 8.99794 130.555C7.35553 134.349 6.52393 138.31 6.52393 142.322C6.52393 147.655 10.869 152 16.2017 152H39.7984C45.131 152 49.4761 147.655 49.4761 142.322C49.4761 138.31 48.6445 134.349 47.0021 130.555ZM18.1767 106.22C19.3826 105.181 20.5364 104.723 21.9189 104.723C23.395 104.723 25.0582 105.222 27.2724 106.044C27.7297 106.21 28.2183 106.293 28.7173 106.293C29.9335 106.293 31.0977 105.815 32.21 105.347C33.2807 104.9 34.2994 104.474 35.2869 104.474C35.7651 104.474 36.4408 104.557 37.2932 105.16L32.3036 114.432H23.6133L18.1767 106.22ZM39.7984 149.505H16.2017C12.2412 149.505 9.01873 146.283 9.01873 142.322C9.01873 135.659 11.4616 129.339 16.2641 123.538C19.2994 119.869 22.3867 117.593 23.3223 116.927H32.657C33.6029 117.582 36.6799 119.869 39.7152 123.538C44.5281 129.339 46.9605 135.649 46.9605 142.322C46.9813 146.283 43.7589 149.505 39.7984 149.505Z" fill="#63BEFF"/>
<path d="M31.8096 33.8369C31.6949 33.8121 31.5772 33.8076 31.461 33.825C30.2966 33.6895 29.4181 32.7043 29.4161 31.5323C29.4161 30.9707 28.9608 30.5154 28.3992 30.5154C27.8375 30.5154 27.3822 30.9707 27.3822 31.5323C27.3852 33.4893 28.6941 35.2035 30.5811 35.7214V36.7384C30.5811 37.3 31.0365 37.7554 31.5981 37.7554C32.1597 37.7554 32.6151 37.3 32.6151 36.7384V35.783C34.793 35.3271 36.2733 33.2986 36.0444 31.0854C35.815 28.8722 33.9503 27.1903 31.7252 27.1898C30.45 27.1898 29.4161 26.156 29.4161 24.8808C29.4161 23.6056 30.45 22.5717 31.7252 22.5717C33.0004 22.5717 34.0343 23.6056 34.0343 24.8808C34.0343 25.4424 34.4896 25.8977 35.0512 25.8977C35.6129 25.8977 36.0682 25.4424 36.0682 24.8808C36.0652 22.8259 34.6257 21.0537 32.6151 20.6296V19.704C32.6151 19.1424 32.1597 18.687 31.5981 18.687C31.0365 18.687 30.5811 19.1424 30.5811 19.704V20.6917C28.4826 21.2647 27.1319 23.3022 27.4209 25.4583C27.7099 27.6144 29.5497 29.2238 31.7252 29.2233C32.9835 29.2233 34.0099 30.2308 34.0328 31.4886C34.0561 32.7465 33.0669 33.7912 31.8096 33.8369V33.8369Z" fill="#63BEFF"/>
<path d="M16.9778 28.2847C16.9778 36.4295 23.5802 43.0319 31.725 43.0319C39.8697 43.0319 46.4721 36.4295 46.4721 28.2847C46.4721 20.14 39.8697 13.5375 31.725 13.5375C23.5842 13.5465 16.9872 20.1439 16.9778 28.2847ZM31.725 15.5715C38.7465 15.5715 44.4382 21.2632 44.4382 28.2847C44.4382 35.3063 38.7465 40.998 31.725 40.998C24.7034 40.998 19.0117 35.3063 19.0117 28.2847C19.0197 21.2667 24.7069 15.5794 31.725 15.5715Z" fill="#63BEFF"/>
<path d="M51.4856 45.5391L43.5191 49.3031C42.4192 47.2572 40.3093 45.9552 37.9873 45.8897L30.6331 45.6876C29.4686 45.6543 28.326 45.3593 27.2906 44.8245L26.5423 44.4367C22.7108 42.4395 18.1438 42.4445 14.3162 44.4496L14.3629 42.7543C14.3783 42.1927 13.9358 41.7249 13.3742 41.7095L5.30989 41.4876C4.74827 41.4722 4.281 41.9146 4.2656 42.4762L3.77847 60.1731C3.76307 60.7347 4.20552 61.2025 4.76714 61.2179L12.8315 61.4398H12.8593C13.4105 61.4398 13.8614 61.0014 13.8763 60.4507L13.8996 59.604L15.9946 58.4823C16.8169 58.0398 17.7783 57.9345 18.6766 58.1888L31.1872 61.7C31.2091 61.7065 31.2309 61.7115 31.2533 61.7164C32.1575 61.9056 33.0792 62.0005 34.0028 62C35.9593 62.001 37.8929 61.5794 39.6712 60.763C39.7149 60.7431 39.7571 60.7198 39.7973 60.6935L57.9366 48.9605C58.3884 48.668 58.5344 48.0746 58.2698 47.6058C56.9231 45.2163 53.9362 44.3061 51.4856 45.5391V45.5391ZM5.83974 59.2127L6.27076 43.5488L12.3016 43.7147L11.8706 59.3791L5.83974 59.2127ZM38.755 58.9465C36.5457 59.9437 34.0783 60.2188 31.7037 59.7336L19.2268 56.2313C17.8225 55.8345 16.3194 55.9989 15.0348 56.6896L13.9641 57.2632L14.2507 46.8486C17.6432 44.5921 21.9942 44.3602 25.6073 46.2427L26.3556 46.6306C27.6636 47.3059 29.1061 47.6783 30.5774 47.721L37.9322 47.9231C39.9979 47.9827 41.7523 49.4536 42.1714 51.4776L31.2165 51.1752C30.6549 51.1598 30.1876 51.6027 30.1717 52.1639C30.1564 52.7255 30.5993 53.1933 31.1604 53.2087L43.25 53.5414H43.2783C43.829 53.5409 44.2793 53.1024 44.2942 52.5522C44.3067 52.1102 44.2739 51.6678 44.1959 51.2328L52.367 47.372C52.375 47.3685 52.3829 47.3645 52.3908 47.3605C53.5498 46.7741 54.9512 46.9702 55.9046 47.8526L38.755 58.9465Z" fill="#63BEFF"/>
<path d="M120.684 44.3825H117.825C116.786 44.3825 115.944 43.5405 115.944 42.501C115.944 41.4615 116.786 40.6195 117.825 40.6195H122.856C123.543 40.6195 124.104 40.0582 124.104 39.3721C124.104 38.6861 123.543 38.1247 122.856 38.1247H120.497V36.3888C120.497 35.7027 119.935 35.1414 119.249 35.1414C118.563 35.1414 118.002 35.7027 118.002 36.3888V38.1247H117.825C115.414 38.1247 113.449 40.0894 113.449 42.501C113.449 44.9127 115.414 46.8773 117.825 46.8773H120.684C121.723 46.8773 122.565 47.7193 122.565 48.7588C122.565 49.7983 121.723 50.6403 120.684 50.6403H115.559C114.873 50.6403 114.312 51.2016 114.312 51.8877C114.312 52.5738 114.873 53.1351 115.559 53.1351H118.012V54.9127C118.012 55.5987 118.574 56.1601 119.26 56.1601C119.946 56.1601 120.507 55.5987 120.507 54.9127V53.1351H120.715C120.725 53.1351 120.736 53.1351 120.746 53.1351C123.137 53.1039 125.06 51.1497 125.06 48.7588C125.06 46.3472 123.096 44.3825 120.684 44.3825Z" fill="#63BEFF"/>
<path d="M138.002 41.5551C136.692 38.5405 134.884 35.6195 132.597 32.8857C129.832 29.5593 127.077 27.3347 125.674 26.3056L130.975 16.4719C131.235 15.9834 131.152 15.3805 130.746 14.9958C129.374 13.6549 127.919 13 126.297 13C124.811 13 123.449 13.5613 122.264 14.0603C121.329 14.4449 120.445 14.8191 119.728 14.8191C119.509 14.8191 119.322 14.7879 119.135 14.7152C116.661 13.8108 114.759 13.2495 112.919 13.2495C110.59 13.2495 108.605 14.185 106.661 16.1809C106.256 16.5967 106.193 17.2516 106.516 17.7401L112.233 26.3784C110.819 27.4283 108.116 29.632 105.403 32.8857C103.127 35.6195 101.308 38.5405 99.9979 41.5551C98.3555 45.3493 97.5239 49.3098 97.5239 53.3222C97.5239 58.6549 101.869 63 107.202 63H130.798C136.131 63 140.476 58.6549 140.476 53.3222C140.476 49.3098 139.645 45.3493 138.002 41.5551ZM109.177 17.2204C110.383 16.1809 111.536 15.7235 112.919 15.7235C114.395 15.7235 116.058 16.2225 118.272 17.0437C118.73 17.21 119.218 17.2931 119.717 17.2931C120.933 17.2931 122.098 16.815 123.21 16.3472C124.281 15.9002 125.299 15.474 126.287 15.474C126.765 15.474 127.441 15.5572 128.293 16.1601L123.304 25.4324H114.613L109.177 17.2204ZM130.798 60.5052H107.202C103.241 60.5052 100.019 57.2827 100.019 53.3222C100.019 46.659 102.462 40.3389 107.264 34.5385C110.299 30.869 113.387 28.5925 114.322 27.9272H123.657C124.603 28.5821 127.68 30.869 130.715 34.5385C135.528 40.3389 137.961 46.6486 137.961 53.3222C137.981 57.2827 134.759 60.5052 130.798 60.5052Z" fill="#63BEFF"/>
<path d="M114.81 123.837C114.695 123.812 114.577 123.808 114.461 123.825C113.297 123.689 112.418 122.704 112.416 121.532C112.416 120.971 111.961 120.515 111.399 120.515C110.838 120.515 110.382 120.971 110.382 121.532C110.385 123.489 111.694 125.204 113.581 125.721V126.738C113.581 127.3 114.036 127.755 114.598 127.755C115.16 127.755 115.615 127.3 115.615 126.738V125.783C117.793 125.327 119.273 123.299 119.044 121.085C118.815 118.872 116.95 117.19 114.725 117.19C113.45 117.19 112.416 116.156 112.416 114.881C112.416 113.606 113.45 112.572 114.725 112.572C116 112.572 117.034 113.606 117.034 114.881C117.034 115.442 117.49 115.898 118.051 115.898C118.613 115.898 119.068 115.442 119.068 114.881C119.065 112.826 117.626 111.054 115.615 110.63V109.704C115.615 109.142 115.16 108.687 114.598 108.687C114.036 108.687 113.581 109.142 113.581 109.704V110.692C111.483 111.265 110.132 113.302 110.421 115.458C110.71 117.614 112.55 119.224 114.725 119.223C115.984 119.223 117.01 120.231 117.033 121.489C117.056 122.746 116.067 123.791 114.81 123.837V123.837Z" fill="#63BEFF"/>
<path d="M99.9778 118.285C99.9778 126.43 106.58 133.032 114.725 133.032C122.87 133.032 129.472 126.43 129.472 118.285C129.472 110.14 122.87 103.538 114.725 103.538C106.584 103.546 99.9872 110.144 99.9778 118.285ZM114.725 105.571C121.746 105.571 127.438 111.263 127.438 118.285C127.438 125.306 121.746 130.998 114.725 130.998C107.703 130.998 102.012 125.306 102.012 118.285C102.02 111.267 107.707 105.579 114.725 105.571Z" fill="#63BEFF"/>
<path d="M134.486 135.539L126.519 139.303C125.419 137.257 123.309 135.955 120.987 135.89L113.633 135.688C112.469 135.654 111.326 135.359 110.291 134.825L109.542 134.437C105.711 132.44 101.144 132.444 97.3162 134.45L97.3629 132.754C97.3783 132.193 96.9358 131.725 96.3742 131.71L88.3099 131.488C87.7483 131.472 87.281 131.915 87.2656 132.476L86.7785 150.173C86.7631 150.735 87.2055 151.202 87.7671 151.218L95.8315 151.44H95.8593C96.4105 151.44 96.8614 151.001 96.8763 150.451L96.8996 149.604L98.9946 148.482C99.8169 148.04 100.778 147.935 101.677 148.189L114.187 151.7C114.209 151.706 114.231 151.711 114.253 151.716C115.158 151.906 116.079 152 117.003 152C118.959 152.001 120.893 151.579 122.671 150.763C122.715 150.743 122.757 150.72 122.797 150.693L140.937 138.96C141.388 138.668 141.534 138.075 141.27 137.606C139.923 135.216 136.936 134.306 134.486 135.539V135.539ZM88.8397 149.213L89.2708 133.549L95.3016 133.715L94.8706 149.379L88.8397 149.213ZM121.755 148.947C119.546 149.944 117.078 150.219 114.704 149.734L102.227 146.231C100.823 145.835 99.3194 145.999 98.0348 146.69L96.9641 147.263L97.2507 136.849C100.643 134.592 104.994 134.36 108.607 136.243L109.356 136.631C110.664 137.306 112.106 137.678 113.577 137.721L120.932 137.923C122.998 137.983 124.752 139.454 125.171 141.478L114.217 141.175C113.655 141.16 113.188 141.603 113.172 142.164C113.156 142.725 113.599 143.193 114.16 143.209L126.25 143.541H126.278C126.829 143.541 127.279 143.102 127.294 142.552C127.307 142.11 127.274 141.668 127.196 141.233L135.367 137.372C135.375 137.368 135.383 137.365 135.391 137.361C136.55 136.774 137.951 136.97 138.905 137.853L121.755 148.947Z" fill="#63BEFF"/>
</svg>
