<svg width="255" height="62" viewBox="0 0 255 62" fill="none" xmlns="http://www.w3.org/2000/svg">
<path d="M131.684 43.3825H128.825C127.786 43.3825 126.944 42.5405 126.944 41.501C126.944 40.4615 127.786 39.6195 128.825 39.6195H133.856C134.543 39.6195 135.104 39.0582 135.104 38.3721C135.104 37.6861 134.543 37.1247 133.856 37.1247H131.497V35.3888C131.497 34.7027 130.935 34.1414 130.249 34.1414C129.563 34.1414 129.002 34.7027 129.002 35.3888V37.1247H128.825C126.414 37.1247 124.449 39.0894 124.449 41.501C124.449 43.9127 126.414 45.8773 128.825 45.8773H131.684C132.723 45.8773 133.565 46.7193 133.565 47.7588C133.565 48.7983 132.723 49.6403 131.684 49.6403H126.559C125.873 49.6403 125.312 50.2016 125.312 50.8877C125.312 51.5738 125.873 52.1351 126.559 52.1351H129.012V53.9127C129.012 54.5987 129.574 55.1601 130.26 55.1601C130.946 55.1601 131.507 54.5987 131.507 53.9127V52.1351H131.715C131.725 52.1351 131.736 52.1351 131.746 52.1351C134.137 52.1039 136.06 50.1497 136.06 47.7588C136.06 45.3472 134.096 43.3825 131.684 43.3825Z" fill="#63BEFF"/>
<path d="M149.002 40.5551C147.692 37.5405 145.884 34.6195 143.597 31.8857C140.832 28.5593 138.077 26.3347 136.674 25.3056L141.975 15.4719C142.235 14.9834 142.152 14.3805 141.746 13.9958C140.374 12.6549 138.919 12 137.297 12C135.811 12 134.449 12.5613 133.264 13.0603C132.329 13.4449 131.445 13.8191 130.728 13.8191C130.509 13.8191 130.322 13.7879 130.135 13.7152C127.661 12.8108 125.759 12.2495 123.919 12.2495C121.59 12.2495 119.605 13.185 117.661 15.1809C117.256 15.5967 117.193 16.2516 117.516 16.7401L123.233 25.3784C121.819 26.4283 119.116 28.632 116.403 31.8857C114.127 34.6195 112.308 37.5405 110.998 40.5551C109.356 44.3493 108.524 48.3098 108.524 52.3222C108.524 57.6549 112.869 62 118.202 62H141.798C147.131 62 151.476 57.6549 151.476 52.3222C151.476 48.3098 150.645 44.3493 149.002 40.5551ZM120.177 16.2204C121.383 15.1809 122.536 14.7235 123.919 14.7235C125.395 14.7235 127.058 15.2225 129.272 16.0437C129.73 16.21 130.218 16.2931 130.717 16.2931C131.933 16.2931 133.098 15.815 134.21 15.3472C135.281 14.9002 136.299 14.474 137.287 14.474C137.765 14.474 138.441 14.5572 139.293 15.1601L134.304 24.4324H125.613L120.177 16.2204ZM141.798 59.5052H118.202C114.241 59.5052 111.019 56.2827 111.019 52.3222C111.019 45.659 113.462 39.3389 118.264 33.5385C121.299 29.869 124.387 27.5925 125.322 26.9272H134.657C135.603 27.5821 138.68 29.869 141.715 33.5385C146.528 39.3389 148.961 45.6486 148.961 52.3222C148.981 56.2827 145.759 59.5052 141.798 59.5052Z" fill="#63BEFF"/>
<path d="M31.8096 33.8369C31.6949 33.8121 31.5772 33.8076 31.461 33.825C30.2966 33.6895 29.4181 32.7043 29.4161 31.5323C29.4161 30.9707 28.9608 30.5154 28.3992 30.5154C27.8375 30.5154 27.3822 30.9707 27.3822 31.5323C27.3852 33.4893 28.6941 35.2035 30.5811 35.7214V36.7384C30.5811 37.3 31.0365 37.7554 31.5981 37.7554C32.1597 37.7554 32.6151 37.3 32.6151 36.7384V35.783C34.793 35.3271 36.2733 33.2986 36.0444 31.0854C35.815 28.8722 33.9503 27.1903 31.7252 27.1898C30.45 27.1898 29.4161 26.156 29.4161 24.8808C29.4161 23.6056 30.45 22.5717 31.7252 22.5717C33.0004 22.5717 34.0343 23.6056 34.0343 24.8808C34.0343 25.4424 34.4896 25.8977 35.0512 25.8977C35.6129 25.8977 36.0682 25.4424 36.0682 24.8808C36.0652 22.8259 34.6257 21.0537 32.6151 20.6296V19.704C32.6151 19.1424 32.1597 18.687 31.5981 18.687C31.0365 18.687 30.5811 19.1424 30.5811 19.704V20.6917C28.4826 21.2647 27.1319 23.3022 27.4209 25.4583C27.7099 27.6144 29.5497 29.2238 31.7252 29.2233C32.9835 29.2233 34.0099 30.2308 34.0328 31.4886C34.0561 32.7465 33.0669 33.7912 31.8096 33.8369V33.8369Z" fill="#63BEFF"/>
<path d="M16.9778 28.2847C16.9778 36.4295 23.5802 43.0319 31.725 43.0319C39.8697 43.0319 46.4721 36.4295 46.4721 28.2847C46.4721 20.14 39.8697 13.5375 31.725 13.5375C23.5842 13.5465 16.9872 20.1439 16.9778 28.2847ZM31.725 15.5715C38.7465 15.5715 44.4382 21.2632 44.4382 28.2847C44.4382 35.3063 38.7465 40.998 31.725 40.998C24.7034 40.998 19.0117 35.3063 19.0117 28.2847C19.0197 21.2667 24.7069 15.5794 31.725 15.5715Z" fill="#63BEFF"/>
<path d="M51.4856 45.5391L43.5191 49.3031C42.4192 47.2572 40.3093 45.9552 37.9873 45.8897L30.6331 45.6876C29.4686 45.6543 28.326 45.3593 27.2906 44.8245L26.5423 44.4367C22.7108 42.4395 18.1438 42.4445 14.3162 44.4496L14.3629 42.7543C14.3783 42.1927 13.9358 41.7249 13.3742 41.7095L5.30989 41.4876C4.74827 41.4722 4.281 41.9146 4.2656 42.4762L3.77847 60.1731C3.76307 60.7347 4.20552 61.2025 4.76714 61.2179L12.8315 61.4398H12.8593C13.4105 61.4398 13.8614 61.0014 13.8763 60.4507L13.8996 59.604L15.9946 58.4823C16.8169 58.0398 17.7783 57.9345 18.6766 58.1888L31.1872 61.7C31.2091 61.7065 31.2309 61.7115 31.2533 61.7164C32.1575 61.9056 33.0792 62.0005 34.0028 62C35.9593 62.001 37.8929 61.5794 39.6712 60.763C39.7149 60.7431 39.7571 60.7198 39.7973 60.6935L57.9366 48.9605C58.3884 48.668 58.5344 48.0746 58.2698 47.6058C56.9231 45.2163 53.9362 44.3061 51.4856 45.5391V45.5391ZM5.83974 59.2127L6.27076 43.5488L12.3016 43.7147L11.8706 59.3791L5.83974 59.2127ZM38.755 58.9465C36.5457 59.9437 34.0783 60.2188 31.7037 59.7336L19.2268 56.2313C17.8225 55.8345 16.3194 55.9989 15.0348 56.6896L13.9641 57.2632L14.2507 46.8486C17.6432 44.5921 21.9942 44.3602 25.6073 46.2427L26.3556 46.6306C27.6636 47.3059 29.1061 47.6783 30.5774 47.721L37.9322 47.9231C39.9979 47.9827 41.7523 49.4536 42.1714 51.4776L31.2165 51.1752C30.6549 51.1598 30.1876 51.6027 30.1717 52.1639C30.1564 52.7255 30.5993 53.1933 31.1604 53.2087L43.25 53.5414H43.2783C43.829 53.5409 44.2793 53.1024 44.2942 52.5522C44.3067 52.1102 44.2739 51.6678 44.1959 51.2328L52.367 47.372C52.375 47.3685 52.3829 47.3645 52.3908 47.3605C53.5498 46.7741 54.9512 46.9702 55.9046 47.8526L38.755 58.9465Z" fill="#63BEFF"/>
<g clip-path="url(#clip0)">
<path d="M246.78 44.0575V26.5015C246.78 25.9563 246.307 25.5796 245.728 25.5796H241.657C241.078 25.5796 240.573 25.9563 240.573 26.5015V42.3425C239.9 42.3623 239.227 42.4416 238.574 42.5903V31.6761C238.574 31.1309 238.08 30.7344 237.501 30.7344H233.43C232.852 30.7344 232.368 31.121 232.368 31.6761V46.4762C231.116 48.1317 230.442 50.1242 230.453 52.1663C230.453 57.5986 235.124 62 240.878 62C246.643 62 251.314 57.5986 251.314 52.1762C251.314 48.9248 249.62 45.8914 246.78 44.0575ZM242.677 27.5622H244.676V43.0067C244.034 42.7688 243.361 42.5903 242.677 42.4912V27.5622ZM234.472 32.717H236.47V43.2743C235.766 43.5816 235.092 43.9583 234.472 44.4044V32.717ZM248.053 56.1612C246.548 58.5503 243.824 60.0075 240.889 60.0075C236.292 60.0075 232.568 56.4884 232.568 52.1663C232.568 48.9941 234.598 46.1293 237.712 44.9199C237.838 44.9001 237.954 44.8505 238.059 44.791C238.964 44.4738 239.931 44.3152 240.899 44.3152C241.12 44.3152 241.331 44.3251 241.552 44.3449H241.562C242.824 44.4342 244.055 44.8009 245.139 45.4155C249.094 47.6262 250.399 52.434 248.053 56.1612Z" fill="#63BEFF"/>
<path d="M240.899 51.3634C240.163 51.3634 239.574 50.8082 239.574 50.1143C239.574 49.4204 240.152 48.8653 240.889 48.8554C241.625 48.8554 242.214 49.4204 242.214 50.1044C242.214 50.6496 242.688 51.0957 243.266 51.0957C243.855 51.0957 244.329 50.6595 244.339 50.1044C244.339 48.7761 243.477 47.5766 242.162 47.0908V46.2681C242.162 45.7228 241.688 45.2768 241.11 45.2768C240.531 45.2768 240.058 45.7228 240.058 46.2681V46.9818C238.227 47.4279 237.123 49.1924 237.596 50.9173C237.975 52.3447 239.332 53.336 240.889 53.336C241.615 53.336 242.204 53.9011 242.204 54.5851C242.204 55.2691 241.604 55.8242 240.878 55.8242C240.152 55.8242 239.563 55.2592 239.563 54.5752C239.563 54.03 239.09 53.5839 238.511 53.5839C237.933 53.5839 237.47 54.02 237.48 54.5653V54.5752C237.491 56.0423 238.543 57.331 240.047 57.6978V58.1438C240.047 58.6891 240.521 59.1352 241.099 59.1352C241.678 59.1352 242.151 58.6891 242.151 58.1438V57.5986C243.919 56.9444 244.781 55.0708 244.097 53.4153C243.582 52.1762 242.309 51.3634 240.899 51.3634Z" fill="#63BEFF"/>
<path d="M221.006 38.6648H216.903C216.325 38.6648 215.851 39.1108 215.851 39.6561V55.2195C215.851 55.7647 216.325 56.2108 216.903 56.2108H221.006C221.585 56.2108 222.058 55.7647 222.058 55.2195V39.6561C222.058 39.1108 221.585 38.6648 221.006 38.6648ZM219.954 54.3273H217.955V40.6474H219.954V54.3273Z" fill="#63BEFF"/>
<path d="M229.317 36.3848H225.214C224.636 36.3848 224.162 36.8309 224.162 37.3761V55.3186C224.162 55.8639 224.636 56.3099 225.214 56.3099H229.317C229.895 56.3099 230.369 55.8639 230.369 55.3186V37.3761C230.369 36.8309 229.895 36.3848 229.317 36.3848ZM228.265 54.3273H226.266V38.3674H228.265V54.3273Z" fill="#63BEFF"/>
<path d="M212.695 47.19H208.593C208.014 47.19 207.541 47.6361 207.541 48.1813V55.2195C207.541 55.7647 208.014 56.2108 208.593 56.2108H212.695C213.274 56.2108 213.747 55.7647 213.747 55.2195V48.1813C213.747 47.6361 213.274 47.19 212.695 47.19ZM211.643 54.3273H209.645V49.1726H211.643V54.3273Z" fill="#63BEFF"/>
<path d="M246.622 13L239.427 13.0099C238.848 13 238.375 13.4461 238.364 13.9913C238.354 14.5365 238.827 14.9826 239.406 14.9925C239.416 14.9925 239.416 14.9925 239.427 14.9925L244.087 14.9826L232.673 25.6986L228.686 21.9713C228.486 21.7928 228.212 21.7036 227.939 21.7135C227.665 21.7036 227.392 21.7928 227.192 21.9713L206.994 41.0042C206.583 41.3909 206.583 42.0154 206.994 42.3921C207.194 42.5804 207.457 42.6795 207.741 42.6795C208.025 42.6795 208.288 42.5804 208.488 42.3921L227.949 24.053L231.936 27.8398C232.126 28.038 232.399 28.1471 232.683 28.157C232.967 28.1471 233.23 28.0281 233.43 27.8398L245.57 16.3902L245.56 20.8015C245.56 21.3567 246.023 21.8028 246.612 21.8226C247.201 21.8127 247.664 21.3567 247.664 20.8015L247.674 14.0012C247.674 13.456 247.201 13 246.622 13Z" fill="#63BEFF"/>
</g>
<defs>
<clipPath id="clip0">
<rect width="52" height="49" fill="white" transform="translate(203 13)"/>
</clipPath>
</defs>
</svg>
