<svg width="53" height="53" viewBox="0 0 53 53"  xmlns="http://www.w3.org/2000/svg">
<path d="M26.4128 29.5893C34.2454 29.5893 40.5984 23.2363 40.5984 15.4038C40.5984 7.57134 34.2453 1.26172 26.4128 1.26172C18.5804 1.26172 12.2273 7.6148 12.2273 15.4038C12.2273 23.1928 18.5803 29.5893 26.4128 29.5893ZM26.4128 4.96042C32.1566 4.96042 36.8562 9.6599 36.8562 15.4038C36.8562 21.1477 32.1566 25.8471 26.4128 25.8471C20.669 25.8471 15.9695 21.1476 15.9695 15.4037C15.9695 9.65981 20.6689 4.96042 26.4128 4.96042Z" />
<path d="M1.87108 51.7381H51.1289C52.1732 51.7381 53 50.9114 53 49.867C53 40.0764 45.037 32.0698 35.2028 32.0698H17.7972C8.00658 32.0698 0 40.0328 0 49.867C0 50.9114 0.826752 51.7381 1.87108 51.7381ZM17.7972 35.812H35.2028C42.339 35.812 48.2134 41.1207 49.1273 47.9959H3.87273C4.78649 41.1643 10.661 35.812 17.7972 35.812Z" />
</svg>
