<svg width="50" height="50" viewBox="0 0 50 50" fill="none" xmlns="http://www.w3.org/2000/svg">
<g clip-path="url(#clip0)">
<path d="M21.0114 48.5088L18.5658 38.8256C18.4616 38.4136 18.4933 37.9791 18.6562 37.5866L21.6976 30.2448C22.115 29.2378 23.2697 28.7594 24.2768 29.1767C25.2842 29.594 25.7622 30.7488 25.3449 31.7558L22.554 38.4934L24.839 47.5422C25.1061 48.5993 24.4656 49.6723 23.4085 49.9394C22.3469 50.2075 21.2769 49.5613 21.0114 48.5088Z" fill="#110261"/>
<path d="M36.8321 41.4734L28.1658 40.4503C27.2488 40.342 26.5297 39.6126 26.434 38.694L25.7309 31.9389C25.618 30.8544 26.4054 29.884 27.4899 29.7711C28.5748 29.6585 29.5448 30.4459 29.6578 31.5304L30.1972 36.7146L37.2948 37.5526C38.3774 37.6804 39.1514 38.6616 39.0236 39.7442C38.8966 40.8222 37.9196 41.6012 36.8321 41.4734Z" fill="#1B0398"/>
<path d="M39.0656 5.73616C38.3457 5.18151 37.3127 5.31578 36.7585 6.03562L27.6104 17.9115C25.1297 17.9115 24.4435 17.9115 22.4087 17.9115L16.7374 16.0465L13.1542 10.252C12.6763 9.47952 11.6627 9.24034 10.8898 9.71832C10.1174 10.1959 9.87818 11.2099 10.3562 11.9823L14.2548 18.2873C14.4589 18.6165 14.7721 18.8637 15.1402 18.9846L20.9507 20.8954V31.9572C20.9507 32.9067 21.7201 33.6761 22.6692 33.6761H27.9454C28.8945 33.6761 29.6639 32.9067 29.6639 31.9572V20.6291C29.7604 20.517 36.7729 11.4067 39.365 8.04291C39.9193 7.32308 39.785 6.29044 39.0656 5.73616Z" fill="#FFB69E"/>
<path d="M30.5928 14.0495C30.5928 14.0495 30.5893 14.0476 30.5874 14.0465L27.6104 17.9115H27.0706C27.0607 18.8015 26.3024 19.5553 25.4109 19.5553C24.5159 19.5553 23.7606 18.8046 23.7511 17.9115H22.4083L18.4422 16.6073L17.5846 19.7887L20.9503 20.8954V31.9576C20.9503 32.9067 21.7198 33.6761 22.6692 33.6761H27.945C28.8941 33.6761 29.6635 32.9067 29.6635 31.9576V20.6291C29.7085 20.5769 33.144 16.119 33.144 16.119L30.5928 14.0495Z" fill="#FFB200"/>
<path d="M28.7342 13.4159C28.7342 15.2985 27.208 16.8251 25.325 16.8251C23.4421 16.8251 21.9158 15.2985 21.9158 13.4159C21.9158 11.533 23.4421 10.0063 25.325 10.0063C27.208 10.0063 28.7342 11.533 28.7342 13.4159Z" fill="#FFB69E"/>
<path d="M18.9637 6.88095C18.8004 6.88438 18.6505 6.79169 18.5803 6.64444C18.134 5.70831 17.6876 4.77219 17.2413 3.83606C17.2055 3.76053 17.2089 3.67203 17.2512 3.59955C17.2936 3.52707 17.3687 3.48053 17.4523 3.47481C19.6823 3.31993 20.6547 0.571824 22.9374 0.524522C23.1003 0.521088 23.2506 0.613785 23.3204 0.761033C23.7667 1.69716 24.2131 2.63329 24.6594 3.56941C24.6956 3.64494 24.6918 3.73344 24.6495 3.80592C24.6075 3.8784 24.532 3.92494 24.4484 3.93066C22.2184 4.08554 21.246 6.83365 18.9637 6.88095Z" fill="#0FDE8C"/>
<path d="M21.2086 4.68483C20.8859 4.82826 20.5464 4.79011 20.4644 4.62036C20.4205 4.53033 20.4357 4.35944 20.5365 4.31061C20.6478 4.25682 20.8134 4.36935 21.0263 4.3087L20.818 3.87993C20.5296 3.90549 20.1882 3.9299 20.0238 3.59116C19.8609 3.2547 20.0314 2.97279 20.2927 2.79694L20.2568 2.72255C20.2389 2.68555 20.2645 2.63061 20.3228 2.60239C20.3732 2.57797 20.4399 2.58789 20.4583 2.62489L20.4903 2.69127C20.6566 2.61688 20.9874 2.50893 21.0759 2.69165C21.1106 2.76298 21.1335 2.93198 21.0171 2.98843C20.9298 3.03078 20.8382 2.9705 20.6597 3.04069L20.8474 3.4275C21.1319 3.40042 21.473 3.38898 21.6465 3.74641C21.8056 4.07486 21.69 4.37584 21.4047 4.57649L21.4421 4.65317C21.46 4.69017 21.4264 4.7493 21.3761 4.77371C21.3177 4.80194 21.2586 4.78821 21.2406 4.75082L21.2086 4.68483ZM20.6417 3.44849L20.4888 3.13339C20.3812 3.21503 20.3602 3.30048 20.3911 3.3638C20.4285 3.44086 20.5204 3.45497 20.6417 3.44849ZM21.0274 3.86658L21.1998 4.22134C21.2792 4.15649 21.3265 4.07143 21.2803 3.97606C21.238 3.8887 21.1445 3.86543 21.0274 3.86658Z" fill="#277867"/>
<path d="M34.5547 28.3077C34.393 28.2871 34.2583 28.1735 34.2106 28.0174C33.9074 27.0256 33.6037 26.0342 33.3004 25.0424C33.276 24.9622 33.2928 24.8749 33.3451 24.8097C33.3977 24.7444 33.479 24.7093 33.5625 24.7158C35.7911 24.8917 37.1582 22.3171 39.4226 22.6071C39.5844 22.6277 39.719 22.7413 39.7667 22.8974C40.07 23.8892 40.3737 24.8806 40.6769 25.8724C40.7013 25.9525 40.6845 26.0399 40.6323 26.1051C40.5796 26.1704 40.4984 26.2055 40.4148 26.199C38.1863 26.0231 36.8191 28.5977 34.5547 28.3077Z" fill="#0FDE8C"/>
<path d="M37.0953 26.4584C36.755 26.5526 36.425 26.4649 36.369 26.2848C36.3388 26.1894 36.3793 26.0227 36.4857 25.9892C36.6039 25.9525 36.7512 26.088 36.9705 26.0594L36.8279 25.6046C36.5387 25.5871 36.1977 25.5612 36.0851 25.2018C35.9734 24.8451 36.1836 24.5911 36.4681 24.456L36.4433 24.3771C36.4311 24.3378 36.4647 24.2874 36.5265 24.268C36.5799 24.2512 36.6448 24.271 36.657 24.3103L36.6791 24.3805C36.8549 24.3317 37.1975 24.2737 37.2582 24.4675C37.2822 24.5434 37.2799 24.7135 37.1563 24.7524C37.0636 24.7814 36.982 24.7082 36.7954 24.7513L36.9236 25.1614C37.209 25.1766 37.5481 25.2155 37.6671 25.5947C37.7762 25.943 37.6171 26.2238 37.3055 26.3802L37.331 26.4614C37.3432 26.5007 37.3013 26.5541 37.2479 26.5709C37.1861 26.5904 37.13 26.5679 37.1174 26.5286L37.0953 26.4584ZM36.7169 25.1518L36.6123 24.8177C36.4941 24.8825 36.4609 24.9642 36.4819 25.0313C36.5074 25.1129 36.5963 25.1404 36.7169 25.1518ZM37.0369 25.6222L37.1552 25.9987C37.2433 25.9461 37.3024 25.869 37.2708 25.7679C37.2418 25.6752 37.1533 25.6382 37.0369 25.6222Z" fill="#277867"/>
<path d="M42.1017 18.9644C41.9472 19.0163 41.7763 18.9732 41.6653 18.8538C40.9592 18.0943 40.2527 17.3347 39.5466 16.5752C39.4894 16.5142 39.4665 16.4284 39.4852 16.3467C39.5039 16.2651 39.5615 16.198 39.6397 16.1674C41.721 15.3515 41.8255 12.4382 43.9888 11.7096C44.1433 11.6573 44.3142 11.7008 44.4252 11.8202C45.1313 12.5797 45.8378 13.3392 46.5439 14.0984C46.6011 14.1598 46.624 14.2456 46.6053 14.3272C46.5866 14.4089 46.529 14.476 46.4508 14.5065C44.3699 15.3225 44.265 18.2354 42.1017 18.9644Z" fill="#0FDE8C"/>
<path d="M43.5868 16.1854C43.3216 16.4192 42.9867 16.4841 42.8574 16.3471C42.7887 16.2743 42.7521 16.1068 42.8337 16.0301C42.9234 15.9451 43.1153 16.003 43.2999 15.8814L42.973 15.5342C42.7056 15.6452 42.3874 15.7711 42.1288 15.4968C41.8724 15.2248 41.9506 14.9044 42.1475 14.6584L42.091 14.5985C42.0624 14.5683 42.0708 14.5084 42.1177 14.4638C42.1585 14.4257 42.2253 14.415 42.2539 14.4451L42.3042 14.4985C42.4408 14.3776 42.7239 14.1758 42.8631 14.3238C42.9177 14.3814 42.9901 14.5355 42.8959 14.6244C42.8253 14.6912 42.7201 14.661 42.5705 14.7816L42.8654 15.094C43.1286 14.9834 43.4506 14.8701 43.7233 15.1592C43.9736 15.4247 43.9537 15.7467 43.7412 16.0236L43.8 16.0858C43.8282 16.1156 43.8137 16.182 43.7729 16.2205C43.726 16.2647 43.6653 16.2693 43.6371 16.2392L43.5868 16.1854ZM42.6754 15.1756L42.4355 14.9208C42.3569 15.0311 42.3626 15.1188 42.4111 15.1703C42.4698 15.2321 42.5617 15.2184 42.6754 15.1756ZM43.169 15.4591L43.4395 15.7459C43.496 15.6601 43.5154 15.5651 43.4429 15.4877C43.3762 15.4171 43.2804 15.4228 43.169 15.4591Z" fill="#277867"/>
<path d="M5.94332 23.1842C5.78883 23.2361 5.61793 23.1926 5.50692 23.0736C4.80082 22.3141 4.09434 21.5546 3.38824 20.7951C3.33102 20.7336 3.30813 20.6482 3.32682 20.5666C3.34551 20.4849 3.40312 20.4178 3.48132 20.3873C5.56262 19.5713 5.66714 16.658 7.83045 15.9294C7.98495 15.8771 8.15585 15.9206 8.26686 16.04C8.97296 16.7992 9.67944 17.5587 10.3855 18.3182C10.4428 18.3796 10.4656 18.4654 10.447 18.5471C10.4283 18.6287 10.3707 18.6954 10.2925 18.7263C8.21116 19.5419 8.10664 22.4552 5.94332 23.1842Z" fill="#0FDE8C"/>
<path d="M7.42839 20.4052C7.16327 20.6387 6.82796 20.7039 6.69902 20.5669C6.63036 20.4941 6.59374 20.3262 6.67499 20.2496C6.76502 20.1649 6.9569 20.2225 7.14153 20.1012L6.81461 19.754C6.54682 19.8647 6.22905 19.9905 5.97042 19.7166C5.71407 19.4447 5.79227 19.1242 5.98911 18.8782L5.93227 18.8183C5.90404 18.7881 5.91205 18.7283 5.95935 18.6836C5.99979 18.6455 6.06693 18.6348 6.09516 18.6649L6.14551 18.7183C6.28246 18.5974 6.56551 18.3956 6.70475 18.5432C6.7593 18.6012 6.83178 18.7553 6.73755 18.8442C6.6666 18.911 6.56131 18.8808 6.41216 19.001L6.70703 19.3138C6.97025 19.2028 7.29221 19.0899 7.56496 19.3787C7.8152 19.6445 7.79537 19.9665 7.58289 20.2435L7.64164 20.3056C7.66986 20.3354 7.65537 20.4018 7.61455 20.4399C7.56763 20.4845 7.50698 20.4891 7.47875 20.459L7.42839 20.4052ZM6.51706 19.3954L6.27674 19.1406C6.19854 19.2509 6.20426 19.3386 6.2527 19.3897C6.31145 19.4519 6.40338 19.4378 6.51706 19.3954ZM7.0103 19.6785L7.28077 19.9657C7.3376 19.8799 7.35706 19.7845 7.28458 19.7075C7.21782 19.6369 7.12207 19.6423 7.0103 19.6785Z" fill="#277867"/>
<path d="M10.2039 6.11612C10.1845 6.27786 10.0716 6.41366 9.91594 6.46249C8.92679 6.77262 7.93688 7.08314 6.94734 7.39366C6.86762 7.41883 6.78026 7.40281 6.71465 7.35093C6.64903 7.29867 6.61318 7.2178 6.61928 7.13426C6.77873 4.90457 4.19466 3.55569 4.46817 1.28938C4.48763 1.12764 4.60054 0.991832 4.75618 0.943004C5.74533 0.632488 6.73486 0.322353 7.7244 0.0114553C7.80451 -0.0133403 7.89148 0.00268144 7.95747 0.0545613C8.02309 0.106441 8.05856 0.187694 8.05284 0.271236C7.89339 2.50093 10.4775 3.8498 10.2039 6.11612Z" fill="#0FDE8C"/>
<path d="M8.33323 3.58429C8.43013 3.92418 8.3443 4.25454 8.16501 4.31214C8.06964 4.34266 7.90256 4.30375 7.86861 4.19693C7.83046 4.07944 7.9655 3.93105 7.93536 3.71209L7.48141 3.85781C7.46615 4.14696 7.44289 4.48838 7.08392 4.60358C6.72801 4.71802 6.47281 4.50936 6.33548 4.22593L6.2569 4.2511C6.2176 4.26369 6.16687 4.2305 6.14703 4.1687C6.12987 4.1153 6.14932 4.05045 6.18861 4.03786L6.25842 4.01535C6.20845 3.83988 6.1478 3.4977 6.3412 3.43552C6.41673 3.41149 6.58725 3.41225 6.62692 3.53546C6.65668 3.62816 6.58382 3.71018 6.62845 3.89672L7.03738 3.76549C7.05073 3.47977 7.08736 3.14026 7.46539 3.01895C7.81291 2.90757 8.0952 3.06435 8.25351 3.37487L8.33476 3.34854C8.37405 3.33596 8.42746 3.37754 8.44462 3.43094C8.46446 3.49274 8.44272 3.5492 8.40343 3.56179L8.33323 3.58429ZM7.02937 3.97187L6.69597 4.07906C6.76196 4.19732 6.8436 4.22974 6.91073 4.208C6.99199 4.18206 7.01869 4.09279 7.02937 3.97187ZM7.49744 3.64838L7.87318 3.52784C7.82016 3.43972 7.74234 3.38135 7.64163 3.41378C7.54932 3.44353 7.51269 3.53241 7.49744 3.64838Z" fill="#277867"/>
<path d="M33.5518 6.11612C33.5324 6.27786 33.4198 6.41366 33.2642 6.46249C32.2746 6.77262 31.2851 7.08314 30.2956 7.39366C30.2159 7.41883 30.1285 7.40281 30.0629 7.35093C29.9969 7.29867 29.9614 7.2178 29.9675 7.13426C30.127 4.90457 27.5425 3.55569 27.8164 1.28938C27.8359 1.12764 27.9484 0.991832 28.104 0.943004C29.0936 0.632488 30.0831 0.322353 31.0726 0.0114553C31.1524 -0.0133403 31.2397 0.00268144 31.3053 0.0545613C31.3713 0.106441 31.4068 0.187694 31.4007 0.271236C31.2412 2.50093 33.8253 3.8498 33.5518 6.11612Z" fill="#0FDE8C"/>
<path d="M31.6811 3.58429C31.778 3.92418 31.6925 4.25454 31.5129 4.31214C31.4179 4.34266 31.2508 4.30375 31.2165 4.19693C31.1787 4.07944 31.3134 3.93105 31.2832 3.71209L30.8293 3.85781C30.814 4.14696 30.7907 4.48838 30.4322 4.60358C30.0762 4.71802 29.8207 4.50936 29.6833 4.22593L29.6048 4.2511C29.5655 4.26369 29.5147 4.2305 29.4949 4.1687C29.4777 4.1153 29.4972 4.05045 29.5365 4.03786L29.6063 4.01535C29.5563 3.83988 29.4957 3.4977 29.6891 3.43552C29.7646 3.41149 29.9351 3.41225 29.9744 3.53546C30.0041 3.62816 29.9317 3.71018 29.9763 3.89672L30.3852 3.76549C30.3986 3.47977 30.4352 3.14026 30.8132 3.01895C31.1608 2.90757 31.4431 3.06435 31.6014 3.37487L31.6826 3.34854C31.7219 3.33596 31.7753 3.37754 31.7925 3.43094C31.8123 3.49274 31.7906 3.5492 31.7513 3.56179L31.6811 3.58429ZM30.3776 3.97187L30.0442 4.07906C30.1098 4.19732 30.1915 4.22974 30.2586 4.208C30.3398 4.18206 30.3669 4.09279 30.3776 3.97187ZM30.8457 3.64838L31.221 3.52784C31.168 3.43972 31.0906 3.38135 30.9895 3.41378C30.8972 3.44353 30.8609 3.53241 30.8457 3.64838Z" fill="#277867"/>
</g>
<defs>
<clipPath id="clip0">
<rect width="50" height="50" fill="white"/>
</clipPath>
</defs>
</svg>
