<svg width="48" height="49" viewBox="0 0 48 49" xmlns="http://www.w3.org/2000/svg">
<g opacity="0.3">
<path d="M35.9388 22.3669C36.9654 22.3669 37.7976 21.5347 37.7976 20.5082C37.7976 19.4816 36.9654 18.6494 35.9388 18.6494C34.9123 18.6494 34.0801 19.4816 34.0801 20.5082C34.0801 21.5347 34.9123 22.3669 35.9388 22.3669Z" />
<path d="M40.2146 4.70966H37.7983V2.85093C37.7983 1.82434 36.9661 0.992188 35.9396 0.992188C34.913 0.992188 34.0808 1.82434 34.0808 2.85093V4.70966H25.6236V2.85093C25.6236 1.82434 24.7914 0.992188 23.7648 0.992188C22.7382 0.992188 21.9061 1.82434 21.9061 2.85093V4.70966H13.5418V2.85093C13.5418 1.82434 12.7096 0.992188 11.683 0.992188C10.6564 0.992188 9.82429 1.82434 9.82429 2.85093V4.70966H7.50087C3.40124 4.70966 0.065918 8.04498 0.065918 12.1446V41.1409C0.065918 45.2406 3.40124 48.5759 7.50087 48.5759H21.7202C22.7468 48.5759 23.5789 47.7437 23.5789 46.7171C23.5789 45.6906 22.7468 44.8584 21.7202 44.8584H7.50087C5.45105 44.8584 3.78339 43.1907 3.78339 41.1409V12.1446C3.78339 10.0948 5.45105 8.42714 7.50087 8.42714H9.82429V10.2859C9.82429 11.3125 10.6564 12.1446 11.683 12.1446C12.7096 12.1446 13.5418 11.3125 13.5418 10.2859V8.42714H21.9061V10.2859C21.9061 11.3125 22.7382 12.1446 23.7648 12.1446C24.7914 12.1446 25.6236 11.3125 25.6236 10.2859V8.42714H34.0808V10.2859C34.0808 11.3125 34.913 12.1446 35.9396 12.1446C36.9661 12.1446 37.7983 11.3125 37.7983 10.2859V8.42714H40.2146C42.2645 8.42714 43.9321 10.0948 43.9321 12.1446V22.7394C43.9321 23.766 44.7643 24.5982 45.7909 24.5982C46.8174 24.5982 47.6496 23.766 47.6496 22.7394V12.1446C47.6496 8.04498 44.3143 4.70966 40.2146 4.70966Z" />
<path d="M36.4036 26.0845C30.2028 26.0845 25.1582 31.1291 25.1582 37.3298C25.1582 43.5306 30.2028 48.5752 36.4036 48.5752C42.6043 48.5752 47.6489 43.5306 47.6489 37.3298C47.6489 31.1291 42.6043 26.0845 36.4036 26.0845ZM36.4036 44.8577C32.2527 44.8577 28.8757 41.4808 28.8757 37.3298C28.8757 33.1789 32.2527 29.8019 36.4036 29.8019C40.5544 29.8019 43.9315 33.1789 43.9315 37.3298C43.9315 41.4808 40.5544 44.8577 36.4036 44.8577Z" />
<path d="M39.0993 35.472H38.2629V33.5204C38.2629 32.4938 37.4307 31.6616 36.4041 31.6616C35.3776 31.6616 34.5454 32.4938 34.5454 33.5204V37.3308C34.5454 38.3574 35.3776 39.1895 36.4041 39.1895H39.0993C40.1259 39.1895 40.9581 38.3574 40.9581 37.3308C40.9581 36.3042 40.1259 35.472 39.0993 35.472Z" />
<path d="M27.8539 22.3669C28.8804 22.3669 29.7126 21.5347 29.7126 20.5082C29.7126 19.4816 28.8804 18.6494 27.8539 18.6494C26.8273 18.6494 25.9951 19.4816 25.9951 20.5082C25.9951 21.5347 26.8273 22.3669 27.8539 22.3669Z" />
<path d="M19.7684 30.4523C20.795 30.4523 21.6271 29.6202 21.6271 28.5936C21.6271 27.567 20.795 26.7349 19.7684 26.7349C18.7419 26.7349 17.9097 27.567 17.9097 28.5936C17.9097 29.6202 18.7419 30.4523 19.7684 30.4523Z" />
<path d="M11.683 22.3669C12.7095 22.3669 13.5417 21.5347 13.5417 20.5082C13.5417 19.4816 12.7095 18.6494 11.683 18.6494C10.6564 18.6494 9.82422 19.4816 9.82422 20.5082C9.82422 21.5347 10.6564 22.3669 11.683 22.3669Z" />
<path d="M11.683 30.4523C12.7095 30.4523 13.5417 29.6202 13.5417 28.5936C13.5417 27.567 12.7095 26.7349 11.683 26.7349C10.6564 26.7349 9.82422 27.567 9.82422 28.5936C9.82422 29.6202 10.6564 30.4523 11.683 30.4523Z" />
<path d="M11.683 38.5378C12.7095 38.5378 13.5417 37.7056 13.5417 36.6791C13.5417 35.6525 12.7095 34.8203 11.683 34.8203C10.6564 34.8203 9.82422 35.6525 9.82422 36.6791C9.82422 37.7056 10.6564 38.5378 11.683 38.5378Z" />
<path d="M19.7684 38.5378C20.795 38.5378 21.6271 37.7056 21.6271 36.6791C21.6271 35.6525 20.795 34.8203 19.7684 34.8203C18.7419 34.8203 17.9097 35.6525 17.9097 36.6791C17.9097 37.7056 18.7419 38.5378 19.7684 38.5378Z" />
<path d="M19.7684 22.3669C20.795 22.3669 21.6271 21.5347 21.6271 20.5082C21.6271 19.4816 20.795 18.6494 19.7684 18.6494C18.7419 18.6494 17.9097 19.4816 17.9097 20.5082C17.9097 21.5347 18.7419 22.3669 19.7684 22.3669Z" />
</g>
</svg>
