<svg width="37" height="29" viewBox="0 0 37 29" fill="none" xmlns="http://www.w3.org/2000/svg">
<path d="M0.426929 15.6541C0.14231 15.3694 0 14.9425 0 14.6579C0 14.3733 0.14231 13.9463 0.426929 13.6617L2.41926 11.6694C2.9885 11.1001 3.84236 11.1001 4.4116 11.6694L4.55391 11.8117L12.3809 20.208C12.6656 20.4926 13.0925 20.4926 13.3771 20.208L32.4466 0.426929H32.5889C33.1581 -0.14231 34.012 -0.14231 34.5812 0.426929L36.5736 2.41926C37.1428 2.9885 37.1428 3.84236 36.5736 4.4116L13.804 28.035C13.5194 28.3196 13.2348 28.4619 12.8079 28.4619C12.3809 28.4619 12.0963 28.3196 11.8117 28.035L0.711548 16.081L0.426929 15.6541Z" fill="white"/>
</svg>
