<svg width="198" height="198" viewBox="0 0 198 198" fill="none" xmlns="http://www.w3.org/2000/svg">
<g clip-path="url(#clip0)">
<path d="M35.838 192.199H9.38548C7.40959 192.199 5.80078 190.59 5.80078 188.615V147.21C5.80078 145.607 4.50165 144.31 2.90039 144.31C1.29913 144.31 0 145.607 0 147.21V188.613C0 193.79 4.2101 198 9.38548 198H35.838C37.4392 198 38.7383 196.702 38.7383 195.1C38.7383 193.497 37.4392 192.199 35.838 192.199V192.199Z" fill="#909090"/>
<path d="M195.1 46.4727C196.701 46.4727 198 45.1736 198 43.5723V10.6348C198 4.77054 193.229 0 187.365 0H106.734C103.875 0 101.278 1.13599 99.3641 2.97894C97.651 1.14807 95.2144 0 92.5149 0H9.38548C4.2101 0 0 4.2101 0 9.38548V92.5149C0 95.0286 0.992477 97.3141 2.60733 99C0.992477 100.686 0 102.971 0 105.485V134.58C0 136.181 1.29913 137.48 2.90039 137.48C4.50165 137.48 5.80078 136.181 5.80078 134.58V105.485C5.80078 103.509 7.40959 101.9 9.38548 101.9H85.9815C87.5827 101.9 88.8819 100.603 88.8819 99C88.8819 97.3972 87.5827 96.0996 85.9815 96.0996H9.38548C7.40959 96.0996 5.80078 94.4908 5.80078 92.5149V86.477L10.0653 85.4482C10.7934 85.273 11.4263 84.8228 11.8297 84.1914L11.9324 84.0313L14.2587 85.5661C14.7512 85.8893 15.3056 86.0449 15.8524 86.0449C16.7951 86.0449 17.7196 85.5857 18.277 84.7413C19.1592 83.4028 18.7906 81.6052 17.4522 80.723L15.0579 79.1429L15.4642 78.5069C16.3268 77.1579 15.9325 75.3648 14.582 74.5008C13.233 73.6382 11.4384 74.0325 10.5759 75.383L7.57123 80.0825L5.80078 80.51V9.38548C5.80078 7.40959 7.40959 5.80078 9.38548 5.80078H92.5149C94.4908 5.80078 96.0996 7.40959 96.0996 9.38548V188.615C96.0996 190.59 94.4908 192.199 92.5149 192.199H48.4682C46.8655 192.199 45.5679 193.497 45.5679 195.1C45.5679 196.702 46.8655 198 48.4682 198H92.5149C95.2144 198 97.651 196.852 99.3641 195.021C101.278 196.864 103.875 198 106.734 198H187.365C193.229 198 198 193.229 198 187.365V56.2011C198 54.5999 196.701 53.3007 195.1 53.3007C193.498 53.3007 192.199 54.5999 192.199 56.2011V105.204C189.553 105.869 186.941 106.63 184.367 107.485V102.739C184.367 101.136 183.068 99.8384 181.466 99.8384C179.865 99.8384 178.566 101.136 178.566 102.739V109.595C175.262 110.904 172.029 112.372 168.877 113.993L166.52 109.194C165.813 107.756 164.074 107.163 162.638 107.869C161.2 108.576 160.608 110.313 161.313 111.751L163.786 116.785C160.348 118.791 157.017 120.986 153.807 123.363L150.218 118.117C149.313 116.794 147.509 116.455 146.186 117.36C144.864 118.263 144.526 120.069 145.429 121.39L149.228 126.945C146.517 129.184 143.906 131.563 141.4 134.072L135.664 128.335C134.531 127.203 132.694 127.203 131.563 128.335C130.43 129.468 130.43 131.305 131.563 132.438L137.406 138.279C134.203 141.837 131.253 145.572 128.566 149.465L122.961 145.553C121.647 144.637 119.839 144.958 118.922 146.272C118.005 147.585 118.327 149.393 119.641 150.31L125.4 154.329C122.77 158.608 120.443 163.053 118.433 167.641H112.02C110.419 167.641 109.12 168.939 109.12 170.541C109.12 172.143 110.417 173.442 112.02 173.442H116.088C113.842 179.496 112.127 185.767 110.975 192.198H106.734C104.068 192.198 101.9 190.03 101.9 187.364V10.6333C101.9 7.96701 104.068 5.79927 106.734 5.79927H137.756L140.559 10.1982L137.886 14.4778C137.039 15.8373 137.453 17.6259 138.811 18.4749C139.29 18.7725 139.82 18.9145 140.344 18.9145C141.311 18.9145 142.258 18.4311 142.808 17.5504L145.074 13.9219L150.778 16.6637C151.183 16.8585 151.612 16.9507 152.033 16.9507C153.113 16.9507 154.15 16.3449 154.648 15.3056C155.343 13.863 154.734 12.1288 153.292 11.4354L145.991 7.92622L144.636 5.80078H187.365C190.031 5.80078 192.199 7.96852 192.199 10.6348V43.5723C192.199 45.1736 193.498 46.4727 195.1 46.4727V46.4727ZM192.199 145.828C171.942 154.089 156.614 171.197 150.638 192.199H136.317C139.645 178.04 146.586 164.952 156.517 154.163C166.318 143.518 178.59 135.58 192.199 131.048V145.828ZM192.199 169.484V187.365C192.199 190.031 190.031 192.199 187.365 192.199H175.505V185.282L182.362 183.054C183.557 182.666 184.367 181.552 184.367 180.296V170.543C184.367 168.94 183.068 167.643 181.466 167.643C179.865 167.643 178.566 168.94 178.566 170.543V178.188L174.084 179.646L173.137 177.753C172.421 176.321 170.679 175.74 169.245 176.456C167.813 177.173 167.232 178.915 167.949 180.348L169.706 183.861V192.199H156.689C162.248 174.395 175.184 159.809 192.199 152.136V169.484ZM131.661 155.275C131.679 155.249 131.7 155.228 131.717 155.204C131.779 155.115 131.833 155.024 131.885 154.932C135.172 149.903 138.909 145.134 143.078 140.676C154.094 128.9 167.482 119.954 182.329 114.361C182.426 114.331 182.519 114.295 182.613 114.256C185.747 113.085 188.944 112.061 192.199 111.194V124.96C176.93 129.685 163.155 138.389 152.249 150.234C141.332 162.094 133.8 176.561 130.373 192.199H116.869C119.375 178.978 124.398 166.484 131.661 155.275Z" fill="#909090"/>
<path d="M50.4668 124.741V147.932C50.4668 149.535 51.7659 150.832 53.3672 150.832C54.9684 150.832 56.2676 149.535 56.2676 147.932V124.741C56.2676 117.704 50.5423 111.979 43.5059 111.979C36.4694 111.979 30.7441 117.704 30.7441 124.741V174.023C30.7441 176.262 28.9223 178.084 26.6836 178.084C24.4449 178.084 22.623 176.262 22.623 174.023V114.88C22.623 113.278 21.3239 111.979 19.7227 111.979C18.1214 111.979 16.8223 113.278 16.8223 114.88V174.023C16.8223 179.462 21.2454 183.885 26.6836 183.885C32.1218 183.885 36.5449 179.462 36.5449 174.023V124.741C36.5449 120.904 39.6674 117.78 43.5059 117.78C47.3443 117.78 50.4668 120.904 50.4668 124.741Z" fill="#909090"/>
<path d="M53.3869 157.201H53.3477C51.7449 157.201 50.4473 158.499 50.4473 160.102C50.4473 161.703 51.7449 163.002 53.3477 163.002H53.3869C54.9897 163.002 56.2873 161.703 56.2873 160.102C56.2873 158.499 54.9897 157.201 53.3869 157.201Z" fill="#909090"/>
<path d="M53.3596 173.443H53.3883C54.976 173.443 56.2721 172.162 56.2872 170.57C56.3023 168.969 55.0168 167.658 53.414 167.643H53.3747C53.3642 167.643 53.3551 167.643 53.346 167.643C51.7569 167.643 50.4623 168.924 50.4472 170.516C50.432 172.117 51.7176 173.428 53.3204 173.443H53.3596Z" fill="#909090"/>
<path d="M53.3477 183.885H53.3869C54.9897 183.885 56.2873 182.587 56.2873 180.984C56.2873 179.382 54.9897 178.084 53.3869 178.084H53.3477C51.7449 178.084 50.4473 179.382 50.4473 180.984C50.4473 182.587 51.7449 183.885 53.3477 183.885Z" fill="#909090"/>
<path d="M64.3479 160.102C64.3479 161.703 65.647 163.002 67.2483 163.002H67.2891C68.8903 163.002 70.1895 161.703 70.1895 160.102C70.1895 158.499 68.8903 157.201 67.2891 157.201H67.2483C65.647 157.201 64.3479 158.499 64.3479 160.102Z" fill="#909090"/>
<path d="M67.277 167.643C67.2664 167.643 67.2573 167.643 67.2482 167.643C65.6591 167.643 64.3645 168.924 64.3494 170.516C64.3343 172.117 65.6198 173.428 67.2211 173.443H67.2618H67.2905C68.8782 173.443 70.1743 172.162 70.1894 170.57C70.2045 168.969 68.919 167.658 67.3162 167.643H67.277Z" fill="#909090"/>
<path d="M67.2483 183.885H67.2891C68.8903 183.885 70.1895 182.587 70.1895 180.984C70.1895 179.382 68.8903 178.084 67.2891 178.084H67.2483C65.647 178.084 64.3479 179.382 64.3479 180.984C64.3479 182.587 65.647 183.885 67.2483 183.885Z" fill="#909090"/>
<path d="M81.1913 157.201H81.1505C79.5493 157.201 78.2501 158.499 78.2501 160.102C78.2501 161.703 79.5493 163.002 81.1505 163.002H81.1913C82.7926 163.002 84.0917 161.703 84.0917 160.102C84.0917 158.499 82.7926 157.201 81.1913 157.201Z" fill="#909090"/>
<path d="M81.1641 173.443H81.1913C82.7805 173.443 84.0751 172.162 84.0902 170.57C84.1053 168.969 82.8198 167.658 81.2185 167.643H81.1777C81.1686 167.643 81.1596 167.643 81.1505 167.643C79.5613 167.643 78.2652 168.924 78.2501 170.516C78.235 172.117 79.5221 173.428 81.1233 173.443H81.1641Z" fill="#909090"/>
<path d="M81.1505 183.885H81.1913C82.7926 183.885 84.0917 182.587 84.0917 180.984C84.0917 179.382 82.7926 178.084 81.1913 178.084H81.1505C79.5493 178.084 78.2501 179.382 78.2501 180.984C78.2501 182.587 79.5493 183.885 81.1505 183.885Z" fill="#909090"/>
<path d="M68.9644 120.04H77.9873C79.5901 120.04 80.8877 118.742 80.8877 117.14C80.8877 115.537 79.5901 114.239 77.9873 114.239H68.9644C67.3631 114.239 66.064 115.537 66.064 117.14C66.064 118.742 67.3631 120.04 68.9644 120.04Z" fill="#909090"/>
<path d="M68.9644 130.305H77.9873C79.5901 130.305 80.8877 129.006 80.8877 127.404C80.8877 125.802 79.5901 124.504 77.9873 124.504H68.9644C67.3631 124.504 66.064 125.802 66.064 127.404C66.064 129.006 67.3631 130.305 68.9644 130.305Z" fill="#909090"/>
<path d="M68.9644 140.568H77.9873C79.5901 140.568 80.8877 139.27 80.8877 137.667C80.8877 136.066 79.5901 134.767 77.9873 134.767H68.9644C67.3631 134.767 66.064 136.066 66.064 137.667C66.064 139.27 67.3631 140.568 68.9644 140.568Z" fill="#909090"/>
<path d="M68.9644 150.833H77.9873C79.5901 150.833 80.8877 149.535 80.8877 147.932C80.8877 146.331 79.5901 145.032 77.9873 145.032H68.9644C67.3631 145.032 66.064 146.331 66.064 147.932C66.064 149.535 67.3631 150.833 68.9644 150.833Z" fill="#909090"/>
<path d="M77.457 33.1657C77.8996 32.3212 77.8996 31.3152 77.457 30.4722C72.271 20.5762 62.1151 14.4294 50.9501 14.4294C39.7851 14.4294 29.6292 20.5762 24.4433 30.4722C24.0007 31.3152 24.0007 32.3212 24.4433 33.1657C29.6277 43.0587 39.7851 49.2039 50.9501 49.2039C62.1151 49.2039 72.2725 43.0587 77.457 33.1657ZM50.9501 43.4031C42.4665 43.4031 34.7049 39.0012 30.3423 31.8182C34.7064 24.6322 42.468 20.2302 50.9501 20.2302C59.4323 20.2302 67.1938 24.6322 71.558 31.8182C67.1953 39.0027 59.4338 43.4031 50.9501 43.4031Z" fill="#909090"/>
<path d="M50.9501 25.3528C46.3714 25.3528 42.6462 29.078 42.6462 33.6567C42.6462 38.2354 46.3714 41.9621 50.9501 41.9621C55.5288 41.9621 59.254 38.2354 59.254 33.6567C59.254 29.078 55.5288 25.3528 50.9501 25.3528ZM50.9501 36.1598C49.5694 36.1598 48.447 35.0374 48.447 33.6567C48.447 32.276 49.5694 31.1536 50.9501 31.1536C52.3308 31.1536 53.4532 32.276 53.4532 33.6567C53.4532 35.0374 52.3308 36.1598 50.9501 36.1598Z" fill="#909090"/>
<path d="M50.9547 52.2175C49.3564 52.2175 48.0588 53.5106 48.0543 55.1104L48.0437 58.9217C48.0392 60.5244 49.3338 61.8266 50.9366 61.8311H50.9441C52.5423 61.8311 53.84 60.538 53.8445 58.9383L53.8551 55.127C53.8596 53.5242 52.565 52.2221 50.9637 52.2175C50.9607 52.2175 50.9577 52.2175 50.9547 52.2175Z" fill="#909090"/>
<path d="M58.6182 50.9774C57.2284 51.7735 56.7465 53.5454 57.5426 54.9352L59.4339 58.242C59.9702 59.1785 60.9476 59.7027 61.9537 59.7027C62.4431 59.7027 62.9371 59.5789 63.3918 59.319C64.783 58.5229 65.2649 56.751 64.4688 55.3612L62.576 52.0545C61.7814 50.6647 60.0095 50.1828 58.6182 50.9774Z" fill="#909090"/>
<path d="M39.3515 51.9865L37.439 55.2826C36.6354 56.6679 37.1082 58.4429 38.4934 59.2465C38.9512 59.5124 39.4527 59.6378 39.9467 59.6378C40.9467 59.6378 41.9195 59.1196 42.4573 58.1921L44.3698 54.8974C45.1734 53.5107 44.7006 51.7372 43.3153 50.9336C41.9301 50.1299 40.1551 50.6012 39.3515 51.9865Z" fill="#909090"/>
<path d="M40.9724 80.5855L53.0363 73.0928H71.6048C75.9841 73.0928 79.5476 69.5277 79.5476 65.1484C79.5476 63.5457 78.25 62.248 76.6472 62.248C75.046 62.248 73.7469 63.5457 73.7469 65.1484C73.7469 66.3297 72.7861 67.292 71.6048 67.292H30.2969C29.1141 67.292 28.1533 66.3297 28.1533 65.1484C28.1533 63.5457 26.8542 62.248 25.2529 62.248C23.6502 62.248 22.3525 63.5457 22.3525 65.1484C22.3525 69.5277 25.9161 73.0928 30.2969 73.0928H42.042L37.9119 75.6578C35.1082 77.3996 33.8317 80.7018 34.7381 83.8771C35.643 87.0509 38.4693 89.1839 41.7701 89.1839C43.3713 89.1839 44.6704 87.8848 44.6704 86.2835C44.6704 84.6808 43.3713 83.3831 41.7701 83.3831C40.7398 83.3831 40.4105 82.6157 40.3168 82.2849C40.2217 81.9556 40.0978 81.1293 40.9724 80.5855Z" fill="#909090"/>
<path d="M88.1719 75.5505H88.1311C86.5298 75.5505 85.2307 76.8482 85.2307 78.4509C85.2307 80.0537 86.5298 81.3513 88.1311 81.3513H88.1719C89.7731 81.3513 91.0723 80.0537 91.0723 78.4509C91.0723 76.8482 89.7731 75.5505 88.1719 75.5505Z" fill="#909090"/>
<path d="M14.2058 31.5298C12.6046 31.5298 11.3054 32.8289 11.3054 34.4302C11.3054 36.0329 12.6046 37.3306 14.2058 37.3306H14.2466C15.8479 37.3306 17.147 36.0329 17.147 34.4302C17.147 32.8289 15.8479 31.5298 14.2466 31.5298H14.2058Z" fill="#909090"/>
<path d="M79.6641 83.7607H79.7048C81.3061 83.7607 82.6052 82.4631 82.6052 80.8604C82.6052 79.2576 81.3061 77.96 79.7048 77.96H79.6641C78.0628 77.96 76.7637 79.2576 76.7637 80.8604C76.7637 82.4631 78.0628 83.7607 79.6641 83.7607Z" fill="#909090"/>
<path d="M114.94 20.1094C114.94 18.5066 113.641 17.209 112.04 17.209H111.999C110.398 17.209 109.099 18.5066 109.099 20.1094C109.099 21.7121 110.398 23.0098 111.999 23.0098H112.04C113.641 23.0098 114.94 21.7121 114.94 20.1094Z" fill="#909090"/>
<path d="M178.104 77.96H178.064C176.462 77.96 175.164 79.2576 175.164 80.8604C175.164 82.4631 176.462 83.7607 178.064 83.7607H178.104C179.706 83.7607 181.004 82.4631 181.004 80.8604C181.004 79.2576 179.706 77.96 178.104 77.96Z" fill="#909090"/>
<path d="M61.0261 113.374C62.6274 113.374 63.9265 112.074 63.9265 110.473C63.9265 108.87 62.6274 107.573 61.0261 107.573H60.9854C59.3841 107.573 58.085 108.87 58.085 110.473C58.085 112.074 59.3841 113.374 60.9854 113.374H61.0261Z" fill="#909090"/>
<path d="M12.375 183.885C13.9763 183.885 15.2754 182.587 15.2754 180.984C15.2754 179.382 13.9763 178.084 12.375 178.084H12.3342C10.733 178.084 9.43384 179.382 9.43384 180.984C9.43384 182.587 10.733 183.885 12.3342 183.885H12.375Z" fill="#909090"/>
<path d="M174.338 10.7949C168.705 10.7949 164.292 16.6591 164.292 24.1473C164.292 31.6339 168.705 37.4997 174.338 37.4997C179.971 37.4997 184.385 31.6339 184.385 24.1473C184.385 16.6591 179.972 10.7949 174.338 10.7949ZM174.338 31.6989C171.907 31.6989 170.093 27.7124 170.093 24.1473C170.093 20.5837 171.907 16.5957 174.338 16.5957C176.768 16.5957 178.584 20.5837 178.584 24.1473C178.584 27.7124 176.768 31.6989 174.338 31.6989Z" fill="#909090"/>
<path d="M107.552 40.5586V130.35C107.552 131.951 108.851 133.25 110.452 133.25C112.055 133.25 113.352 131.951 113.352 130.35V40.5586C113.352 38.9558 112.055 37.6582 110.452 37.6582C108.851 37.6582 107.552 38.9558 107.552 40.5586V40.5586Z" fill="#909090"/>
<path d="M136.022 37.6582C134.421 37.6582 133.122 38.9558 133.122 40.5586V113.334C133.122 114.935 134.421 116.235 136.022 116.235C137.623 116.235 138.923 114.935 138.923 113.334V40.5586C138.923 38.9558 137.623 37.6582 136.022 37.6582V37.6582Z" fill="#909090"/>
<path d="M161.593 37.6582C159.99 37.6582 158.692 38.9558 158.692 40.5586V100.68C158.692 102.283 159.99 103.58 161.593 103.58C163.194 103.58 164.493 102.283 164.493 100.68V40.5586C164.493 38.9558 163.194 37.6582 161.593 37.6582Z" fill="#909090"/>
<path d="M125.684 49.3762C127.285 49.3762 128.584 48.0771 128.584 46.4758C128.584 44.8731 127.285 43.5754 125.684 43.5754H120.011C118.41 43.5754 117.111 44.8731 117.111 46.4758V52.4322C117.111 53.2011 117.416 53.9383 117.961 54.4821L122.975 59.4974C123.542 60.0639 124.283 60.3463 125.025 60.3463C125.768 60.3463 126.51 60.0639 127.076 59.4974C128.209 58.3644 128.209 56.5275 127.076 55.396L122.912 51.2313V49.3762H125.684Z" fill="#909090"/>
<path d="M127.885 74.9086V66.292C127.885 64.6892 126.585 63.3916 124.984 63.3916C123.381 63.3916 122.084 64.6892 122.084 66.292V68.0639C120.981 67.4506 119.561 67.6123 118.625 68.5489C117.492 69.6818 117.492 71.5187 118.625 72.6502L122.933 76.96C123.487 77.5144 124.229 77.809 124.984 77.809C125.357 77.809 125.735 77.7365 126.095 77.5884C127.178 77.1398 127.885 76.0808 127.885 74.9086Z" fill="#909090"/>
<path d="M120.076 84.5796V92.4106C120.076 94.0134 121.375 95.311 122.977 95.311C124.578 95.311 125.877 94.0134 125.877 92.4106V84.5796C125.877 82.9768 124.578 81.6792 122.977 81.6792C121.375 81.6792 120.076 82.9768 120.076 84.5796Z" fill="#909090"/>
<path d="M155.911 51.896L150.873 45.5151C150.301 44.7915 149.417 44.3806 148.495 44.4154C147.572 44.4471 146.72 44.9169 146.201 45.6798L141.85 52.0606C140.948 53.3839 141.288 55.1891 142.613 56.0909C143.113 56.4323 143.681 56.5955 144.243 56.5955C145.171 56.5955 146.081 56.1514 146.643 55.3281L148.769 52.2102L151.36 55.4912C152.354 56.7481 154.177 56.9641 155.434 55.9701C156.691 54.9776 156.905 53.1543 155.911 51.896V51.896Z" fill="#909090"/>
<path d="M116.649 113.074C117.149 113.416 117.717 113.579 118.279 113.579C119.206 113.579 120.117 113.136 120.679 112.313L122.804 109.195L125.395 112.476C126.388 113.733 128.212 113.947 129.469 112.955C130.726 111.962 130.941 110.138 129.948 108.881L124.909 102.5C124.336 101.775 123.454 101.362 122.531 101.399C121.608 101.43 120.756 101.902 120.236 102.665L115.886 109.045C114.982 110.369 115.324 112.172 116.649 113.074V113.074Z" fill="#909090"/>
<path d="M154.192 72.809C155.228 71.5884 155.079 69.7575 153.857 68.7212L147.476 63.3072C146.615 62.576 145.408 62.4114 144.382 62.8872C143.356 63.3616 142.699 64.3888 142.699 65.5187V77.6717C142.699 79.2729 143.998 80.5721 145.6 80.5721C147.202 80.5721 148.5 79.2729 148.5 77.6717V71.7833L150.104 73.1443C151.326 74.1806 153.156 74.0311 154.192 72.809Z" fill="#909090"/>
<path d="M149.511 85.5947C147.909 85.5947 146.61 86.8923 146.61 88.4951V95.2672C146.61 96.8685 147.909 98.1676 149.511 98.1676C151.113 98.1676 152.411 96.8685 152.411 95.2672V88.4951C152.411 86.8923 151.113 85.5947 149.511 85.5947Z" fill="#909090"/>
</g>
<defs>
<clipPath id="clip0">
<rect width="198" height="198" fill="white"/>
</clipPath>
</defs>
</svg>
