<svg width="366" height="366" viewBox="0 0 366 366" fill="none" xmlns="http://www.w3.org/2000/svg">
<path d="M317 153C339.091 153 357 135.091 357 113C357 90.9086 339.091 73 317 73C294.909 73 277 90.9086 277 113C277 135.091 294.909 153 317 153Z" fill="#0FDE8C"/>
<path d="M311.908 136.234H312.517V144.578H320.86V136.234H321.47C324.152 136.235 326.756 135.329 328.86 133.664C330.963 132 332.443 129.673 333.059 127.063C333.675 124.452 333.391 121.709 332.254 119.28C331.117 116.85 329.192 114.876 326.793 113.677L310.318 105.438C309.6 105.079 309.024 104.489 308.684 103.762C308.343 103.035 308.258 102.215 308.442 101.434C308.626 100.653 309.068 99.9564 309.697 99.458C310.326 98.9596 311.105 98.6881 311.908 98.6875H321.47C322.414 98.6897 323.319 99.0658 323.986 99.7334C324.654 100.401 325.03 101.306 325.032 102.25V107.031H333.376V102.25C333.373 99.0935 332.117 96.0669 329.885 93.8348C327.653 91.6026 324.626 90.3471 321.47 90.3438H320.86V82H312.517V90.3438H311.908C309.225 90.3435 306.621 91.2491 304.518 92.9138C302.414 94.5785 300.934 96.9048 300.318 99.5156C299.702 102.126 299.986 104.869 301.123 107.298C302.26 109.728 304.185 111.702 306.584 112.901L323.059 121.141C323.777 121.499 324.353 122.09 324.693 122.816C325.034 123.543 325.119 124.363 324.935 125.144C324.751 125.926 324.309 126.622 323.68 127.12C323.051 127.619 322.272 127.89 321.47 127.891H311.908C310.963 127.888 310.058 127.512 309.391 126.845C308.723 126.177 308.347 125.272 308.345 124.328V119.547H300.001V124.328C300.004 127.485 301.26 130.511 303.492 132.743C305.724 134.976 308.751 136.231 311.908 136.234Z" fill="#110261"/>
<path d="M357 174C357 184.609 352.786 194.783 345.284 202.284C337.783 209.786 327.609 214 317 214C317 203.391 321.214 193.217 328.716 185.716C336.217 178.214 346.391 174 357 174V174Z" fill="#F72D6B"/>
<path d="M357 229C357 239.609 352.786 249.783 345.284 257.284C337.783 264.786 327.609 269 317 269C317 258.391 321.214 248.217 328.716 240.716C336.217 233.214 346.391 229 357 229V229Z" fill="#F72D6B"/>
<path d="M305.285 185.715C309.004 189.426 311.953 193.835 313.964 198.689C315.974 203.543 317.006 208.746 317 214C306.391 214 296.217 209.786 288.716 202.284C281.214 194.783 277 184.609 277 174C282.254 173.993 287.458 175.024 292.312 177.035C297.166 179.045 301.575 181.995 305.285 185.715V185.715Z" fill="#F72D6B"/>
<path d="M305.285 240.715C309.004 244.426 311.953 248.835 313.964 253.689C315.974 258.543 317.006 263.746 317 269C306.391 269 296.217 264.786 288.716 257.284C281.214 249.783 277 239.609 277 229C282.254 228.993 287.458 230.024 292.312 232.035C297.166 234.045 301.575 236.995 305.285 240.715V240.715Z" fill="#F72D6B"/>
<path d="M360 113.039C360.002 104.656 357.557 96.4557 352.966 89.4444C348.374 82.433 341.836 76.9164 334.154 73.5723C326.473 70.2281 317.982 69.2021 309.725 70.6202C301.469 72.0384 293.806 75.8389 287.679 81.555C281.551 87.271 277.225 94.6536 275.233 102.796C273.241 110.938 273.67 119.485 276.465 127.387C279.261 135.289 284.303 142.202 290.971 147.276C297.639 152.35 305.643 155.365 314 155.95V192.144C312.162 189.056 309.947 186.209 307.406 183.668C303.422 179.66 298.684 176.482 293.465 174.319C288.245 172.156 282.649 171.05 277 171.066C276.204 171.066 275.441 171.382 274.879 171.945C274.316 172.508 274 173.271 274 174.068C274.015 184.954 278.148 195.431 285.569 203.392C292.99 211.353 303.148 216.208 314 216.979V247.179C312.162 244.091 309.947 241.243 307.406 238.703C303.422 234.695 298.684 231.517 293.465 229.354C288.245 227.191 282.649 226.085 277 226.101C276.204 226.101 275.441 226.417 274.879 226.98C274.316 227.543 274 228.306 274 229.102C274.015 239.989 278.148 250.466 285.569 258.427C292.99 266.388 303.148 271.242 314 272.014V316.998C314 317.794 314.316 318.558 314.879 319.121C315.441 319.684 316.204 320 317 320C317.796 320 318.559 319.684 319.121 319.121C319.684 318.558 320 317.794 320 316.998V272.014C330.852 271.242 341.01 266.388 348.431 258.427C355.852 250.466 359.985 239.989 360 229.102C360 228.306 359.684 227.543 359.121 226.98C358.559 226.417 357.796 226.101 357 226.101C351.351 226.085 345.754 227.191 340.535 229.354C335.316 231.517 330.577 234.695 326.593 238.703C324.052 241.244 321.838 244.091 320 247.179V216.979C330.852 216.208 341.01 211.353 348.431 203.392C355.852 195.431 359.985 184.954 360 174.068C360 173.271 359.684 172.508 359.121 171.945C358.559 171.382 357.796 171.066 357 171.066C351.351 171.05 345.754 172.156 340.535 174.319C335.316 176.482 330.577 179.66 326.593 183.668C324.052 186.209 321.838 189.056 320 192.144V155.95C330.852 155.178 341.01 150.324 348.431 142.363C355.852 134.403 359.985 123.925 360 113.039V113.039ZM280 113.039C280 105.716 282.17 98.5583 286.236 92.4699C290.301 86.3814 296.08 81.636 302.841 78.8338C309.602 76.0316 317.041 75.2984 324.218 76.7269C331.396 78.1555 337.988 81.6816 343.163 86.8595C348.337 92.0373 351.861 98.6342 353.289 105.816C354.717 112.998 353.984 120.442 351.184 127.207C348.383 133.972 343.641 139.755 337.556 143.823C331.471 147.891 324.318 150.062 317 150.062C307.19 150.051 297.786 146.147 290.849 139.206C283.913 132.266 280.011 122.855 280 113.039V113.039ZM280.132 177.2C288.832 177.94 296.99 181.735 303.164 187.913C309.338 194.091 313.13 202.254 313.87 210.96C305.173 210.21 297.021 206.412 290.849 200.236C284.676 194.06 280.881 185.902 280.132 177.2V177.2ZM280.132 232.234C288.832 232.975 296.99 236.77 303.164 242.948C309.338 249.126 313.13 257.289 313.87 265.995C305.173 265.245 297.021 261.447 290.849 255.271C284.676 249.094 280.881 240.936 280.132 232.234V232.234ZM330.836 242.947C336.996 236.749 345.162 232.95 353.868 232.234C353.119 240.936 349.324 249.094 343.151 255.271C336.979 261.447 328.827 265.245 320.13 265.995C320.847 257.283 324.643 249.112 330.836 242.947V242.947ZM330.836 187.912C336.996 181.714 345.162 177.915 353.868 177.2C353.119 185.902 349.324 194.06 343.151 200.236C336.979 206.412 328.827 210.21 320.13 210.96C320.847 202.248 324.643 194.077 330.836 187.912V187.912Z" fill="#110261"/>
<path d="M208 278.727V277C208 286.387 227.254 294 251 294C274.746 294 294 286.387 294 277V294C294 303.387 274.746 311 251 311C227.254 311 208 303.387 208 294V278.727Z" fill="#FFB200"/>
<path d="M294 259V276.5C294 286.163 274.746 294 251 294C227.254 294 208 286.163 208 276.5V259C208 268.663 227.254 276.5 251 276.5C274.746 276.5 294 268.663 294 259Z" fill="#FFB200"/>
<path d="M294 242V259.5C294 269.163 274.746 277 251 277C227.254 277 208 269.163 208 259.5V242C208 251.663 227.254 259.5 251 259.5C274.746 259.5 294 251.663 294 242Z" fill="#FFB200"/>
<path d="M232.179 226.712C238.383 225.551 244.686 224.978 251 225.001C274.746 225.001 294 232.608 294 242C294 251.392 274.746 259 251 259C227.254 259 208 251.387 208 242C208 235.28 217.862 229.472 232.179 226.712Z" fill="#FFB200"/>
<path d="M232 211V226.722C217.683 229.563 207.821 235.541 207.821 242.46V244.238C201.617 245.433 195.314 246.023 189 245.999C165.254 245.999 146 238.168 146 228.5V211C146 220.668 165.254 228.5 189 228.5C212.746 228.5 232 220.668 232 211Z" fill="#FFB200"/>
<path d="M232 194V211C232 220.392 212.746 228 189 228C165.254 228 146 220.392 146 211V194C146 203.392 165.254 211 189 211C212.746 211 232 203.392 232 194Z" fill="#FFB200"/>
<path d="M232 177V194C232 203.392 212.746 211 189 211C165.254 211 146 203.392 146 194V177C146 186.392 165.254 194 189 194C212.746 194 232 186.392 232 177Z" fill="#FFB200"/>
<path d="M232 160V177C232 186.392 212.746 194 189 194C165.254 194 146 186.392 146 177V160C146 169.392 165.254 177 189 177C212.746 177 232 169.392 232 160Z" fill="#FFB200"/>
<path d="M189 177C212.748 177 232 169.389 232 160C232 150.611 212.748 143 189 143C165.252 143 146 150.611 146 160C146 169.389 165.252 177 189 177Z" fill="#FFB200"/>
<path d="M208 278.089V278.288C201.778 279.452 195.458 280.025 189.125 279.999C165.309 279.999 146 272.392 146 263V246C146 255.392 165.309 263 189.125 263C195.457 263.023 201.778 262.45 208 261.288V278.089Z" fill="#FFB200"/>
<path d="M208 259.46V261.238C201.778 262.433 195.457 263.023 189.125 262.999C165.309 262.999 146 255.168 146 245.5V228C146 237.668 165.309 245.5 189.125 245.5C195.457 245.523 201.778 244.933 208 243.738V259.46Z" fill="#FFB200"/>
<path d="M282.428 227.355C273.951 223.978 262.747 222.118 250.879 222.118C245.645 222.107 240.418 222.488 235.242 223.257V160.268C235.242 154.321 230.067 148.983 220.67 145.239C212.191 141.861 200.987 140 189.121 140C177.255 140 166.05 141.861 157.571 145.239C148.175 148.983 143 154.321 143 160.268V262.963C143 274.517 162.83 283.23 189.121 283.23C194.355 283.243 199.582 282.864 204.758 282.096V293.732C204.758 299.679 209.933 305.017 219.33 308.761C227.809 312.139 239.013 314 250.879 314C262.745 314 273.95 312.139 282.429 308.761C291.825 305.017 297 299.679 297 293.732V242.385C297 236.436 291.825 231.097 282.428 227.355ZM159.922 151.092C167.671 148.005 178.041 146.304 189.121 146.304C211.896 146.304 228.913 153.676 228.913 160.268C228.913 163.372 224.953 166.803 218.32 169.445C210.572 172.532 200.203 174.232 189.121 174.232C166.346 174.232 149.329 166.859 149.329 160.268C149.329 157.168 153.289 153.736 159.922 151.092ZM149.329 170.846C151.87 172.681 154.642 174.178 157.572 175.299C166.049 178.676 177.253 180.536 189.121 180.536C200.988 180.536 212.192 178.676 220.67 175.299C223.601 174.178 226.372 172.681 228.913 170.846V177.384C228.913 180.487 224.953 183.919 218.32 186.561C210.572 189.648 200.203 191.347 189.121 191.347C166.346 191.347 149.329 183.975 149.329 177.384V170.846ZM149.329 187.962C151.87 189.797 154.641 191.294 157.572 192.415C166.049 195.792 177.253 197.652 189.121 197.652C200.988 197.652 212.192 195.792 220.67 192.415C223.601 191.294 226.372 189.797 228.913 187.962V194.499C228.913 197.604 224.953 201.035 218.32 203.677C210.572 206.764 200.203 208.463 189.121 208.463C166.346 208.463 149.329 201.091 149.329 194.499V187.962ZM149.329 205.077C151.87 206.913 154.641 208.41 157.572 209.531C166.049 212.908 177.253 214.767 189.121 214.767C200.988 214.767 212.192 212.908 220.67 209.531C223.601 208.411 226.372 206.914 228.913 205.08V211.615C228.913 214.72 224.953 218.15 218.32 220.793C210.572 223.879 200.203 225.579 189.121 225.579C166.346 225.579 149.329 218.207 149.329 211.615V205.077ZM149.329 222.193C151.87 224.028 154.641 225.525 157.572 226.646C166.049 230.023 177.253 231.883 189.121 231.883C200.988 231.883 212.192 230.023 220.67 226.646C223.601 225.525 226.372 224.028 228.913 222.193V224.439C214.322 227.743 205.466 233.986 204.803 241.474C199.617 242.301 194.373 242.709 189.121 242.695C166.346 242.695 149.329 235.322 149.329 228.731V222.193ZM149.329 239.277C157.202 245.192 171.747 248.996 189.121 248.996C194.355 249.007 199.582 248.626 204.758 247.857V258.597C199.587 259.419 194.358 259.825 189.121 259.811C166.346 259.811 149.329 252.438 149.329 245.847V239.277ZM149.329 262.963V256.396C157.202 262.31 171.747 266.115 189.121 266.115C194.355 266.125 199.582 265.744 204.758 264.975V275.715C199.587 276.537 194.358 276.942 189.121 276.926C166.346 276.926 149.329 269.554 149.329 262.963V262.963ZM280.078 302.908C272.329 305.995 261.959 307.696 250.879 307.696C228.104 307.696 211.087 300.324 211.087 293.732V287.192C213.628 289.027 216.399 290.524 219.33 291.644C227.809 295.023 239.013 296.884 250.879 296.884C262.745 296.884 273.95 295.023 282.429 291.644C285.359 290.524 288.13 289.027 290.671 287.192V293.732C290.671 296.834 286.711 300.265 280.078 302.908V302.908ZM280.078 285.792C272.329 288.88 261.959 290.58 250.879 290.58C228.104 290.58 211.087 283.208 211.087 276.616V270.076C213.628 271.911 216.399 273.408 219.33 274.529C227.809 277.908 239.013 279.768 250.879 279.768C262.745 279.768 273.95 277.908 282.429 274.529C285.359 273.408 288.13 271.911 290.671 270.076V276.616C290.671 279.719 286.711 283.146 280.078 285.792V285.792ZM280.078 268.676C272.329 271.764 261.959 273.464 250.879 273.464C228.104 273.464 211.087 266.092 211.087 259.501V252.961C213.628 254.796 216.399 256.293 219.33 257.413C227.809 260.792 239.013 262.653 250.879 262.653C262.745 262.653 273.95 260.792 282.429 257.413C285.359 256.292 288.13 254.796 290.671 252.961V259.501C290.671 262.605 286.711 266.033 280.078 268.676ZM280.078 251.56C272.329 254.648 261.959 256.348 250.879 256.348C228.104 256.348 211.087 248.976 211.087 242.385C211.087 238.482 217.845 232.969 232.683 230.086C238.681 228.953 244.774 228.395 250.879 228.421C273.653 228.421 290.671 235.793 290.671 242.385C290.671 245.487 286.711 248.917 280.078 251.56Z" fill="#110261"/>
<path d="M162 323.727V322C162 331.387 181.254 339 205 339C228.746 339 248 331.387 248 322V339C248 348.387 228.746 356 205 356C181.254 356 162 348.387 162 339V323.727Z" fill="#FFB200"/>
<path d="M248 304V321.5C248 331.163 228.746 339 205 339C181.254 339 162 331.163 162 321.5V304C162 313.663 181.254 321.5 205 321.5C228.746 321.5 248 313.663 248 304Z" fill="#FFB200"/>
<path d="M248 287V304.5C248 314.163 228.746 322 205 322C181.254 322 162 314.163 162 304.5V287C162 296.663 181.254 304.5 205 304.5C228.746 304.5 248 296.663 248 287Z" fill="#FFB200"/>
<path d="M186.179 271.712C192.383 270.551 198.686 269.978 205 270.001C228.746 270.001 248 277.608 248 287C248 296.392 228.746 304 205 304C181.254 304 162 296.387 162 287C162 280.28 171.862 274.472 186.179 271.712Z" fill="#FFB200"/>
<path d="M186 256V271.722C171.683 274.563 161.821 280.541 161.821 287.46V289.238C155.617 290.433 149.314 291.023 143 290.999C119.254 290.999 100 283.168 100 273.5V256C100 265.668 119.254 273.5 143 273.5C166.746 273.5 186 265.668 186 256Z" fill="#FFB200"/>
<path d="M186 239V256C186 265.392 166.746 273 143 273C119.254 273 100 265.392 100 256V239C100 248.392 119.254 256 143 256C166.746 256 186 248.392 186 239Z" fill="#FFB200"/>
<path d="M186 222V239C186 248.392 166.746 256 143 256C119.254 256 100 248.392 100 239V222C100 231.392 119.254 239 143 239C166.746 239 186 231.392 186 222Z" fill="#FFB200"/>
<path d="M186 205V222C186 231.392 166.746 239 143 239C119.254 239 100 231.392 100 222V205C100 214.392 119.254 222 143 222C166.746 222 186 214.392 186 205Z" fill="#FFB200"/>
<path d="M143 222C166.748 222 186 214.389 186 205C186 195.611 166.748 188 143 188C119.252 188 100 195.611 100 205C100 214.389 119.252 222 143 222Z" fill="#FFB200"/>
<path d="M162 323.089V323.288C155.778 324.452 149.458 325.025 143.125 324.999C119.309 324.999 100 317.392 100 308V291C100 300.392 119.309 308 143.125 308C149.457 308.023 155.778 307.45 162 306.288V323.089Z" fill="#FFB200"/>
<path d="M162 304.46V306.238C155.778 307.433 149.457 308.023 143.125 307.999C119.309 307.999 100 300.168 100 290.5V273C100 282.668 119.309 290.5 143.125 290.5C149.457 290.523 155.778 289.933 162 288.738V304.46Z" fill="#FFB200"/>
<path d="M236.428 272.355C227.951 268.978 216.747 267.118 204.879 267.118C199.645 267.107 194.418 267.488 189.242 268.257V205.268C189.242 199.321 184.067 193.983 174.67 190.239C166.191 186.861 154.987 185 143.121 185C131.255 185 120.05 186.861 111.571 190.239C102.175 193.983 97 199.321 97 205.268V307.963C97 319.517 116.83 328.23 143.121 328.23C148.355 328.243 153.582 327.864 158.758 327.096V338.732C158.758 344.679 163.933 350.017 173.33 353.761C181.809 357.139 193.013 359 204.879 359C216.745 359 227.95 357.139 236.429 353.761C245.825 350.017 251 344.679 251 338.732V287.385C251 281.436 245.825 276.097 236.428 272.355ZM113.922 196.092C121.671 193.005 132.041 191.304 143.121 191.304C165.896 191.304 182.913 198.676 182.913 205.268C182.913 208.372 178.953 211.803 172.32 214.445C164.572 217.532 154.203 219.232 143.121 219.232C120.346 219.232 103.329 211.859 103.329 205.268C103.329 202.168 107.289 198.736 113.922 196.092ZM103.329 215.846C105.87 217.681 108.642 219.178 111.572 220.299C120.049 223.676 131.253 225.536 143.121 225.536C154.988 225.536 166.192 223.676 174.67 220.299C177.601 219.178 180.372 217.681 182.913 215.846V222.384C182.913 225.487 178.953 228.919 172.32 231.561C164.572 234.648 154.203 236.347 143.121 236.347C120.346 236.347 103.329 228.975 103.329 222.384V215.846ZM103.329 232.962C105.87 234.797 108.641 236.294 111.572 237.415C120.049 240.792 131.253 242.652 143.121 242.652C154.988 242.652 166.192 240.792 174.67 237.415C177.601 236.294 180.372 234.797 182.913 232.962V239.499C182.913 242.604 178.953 246.035 172.32 248.677C164.572 251.764 154.203 253.463 143.121 253.463C120.346 253.463 103.329 246.091 103.329 239.499V232.962ZM103.329 250.077C105.87 251.913 108.641 253.41 111.572 254.531C120.049 257.908 131.253 259.767 143.121 259.767C154.988 259.767 166.192 257.908 174.67 254.531C177.601 253.411 180.372 251.914 182.913 250.08V256.615C182.913 259.72 178.953 263.15 172.32 265.793C164.572 268.879 154.203 270.579 143.121 270.579C120.346 270.579 103.329 263.207 103.329 256.615V250.077ZM103.329 267.193C105.87 269.028 108.641 270.525 111.572 271.646C120.049 275.023 131.253 276.883 143.121 276.883C154.988 276.883 166.192 275.023 174.67 271.646C177.601 270.525 180.372 269.028 182.913 267.193V269.439C168.322 272.743 159.466 278.986 158.803 286.474C153.617 287.301 148.373 287.709 143.121 287.695C120.346 287.695 103.329 280.322 103.329 273.731V267.193ZM103.329 284.277C111.202 290.192 125.747 293.996 143.121 293.996C148.355 294.007 153.582 293.626 158.758 292.857V303.597C153.587 304.419 148.358 304.825 143.121 304.811C120.346 304.811 103.329 297.438 103.329 290.847V284.277ZM103.329 307.963V301.396C111.202 307.31 125.747 311.115 143.121 311.115C148.355 311.125 153.582 310.744 158.758 309.975V320.715C153.587 321.537 148.358 321.942 143.121 321.926C120.346 321.926 103.329 314.554 103.329 307.963V307.963ZM234.078 347.908C226.329 350.995 215.959 352.696 204.879 352.696C182.104 352.696 165.087 345.324 165.087 338.732V332.192C167.628 334.027 170.399 335.524 173.33 336.644C181.809 340.023 193.013 341.884 204.879 341.884C216.745 341.884 227.95 340.023 236.429 336.644C239.359 335.524 242.13 334.027 244.671 332.192V338.732C244.671 341.834 240.711 345.265 234.078 347.908V347.908ZM234.078 330.792C226.329 333.88 215.959 335.58 204.879 335.58C182.104 335.58 165.087 328.208 165.087 321.616V315.076C167.628 316.911 170.399 318.408 173.33 319.529C181.809 322.908 193.013 324.768 204.879 324.768C216.745 324.768 227.95 322.908 236.429 319.529C239.359 318.408 242.13 316.911 244.671 315.076V321.616C244.671 324.719 240.711 328.146 234.078 330.792V330.792ZM234.078 313.676C226.329 316.764 215.959 318.464 204.879 318.464C182.104 318.464 165.087 311.092 165.087 304.501V297.961C167.628 299.796 170.399 301.293 173.33 302.413C181.809 305.792 193.013 307.653 204.879 307.653C216.745 307.653 227.95 305.792 236.429 302.413C239.359 301.292 242.13 299.796 244.671 297.961V304.501C244.671 307.605 240.711 311.033 234.078 313.676ZM234.078 296.56C226.329 299.648 215.959 301.348 204.879 301.348C182.104 301.348 165.087 293.976 165.087 287.385C165.087 283.482 171.845 277.969 186.683 275.086C192.681 273.953 198.774 273.395 204.879 273.421C227.653 273.421 244.671 280.793 244.671 287.385C244.671 290.487 240.711 293.917 234.078 296.56Z" fill="#110261"/>
</svg>
