<svg width="361" height="359" viewBox="0 0 361 359" fill="none" xmlns="http://www.w3.org/2000/svg">
<path d="M108 247V287.861C131.649 288.888 124.825 293.001 165.971 311.208C171.212 313.237 183.309 316.56 196.265 310.701C196.271 310.698 196.283 310.693 196.29 310.69L277.124 282.206C279.754 281.015 293.023 273.92 287.789 260.707C281.671 246.617 265.926 252.494 264.607 252.917L222.406 264.4" fill="#EAC092"/>
<path d="M155.751 263.822L202.657 278.604C210.843 280.919 219.366 276.196 221.694 268.056C224.022 259.915 219.272 251.44 209.893 247.978L168.282 233.934C168.28 233.931 159.397 219.506 138.245 219.506C124.888 219.506 113.374 230.242 108.1 239.639V258.404" fill="#FEDBAB"/>
<path d="M137 263C136.675 263 136.345 262.965 136.025 262.9C135.705 262.84 135.39 262.74 135.085 262.615C134.785 262.49 134.495 262.335 134.225 262.154C133.95 261.974 133.695 261.764 133.465 261.534C133.235 261.304 133.025 261.049 132.845 260.774C132.66 260.504 132.51 260.214 132.385 259.909C132.26 259.609 132.16 259.294 132.1 258.974C132.035 258.654 132 258.324 132 257.998C132 257.673 132.035 257.343 132.1 257.023C132.16 256.703 132.26 256.388 132.385 256.083C132.51 255.783 132.66 255.493 132.845 255.223C133.025 254.948 133.235 254.693 133.465 254.463C133.695 254.233 133.95 254.023 134.225 253.843C134.495 253.663 134.785 253.508 135.085 253.383C135.39 253.258 135.705 253.158 136.025 253.098C136.665 252.967 137.33 252.967 137.975 253.098C138.295 253.158 138.61 253.258 138.91 253.383C139.215 253.508 139.505 253.663 139.775 253.843C140.05 254.023 140.305 254.233 140.535 254.463C140.765 254.693 140.975 254.948 141.155 255.223C141.335 255.493 141.49 255.783 141.615 256.083C141.74 256.388 141.835 256.703 141.9 257.023C141.965 257.343 142 257.673 142 257.998C142 258.324 141.965 258.654 141.9 258.974C141.835 259.294 141.74 259.609 141.615 259.909C141.49 260.214 141.335 260.504 141.155 260.774C140.975 261.049 140.765 261.304 140.535 261.534C140.305 261.764 140.05 261.974 139.775 262.154C139.505 262.334 139.215 262.49 138.91 262.615C138.61 262.74 138.295 262.84 137.975 262.9C137.655 262.965 137.325 263 137 263Z" fill="#110261"/>
<path d="M108 239H88V295H108V239Z" fill="#EAECF0"/>
<path d="M88 239H57V305H88V239Z" fill="#F72D6B"/>
<path d="M292.408 258.202C292.388 258.15 292.367 258.099 292.345 258.048C287.535 246.856 276.253 242.72 262.902 247.254L226.491 257.265C224.386 250.927 219.135 245.532 211.71 242.793C211.664 242.776 211.618 242.76 211.572 242.744L171.548 229.237C168.217 224.955 157.782 214 138.244 214C124.59 214 112.512 223.313 105.601 233.465H57.2263C54.3398 233.465 52 235.791 52 238.662V304.179C52 307.049 54.3398 309.375 57.2263 309.375H88.3006C91.1872 309.375 93.527 307.049 93.527 304.179V299.692H108.1C110.986 299.692 113.326 297.366 113.326 294.495V293C121.821 293.737 124.615 295.339 132.417 299.812C138.417 303.252 147.485 308.451 163.815 315.752C163.891 315.786 163.968 315.818 164.045 315.848C167.179 317.074 173.306 319 180.859 319C186.117 319 192.067 318.066 198.175 315.314L278.656 286.662C278.799 286.611 278.94 286.553 279.078 286.49C286.77 282.971 298.232 273.055 292.408 258.202ZM83.0743 298.982H62.4527V243.858H83.0743V298.982ZM102.873 289.298H93.527V243.858H102.873V289.298ZM274.902 276.958L194.457 305.597C194.386 305.622 194.29 305.659 194.221 305.687C194.15 305.716 194.08 305.746 194.01 305.778C182.807 310.897 172.157 307.832 167.983 306.219C152.209 299.161 143.79 294.334 137.638 290.807C129.086 285.904 124.965 283.54 113.326 282.585V240.73C118.28 232.657 127.887 224.393 138.245 224.393C156.007 224.393 163.533 235.88 163.829 236.343C164.467 237.375 165.448 238.153 166.602 238.543L208.138 252.56C214.772 255.036 218.278 260.684 216.667 266.317C215.923 268.919 214.204 271.076 211.828 272.393C209.473 273.698 206.75 274.02 204.155 273.306L157.33 258.552C154.577 257.685 151.641 259.2 150.769 261.936C149.897 264.672 151.421 267.593 154.172 268.46L201.078 283.24C201.128 283.255 201.178 283.27 201.228 283.284C203.1 283.814 205.007 284.076 206.902 284.076C210.371 284.076 213.802 283.197 216.916 281.472C221.731 278.804 225.213 274.432 226.72 269.16C226.841 268.739 226.947 268.318 227.04 267.897L266.281 257.088C271.948 255.163 279.388 254.47 282.7 262.055C286.129 270.961 277.218 275.859 274.902 276.958Z" fill="#110261"/>
<path d="M149.168 65.6336L108.273 25L57 75.945L144.616 163L193 114.926" fill="#0FDE8C"/>
<path d="M124.487 72.0275C124.49 72.0183 124.493 72.0092 124.495 72C119.377 72.3421 114.357 74.4263 110.445 78.2539C101.852 86.6602 101.852 100.289 110.445 108.695C119.038 117.102 132.969 117.102 141.562 108.695C145.718 104.63 147.864 99.3424 148 94.0154" fill="#FFB200"/>
<path d="M225 91V55.0176C204.222 54.1136 210.217 50.4921 174.066 34.4589C169.462 32.6722 158.833 29.746 147.45 34.9055C147.444 34.9082 147.434 34.9123 147.428 34.9146L126 42.4821L148.109 64.2902" fill="#EAC092"/>
<path d="M56.5566 75.5819L73.9385 58.2964C83.524 67.8288 83.524 83.335 73.9385 92.8674L56.5566 75.5819Z" fill="#0FDE8C"/>
<path d="M126.787 145.423C136.372 135.891 151.965 135.891 161.55 145.423L144.169 162.709L126.787 145.423Z" fill="#0FDE8C"/>
<path d="M90.446 41.8802L107.828 24.5947L125.21 41.8802C115.625 51.4126 100.032 51.4126 90.446 41.8802Z" fill="#0FDE8C"/>
<path d="M172.342 103.36C169.191 112.009 171.096 122.084 178.058 129.007L192.551 114.595" fill="#0FDE8C"/>
<path d="M182.598 75.938L141.276 62.9157C134.064 60.8764 126.556 65.037 124.506 72.2087C122.455 79.3803 126.639 86.8468 134.902 89.8962L171.575 102.274L171.56 102.269C171.56 102.269 179.385 114.979 198.022 114.979C209.788 114.979 219.932 105.521 224.578 97.2427V80.7118" fill="#FEDBAB"/>
<path d="M199 86C198.675 86 198.345 85.9685 198.025 85.91C197.705 85.8515 197.39 85.7659 197.09 85.6534C196.785 85.5409 196.495 85.4013 196.225 85.2393C195.95 85.0773 195.695 84.8882 195.465 84.6812C195.235 84.4741 195.025 84.2446 194.845 83.997C194.665 83.7539 194.51 83.4929 194.385 83.2183C194.26 82.9482 194.16 82.6647 194.1 82.3766C194.035 82.0885 194 81.7914 194 81.4989C194 81.2063 194.035 80.9092 194.1 80.6212C194.16 80.3331 194.26 80.0495 194.385 79.7749C194.51 79.5049 194.665 79.2438 194.845 79.0008C195.025 78.7532 195.235 78.5236 195.465 78.3166C195.695 78.1095 195.95 77.9205 196.225 77.7584C196.495 77.5964 196.785 77.4569 197.09 77.3443C197.39 77.2318 197.705 77.1418 198.025 77.0878C198.67 76.9707 199.335 76.9707 199.98 77.0878C200.295 77.1418 200.61 77.2318 200.915 77.3443C201.215 77.4569 201.505 77.5964 201.775 77.7584C202.05 77.9205 202.305 78.1095 202.535 78.3166C202.765 78.5236 202.975 78.7532 203.155 79.0008C203.34 79.2438 203.49 79.5049 203.615 79.7749C203.745 80.0495 203.84 80.3331 203.905 80.6212C203.97 80.9092 204 81.2063 204 81.4989C204 81.7914 203.97 82.0885 203.905 82.3766C203.84 82.6647 203.745 82.9482 203.615 83.2183C203.49 83.4929 203.34 83.7539 203.155 83.997C202.975 84.2446 202.765 84.4741 202.535 84.6812C202.305 84.8882 202.05 85.0773 201.775 85.2393C201.505 85.4013 201.215 85.5409 200.915 85.6534C200.61 85.7659 200.295 85.8515 199.98 85.91C199.655 85.9685 199.325 86 199 86Z" fill="#110261"/>
<path d="M242 49H225V98H242V49Z" fill="#EAECF0"/>
<path d="M269 40H242V98H269V40Z" fill="#2603E3"/>
<path d="M269.397 35.4923H242.03C239.488 35.4923 237.427 37.5402 237.427 40.0667V44.0162H224.593C222.051 44.0162 219.99 46.0641 219.99 48.5905V49.907C212.509 49.2579 210.048 47.8481 203.177 43.9105C197.893 40.8823 189.907 36.3056 175.524 29.8791C175.457 29.8489 175.39 29.821 175.322 29.7945C170.64 27.9638 158.37 24.362 145.265 30.2643L126.744 36.855L111.131 21.3397C109.334 19.5534 106.419 19.5534 104.622 21.3397L53.3653 72.2783C51.7074 73.9265 51.3893 76.7841 53.3653 78.7478L140.952 165.792C142.353 167.185 145.635 167.607 147.462 165.792L194.256 119.287C195.473 119.391 196.736 119.448 198.044 119.448C210.07 119.448 220.707 111.25 226.792 102.314H269.397C271.939 102.314 274 100.266 274 97.7397V40.0667C274 37.5402 271.939 35.4923 269.397 35.4923ZM119.551 77.9158C120.4 84.9429 125.492 91.2066 133.343 94.1021C133.383 94.1168 133.424 94.1314 133.465 94.1451L142.669 97.2497C141.974 100.367 140.401 103.233 138.085 105.535C131.444 112.134 120.639 112.135 113.999 105.535C107.358 98.9354 107.358 88.1971 113.999 81.5972C115.601 80.0044 117.491 78.7598 119.551 77.9158ZM128.758 60.0543C125.458 61.8813 122.87 64.6172 121.258 67.9272C116.066 68.8828 111.259 71.3809 107.488 75.1277C97.2586 85.2947 97.2586 101.837 107.489 112.004C112.604 117.087 119.322 119.629 126.042 119.629C132.76 119.629 139.48 117.087 144.595 112.004C147.923 108.697 150.254 104.632 151.422 100.202L166.963 105.444C165.213 113.498 167.005 121.972 171.839 128.628L161.327 139.074C151.156 131.741 137.258 131.741 127.087 139.074L80.252 92.529C83.8464 87.6161 85.7869 81.7148 85.7869 75.5129C85.7869 69.3105 83.8468 63.4096 80.252 58.4967L90.7543 48.0599C95.6978 51.632 101.635 53.5605 107.876 53.5605C114.118 53.5605 120.055 51.632 124.999 48.0599L134.954 57.9538C132.806 58.2689 130.711 58.9725 128.758 60.0543ZM178.471 122.036C176.694 119.159 175.689 115.875 175.53 112.523C177.735 114.107 180.429 115.659 183.648 116.891L178.471 122.036ZM107.876 31.0433L118.367 41.4692C115.248 43.3858 111.643 44.4114 107.876 44.4114C104.109 44.4114 100.504 43.3863 97.3852 41.4692L107.876 31.0433ZM73.6207 65.087C75.5493 68.1861 76.5812 71.7692 76.5812 75.5129C76.5812 79.2565 75.5497 82.8396 73.6207 85.9392L63.1298 75.5129L73.6207 65.087ZM144.207 156.088L133.718 145.664C140.122 141.736 148.291 141.736 154.695 145.664L144.207 156.088ZM198.044 110.298C196.337 110.298 194.738 110.177 193.242 109.962C193.236 109.961 193.23 109.96 193.224 109.96C183.284 108.525 177.937 102.91 176.175 100.687C176.081 100.55 175.681 100.03 175.621 99.9431C175.085 98.9907 174.206 98.225 173.085 97.8467L136.488 85.5028C130.648 83.3245 127.561 78.3545 128.976 73.3977C128.977 73.3945 128.978 73.3913 128.979 73.3881C128.98 73.3844 128.981 73.3803 128.982 73.3766C129.64 71.094 131.15 69.2007 133.238 68.0448C135.312 66.8962 137.71 66.6112 139.997 67.2411L181.235 80.2281C183.659 80.9925 186.246 79.6577 187.013 77.2493C187.781 74.8409 186.439 72.2701 184.016 71.5067L151.218 61.1778L150.932 60.8932C150.929 60.8905 150.927 60.8873 150.923 60.8845L133.943 44.0098L148.538 38.816C148.587 38.7982 148.648 38.7758 148.697 38.7561C148.709 38.7511 148.733 38.7419 148.745 38.7369C148.808 38.7117 148.87 38.6852 148.931 38.6573C158.797 34.1506 168.176 36.8481 171.853 38.2689C185.745 44.4814 193.16 48.7305 198.578 51.8351C206.11 56.1519 209.74 58.2319 219.99 59.0731V95.9159C215.627 103.023 207.166 110.298 198.044 110.298ZM229.196 53.1649H237.427V93.1644H229.196V53.1649ZM264.794 93.1644H246.633V44.641H264.794V93.1644Z" fill="#110261"/>
</svg>
