<svg width="49" height="48" viewBox="0 0 49 48"  xmlns="http://www.w3.org/2000/svg">
<path d="M45.9146 2.9022C44.2672 1.25028 42.0697 0.341797 39.7368 0.341797C37.404 0.341797 35.2094 1.24879 33.5605 2.89922L7.28371 29.0251C7.12759 29.1797 7.00864 29.3656 6.9343 29.5708L0.98696 45.9264C0.795158 46.4543 0.918565 47.0505 1.30663 47.4594C1.5921 47.7597 1.98314 47.9218 2.38607 47.9218C2.53178 47.9218 2.67749 47.901 2.82171 47.8564L17.6142 43.3184C17.8462 43.2486 18.0573 43.1207 18.2298 42.9497L45.9161 15.2626C47.5695 13.6136 48.478 11.416 48.478 9.08165C48.4765 6.74874 47.5695 4.55263 45.9146 2.9022ZM15.9044 40.7328L10.3674 42.4337C10.0448 41.4866 9.54221 40.648 8.85678 39.9626C8.26056 39.3693 7.56918 38.9084 6.84063 38.5337L9.37419 31.5662H12.7939V34.5399C12.7939 35.3622 13.4585 36.0268 14.2807 36.0268H16.905L15.9044 40.7328ZM37.7906 19.182L19.675 37.2981L20.1954 34.8492C20.2876 34.4091 20.1775 33.9526 19.895 33.6047C19.6125 33.2553 19.1888 33.053 18.7413 33.053H15.7676V30.0793C15.7676 29.2585 15.1015 28.5924 14.2807 28.5924H11.9345L29.6175 11.0101L29.6353 11.0265C30.7237 9.9366 32.1733 9.33739 33.7122 9.33739C35.2511 9.33739 36.7022 9.9366 37.7891 11.0265C38.876 12.1164 39.4811 13.5646 39.4811 15.105C39.4811 16.6454 38.8819 18.0921 37.7906 19.182ZM43.8123 13.1601L42.4265 14.5474C42.2927 12.4227 41.411 10.4421 39.8945 8.92404C38.3764 7.40445 36.3944 6.52422 34.2638 6.39189L35.6585 5.00761L35.6614 5.00464C36.7468 3.91476 38.1965 3.31555 39.7368 3.31555C41.2772 3.31555 42.7254 3.91476 43.8123 5.00464C44.9036 6.09452 45.5043 7.54273 45.5043 9.08165C45.5043 10.6235 44.9066 12.0718 43.8123 13.1601ZM34.0452 12.6725L19.1769 27.5412C18.5955 28.1226 18.5955 29.0623 19.1769 29.6436C19.4653 29.9336 19.8475 30.0793 20.2281 30.0793C20.6087 30.0793 20.9879 29.9336 21.2793 29.6436L36.1476 14.7749C36.729 14.1935 36.729 13.2538 36.1476 12.6725C35.5648 12.0911 34.6266 12.0911 34.0452 12.6725Z" />
</svg>
