<svg width="267" height="267" viewBox="0 0 267 267" fill="none" xmlns="http://www.w3.org/2000/svg">
<path d="M137.672 79.2656H129.328V141.844H137.672V79.2656Z" fill="#D6D6D4"/>
<path d="M137.672 112.641L133.5 116.812L129.328 112.641V79.2656H137.672V112.641Z" fill="#BFBFBD"/>
<path d="M33.375 108.469C33.375 55.4859 78.2018 12.5156 133.5 12.5156C188.798 12.5156 233.625 55.4859 233.625 108.469C226.853 102.086 217.899 98.5319 208.594 98.5319C199.288 98.5319 190.334 102.086 183.562 108.469C176.791 102.086 167.837 98.5319 158.531 98.5319C149.226 98.5319 140.272 102.086 133.5 108.469C126.728 102.086 117.774 98.5319 108.469 98.5319C99.1633 98.5319 90.2093 102.086 83.4375 108.469C76.6657 102.086 67.7117 98.5319 58.4062 98.5319C49.1008 98.5319 40.1468 102.086 33.375 108.469Z" fill="#F26666"/>
<path d="M133.5 12.5156C127.91 12.5219 122.33 12.9738 116.812 13.8673C161.193 21.0054 195.661 56.1034 199.833 99.6285C205.755 98.1507 211.954 98.1857 217.859 99.7305C223.764 101.275 229.185 104.28 233.625 108.469C233.625 55.4859 188.798 12.5156 133.5 12.5156Z" fill="#F72D6B"/>
<path d="M91.5726 45.3983L87.1504 38.3061C90.3321 36.31 93.6404 34.5234 97.0545 32.9577L100.542 40.5631C97.4517 41.9807 94.4557 43.5958 91.5726 45.3983Z" fill="#FF8C80"/>
<path d="M60.8508 80.9343L53.2079 77.5969C59.1322 64.1181 68.3354 52.3362 79.9789 43.3249L85.1061 49.9206C74.5576 58.0704 66.2187 68.7329 60.8508 80.9343Z" fill="#FF8C80"/>
<path d="M191.906 233.625H150.188V254.484H191.906V233.625Z" fill="#FDA533"/>
<path d="M233.625 233.625H191.906V254.484H233.625V233.625Z" fill="#FDBB3D"/>
<path d="M191.906 212.766H150.188V233.625H191.906V212.766Z" fill="#FDBB3D"/>
<path d="M233.625 212.766H191.906V233.625H233.625V212.766Z" fill="#FDA533"/>
<path d="M191.906 191.906H150.188V212.766H191.906V191.906Z" fill="#FDA533"/>
<path d="M191.906 171.047H150.188V191.906H191.906V171.047Z" fill="#FDBB3D"/>
<path d="M233.625 191.906H191.906V212.766H233.625V191.906Z" fill="#FDBB3D"/>
<path d="M212.766 191.906C224.286 191.906 233.625 182.567 233.625 171.047C233.625 159.527 224.286 150.188 212.766 150.188C201.245 150.188 191.906 159.527 191.906 171.047C191.906 182.567 201.245 191.906 212.766 191.906Z" fill="#FDBB3D"/>
<path d="M171.047 245.636C171.048 244.474 170.819 243.323 170.375 242.249C169.93 241.175 169.278 240.199 168.456 239.378L162.703 233.625H150.188V254.484H162.198C164.545 254.483 166.795 253.551 168.454 251.891C170.113 250.232 171.046 247.982 171.047 245.636Z" fill="#F79619"/>
<path d="M158.531 191.906H150.188V212.766H158.531V191.906Z" fill="#F79619"/>
<path d="M150.188 233.625H162.703L161.122 232.044C159.464 230.383 158.532 228.133 158.531 225.786V212.766H150.188V233.625Z" fill="#FDAF33"/>
<path d="M150.188 191.906H158.531C158.532 184.578 156.59 177.38 152.903 171.047H150.188V191.906Z" fill="#FDAF33"/>
<path d="M153.855 254.484H38.0517C35.7052 254.483 33.4552 253.551 31.796 251.891C30.1368 250.232 29.2042 247.982 29.2031 245.636C29.2027 244.474 29.4312 243.323 29.8757 242.249C30.3203 241.175 30.9721 240.2 31.7939 239.378L41.7188 229.453V191.906C41.7188 180.842 46.1141 170.23 53.9379 162.407C61.7617 154.583 72.373 150.187 83.4375 150.188H108.469C119.533 150.188 130.145 154.583 137.968 162.407C145.792 170.23 150.188 180.842 150.188 191.906V225.786C150.187 226.948 150.416 228.099 150.86 229.173C151.305 230.247 151.956 231.222 152.778 232.044L160.112 239.378C160.934 240.2 161.586 241.175 162.031 242.249C162.475 243.323 162.704 244.474 162.703 245.636C162.702 247.982 161.769 250.232 160.11 251.891C158.451 253.551 156.201 254.483 153.855 254.484Z" fill="#0FDE8C" fill-opacity="0.62"/>
<path d="M160.113 239.378L152.778 232.044C151.12 230.383 150.189 228.133 150.188 225.786V191.906C150.196 181.177 146.051 170.862 138.623 163.12C112.461 212.828 60.9095 239.316 31.0764 251.022C31.8952 252.096 32.9503 252.967 34.1599 253.567C35.3696 254.168 36.7013 254.482 38.0518 254.484H153.855C155.605 254.485 157.316 253.966 158.772 252.994C160.227 252.022 161.362 250.639 162.031 249.022C162.701 247.405 162.877 245.626 162.535 243.909C162.193 242.192 161.35 240.616 160.113 239.378Z" fill="#0FDE8C"/>
<path d="M75.0938 125.156L83.4375 150.188H108.469L116.812 125.156H75.0938Z" fill="#62E4B3"/>
<path d="M112.641 196.078V191.297C112.637 188.14 111.382 185.114 109.15 182.882C106.917 180.649 103.891 179.394 100.734 179.391H100.125V171.047H91.7811V179.391H91.172C88.4895 179.39 85.8855 180.296 83.782 181.961C81.6786 183.625 80.1988 185.952 79.5827 188.562C78.9666 191.173 79.2502 193.916 80.3875 196.345C81.5247 198.775 83.4491 200.749 85.8487 201.948L102.323 210.187C103.041 210.546 103.617 211.136 103.958 211.863C104.298 212.59 104.383 213.41 104.199 214.191C104.015 214.972 103.573 215.669 102.944 216.167C102.315 216.665 101.536 216.937 100.734 216.938H91.172C90.2278 216.935 89.3229 216.559 88.6552 215.892C87.9875 215.224 87.6115 214.319 87.6093 213.375V208.594H79.2655V213.375C79.2688 216.532 80.5243 219.558 82.7565 221.79C84.9887 224.022 88.0153 225.278 91.172 225.281H91.7811V233.625H100.125V225.281H100.734C103.416 225.281 106.02 224.376 108.124 222.711C110.227 221.046 111.707 218.72 112.323 216.109C112.939 213.499 112.656 210.756 111.519 208.327C110.381 205.897 108.457 203.923 106.057 202.724L89.5826 194.484C88.8646 194.126 88.2888 193.535 87.9483 192.809C87.6078 192.082 87.5227 191.262 87.7066 190.481C87.8906 189.699 88.3328 189.003 88.9618 188.505C89.5907 188.006 90.3695 187.735 91.172 187.734H100.734C101.678 187.737 102.583 188.113 103.251 188.78C103.918 189.448 104.295 190.353 104.297 191.297V196.078H112.641Z" fill="#2F76A6"/>
<path d="M87.1504 38.3269L91.5726 45.4191C94.4551 43.6095 97.4511 41.9875 100.542 40.563L97.0628 32.9785C93.6459 34.5439 90.3348 36.3305 87.1504 38.3269Z" fill="#110261"/>
<path d="M53.2079 77.5969L60.8508 80.9344C66.2134 68.7332 74.5465 58.0695 85.0894 49.9165L79.9789 43.3166C68.3343 52.3302 59.131 64.1151 53.2079 77.5969Z" fill="#110261"/>
<path d="M137.672 141.844V110.367C143.728 105.244 151.456 102.526 159.386 102.731C167.316 102.937 174.893 106.051 180.676 111.481C181.452 112.225 182.487 112.641 183.562 112.641C184.638 112.641 185.673 112.225 186.449 111.481C192.444 105.843 200.364 102.704 208.594 102.704C216.823 102.704 224.743 105.843 230.738 111.481C231.328 112.047 232.072 112.427 232.876 112.573C233.681 112.72 234.51 112.627 235.262 112.306C236.014 111.985 236.656 111.451 237.106 110.768C237.557 110.086 237.797 109.286 237.797 108.469C237.797 53.2623 191.009 8.34375 133.5 8.34375C75.9907 8.34375 29.2031 53.2623 29.2031 108.469C29.203 109.286 29.4432 110.086 29.8938 110.768C30.3444 111.451 30.9856 111.985 31.7376 112.306C32.4897 112.627 33.3194 112.72 34.1238 112.573C34.9282 112.427 35.6717 112.047 36.2619 111.481C42.2569 105.843 50.1767 102.704 58.4062 102.704C66.6358 102.704 74.5556 105.843 80.5506 111.481C81.3273 112.225 82.3616 112.641 83.4375 112.641C84.5134 112.641 85.5477 112.225 86.3244 111.481C92.107 106.051 99.6844 102.937 107.614 102.731C115.544 102.526 123.272 105.244 129.328 110.367V141.844H137.672ZM108.469 94.3928C99.4021 94.3603 90.5871 97.3736 83.4375 102.949C77.0184 97.9852 69.2698 95.0389 61.1741 94.4841C53.0785 93.9293 45.0004 95.7909 37.9641 99.833C42.5531 53.2623 83.6378 16.6875 133.5 16.6875C183.362 16.6875 224.468 53.2623 229.036 99.833C222 95.7909 213.922 93.9293 205.826 94.4841C197.73 95.0389 189.982 97.9852 183.562 102.949C176.398 97.4014 167.593 94.391 158.531 94.391C149.47 94.391 140.665 97.4014 133.5 102.949C126.35 97.3736 117.535 94.3603 108.469 94.3928Z" fill="#110261"/>
<path d="M25.0312 245.636C25.0346 249.088 26.4074 252.398 28.8485 254.839C31.2896 257.28 34.5995 258.653 38.0517 258.656H233.625C234.731 258.656 235.793 258.217 236.575 257.434C237.357 256.652 237.797 255.591 237.797 254.484V191.906C237.797 190.8 237.357 189.739 236.575 188.956C235.793 188.174 234.731 187.734 233.625 187.734H231.372C233.965 184.848 235.85 181.399 236.88 177.658C237.909 173.917 238.054 169.989 237.303 166.183C236.552 162.376 234.925 158.797 232.552 155.728C230.179 152.659 227.125 150.184 223.63 148.499C220.135 146.814 216.297 145.965 212.418 146.02C208.538 146.074 204.725 147.031 201.279 148.813C197.834 150.596 194.85 153.156 192.564 156.291C190.278 159.426 188.753 163.049 188.11 166.875H150.188C149.201 166.886 148.251 167.254 147.513 167.91C143.915 162.055 139.049 157.083 133.272 153.36C127.495 149.638 120.957 147.261 114.138 146.404L120.78 126.475C120.989 125.847 121.046 125.178 120.946 124.524C120.845 123.87 120.591 123.249 120.203 122.713C119.816 122.176 119.306 121.74 118.716 121.439C118.127 121.139 117.474 120.983 116.812 120.984H75.0938C74.4331 120.985 73.7819 121.142 73.194 121.444C72.606 121.745 72.0981 122.182 71.7119 122.718C71.3257 123.254 71.0724 123.874 70.9727 124.527C70.8731 125.18 70.93 125.848 71.1388 126.475L77.7804 146.404C66.6843 147.79 56.4752 153.177 49.0679 161.555C41.6607 169.932 37.5642 180.724 37.5469 191.906V227.726L28.8443 236.428C26.4107 238.876 25.0405 242.184 25.0312 245.636ZM212.766 154.359C216.066 154.359 219.292 155.338 222.037 157.172C224.781 159.005 226.92 161.612 228.183 164.661C229.446 167.71 229.776 171.065 229.132 174.302C228.489 177.539 226.899 180.513 224.565 182.847C222.232 185.181 219.258 186.77 216.021 187.414C212.784 188.058 209.429 187.727 206.38 186.464C203.33 185.201 200.724 183.062 198.89 180.318C197.057 177.574 196.078 174.347 196.078 171.047C196.078 166.621 197.836 162.377 200.966 159.247C204.095 156.118 208.34 154.359 212.766 154.359ZM196.078 196.078H229.453V208.594H196.078V196.078ZM196.078 216.937H229.453V229.453H196.078V216.937ZM196.078 237.797H229.453V250.312H196.078V237.797ZM187.734 250.312H165.97C166.558 248.823 166.865 247.237 166.875 245.636C166.852 242.799 165.906 240.048 164.18 237.797H187.734V250.312ZM154.359 175.219H187.734V187.734H154.359V175.219ZM154.359 196.078H187.734V208.594H154.359V196.078ZM154.359 225.782V216.937H187.734V229.453H156.087L155.728 229.094C154.854 228.215 154.362 227.026 154.359 225.786V225.782ZM111.022 129.328L105.461 146.016H86.4454L80.8843 129.328H111.022ZM34.7434 242.328L44.6683 232.403C45.4507 231.62 45.8904 230.559 45.8906 229.453V191.906C45.9017 181.952 49.861 172.408 56.9 165.369C63.9391 158.33 73.4828 154.37 83.4375 154.359H108.469C118.423 154.37 127.967 158.33 135.006 165.369C142.045 172.408 146.005 181.952 146.016 191.906V225.782C146.025 229.233 147.395 232.542 149.829 234.989L157.163 242.323C157.819 242.977 158.266 243.811 158.448 244.719C158.629 245.628 158.537 246.569 158.182 247.425C157.828 248.281 157.228 249.012 156.457 249.526C155.687 250.04 154.781 250.314 153.855 250.312H38.0517C37.1263 250.313 36.2216 250.039 35.452 249.525C34.6824 249.011 34.0826 248.281 33.7284 247.426C33.3742 246.571 33.2816 245.63 33.4622 244.723C33.6429 243.815 34.0888 242.982 34.7434 242.328Z" fill="#110261"/>
<path d="M91.172 225.281H91.7811V233.625H100.125V225.281H100.734C103.416 225.281 106.02 224.376 108.124 222.711C110.227 221.046 111.707 218.72 112.323 216.109C112.939 213.499 112.656 210.756 111.519 208.327C110.381 205.897 108.457 203.923 106.057 202.724L89.5826 194.484C88.8646 194.126 88.2888 193.535 87.9483 192.809C87.6078 192.082 87.5227 191.262 87.7066 190.481C87.8906 189.699 88.3328 189.003 88.9618 188.505C89.5907 188.006 90.3695 187.735 91.172 187.734H100.734C101.678 187.737 102.583 188.113 103.251 188.78C103.918 189.448 104.295 190.353 104.297 191.297V196.078H112.641V191.297C112.637 188.14 111.382 185.114 109.15 182.882C106.917 180.649 103.891 179.394 100.734 179.391H100.125V171.047H91.7811V179.391H91.172C88.4895 179.39 85.8855 180.296 83.782 181.961C81.6786 183.625 80.1988 185.952 79.5827 188.562C78.9666 191.173 79.2502 193.916 80.3875 196.345C81.5247 198.775 83.4491 200.749 85.8487 201.948L102.323 210.187C103.041 210.546 103.617 211.136 103.958 211.863C104.298 212.59 104.383 213.41 104.199 214.191C104.015 214.972 103.573 215.669 102.944 216.167C102.315 216.665 101.536 216.937 100.734 216.938H91.172C90.2278 216.935 89.3229 216.559 88.6552 215.892C87.9875 215.224 87.6115 214.319 87.6093 213.375V208.594H79.2655V213.375C79.2688 216.532 80.5243 219.558 82.7565 221.79C84.9887 224.022 88.0153 225.278 91.172 225.281Z" fill="#110261"/>
</svg>
