<svg width="50" height="50" viewBox="0 0 50 50" fill="none" xmlns="http://www.w3.org/2000/svg">
<path d="M46.2433 26.131C46.2433 28.2821 44.4992 30.0262 42.3477 30.0262C40.1966 30.0262 38.4525 28.2821 38.4525 26.131C38.4525 23.9795 40.1966 22.2354 42.3477 22.2354C44.4992 22.2354 46.2433 23.9795 46.2433 26.131V26.131Z" fill="#FFCABD"/>
<path d="M28.8132 41.5336L31.7463 45.4006L28.8132 49.2675H21.0922L18.1591 45.4006L21.0922 41.5336H28.8132Z" fill="#EBEBEB"/>
<path d="M28.8132 41.5336H21.0922L18.1591 45.4006L19.1258 46.675C19.5381 46.8601 19.9959 46.9573 20.4842 46.9573C21.3013 46.9573 22.1974 46.6812 23.1495 46.1357C23.6424 46.3546 24.1821 46.471 24.7406 46.471H25.1644C25.7233 46.471 26.2631 46.3546 26.7559 46.1357C27.7077 46.6812 28.6038 46.9573 29.4213 46.9573C29.9092 46.9573 30.3669 46.8601 30.7797 46.675L31.7463 45.4006L28.8132 41.5336Z" fill="#D5D4DA"/>
<path d="M21.0922 41.5336V49.2675H15.226C15.226 44.062 19.0838 41.5336 19.0838 41.5336H21.0922Z" fill="#110261"/>
<path d="M34.6794 49.2675H28.8132V41.5336H30.8216C30.8216 41.5336 34.6794 44.062 34.6794 49.2675Z" fill="#110261"/>
<path d="M11.4529 26.131C11.4529 28.2821 9.70883 30.0262 7.55772 30.0262C5.40624 30.0262 3.66216 28.2821 3.66216 26.131C3.66216 23.9795 5.40624 22.2354 7.55772 22.2354C9.70883 22.2354 11.4529 23.9795 11.4529 26.131V26.131Z" fill="#FFCABD"/>
<path d="M42.3477 25.1552C42.3477 34.7622 34.5597 42.5503 24.9527 42.5503C15.3458 42.5503 7.55733 34.7622 7.55733 25.1552C7.55733 15.5479 15.3458 7.75984 24.9527 7.75984C34.5597 7.75984 42.3477 15.5479 42.3477 25.1552Z" fill="#FFDCCE"/>
<path d="M7.74081 22.6272H42.1643C41.5264 18.2449 39.2552 14.3925 35.9871 11.7077H13.9183C10.6503 14.3921 8.37901 18.2449 7.74081 22.6272V22.6272Z" fill="#FFCABD"/>
<path d="M40.6197 8.74937L40.0139 14.637L24.9527 17.1676L9.89192 14.637L9.28577 8.74937L24.9527 4.74089L40.6197 8.74937Z" fill="#EBEBEB"/>
<path d="M12.8216 14.637L12.2155 8.74937L26.4176 5.11588L24.9527 4.74089L9.28577 8.74937L9.89192 14.637L24.9527 17.1676L26.4176 16.9212L12.8216 14.637Z" fill="#D5D4DA"/>
<path d="M38.0184 26.4026C38.0184 29.0729 35.8539 31.2374 33.1837 31.2374C30.5138 31.2374 28.3493 29.0729 28.3493 26.4026C28.3493 23.7327 30.5138 21.5683 33.1837 21.5683C35.8539 21.5683 38.0184 23.7327 38.0184 26.4026Z" fill="#0FDE8C"/>
<path d="M32.0549 45.6222C32.4539 45.0649 32.7011 44.3714 32.8037 43.5203C31.8218 42.1897 30.8216 41.5336 30.8216 41.5336H28.8132V46.9085C29.0203 46.9409 29.2232 46.9573 29.4212 46.9573C30.5035 46.9573 31.4388 46.4832 32.0549 45.6222Z" fill="#1B0398"/>
<path d="M21.0922 41.5336H19.0838C19.0838 41.5336 18.0836 42.1893 17.1021 43.5203C17.2043 44.3714 17.4519 45.0645 17.8505 45.6222C18.467 46.4832 19.4019 46.9573 20.4842 46.9573C20.6825 46.9573 20.8851 46.9406 21.0922 46.9081V41.5336Z" fill="#1B0398"/>
<path d="M33.1837 21.5683C32.0419 21.5683 30.9933 21.9654 30.1659 22.6272H36.2019C35.3744 21.9654 34.3258 21.5683 33.1837 21.5683V21.5683Z" fill="#80C4E6"/>
<path d="M44.7285 14.6374H5.17696C4.47506 14.6374 3.90591 15.2065 3.90591 15.9084V18.4265C3.90591 19.1284 4.47506 19.6976 5.17696 19.6976H44.7281C45.4304 19.6976 45.9996 19.1284 45.9996 18.4265V15.9084C45.9996 15.2065 45.4304 14.6374 44.7285 14.6374V14.6374Z" fill="#110261"/>
<path d="M6.83559 18.4265V15.9084C6.83559 15.2065 7.40475 14.6374 8.10665 14.6374H5.17696C4.47506 14.6374 3.90591 15.2065 3.90591 15.9084V18.4265C3.90591 19.1284 4.47506 19.6976 5.17696 19.6976H8.10665C7.40475 19.6976 6.83559 19.1284 6.83559 18.4265Z" fill="#1B0398"/>
<path d="M41.0782 4.29459L40.6197 8.74939H9.28577L8.82686 4.29459C8.63078 2.38953 10.1261 0.732422 12.0407 0.732422H37.8647C39.7797 0.732422 41.2747 2.38953 41.0782 4.29459Z" fill="#110261"/>
<path d="M14.9704 0.732422H12.0407C10.1261 0.732422 8.63078 2.38953 8.82686 4.29459L9.28577 8.74939H12.2155L11.7565 4.29459C11.5605 2.38953 13.0558 0.732422 14.9704 0.732422Z" fill="#1B0398"/>
<path d="M33.498 33.5803C31.8535 32.8849 31.3976 30.7208 30.3662 29.364C29.1077 27.7095 26.9699 27.6058 25.5478 28.8772C25.2094 29.1797 24.696 29.1797 24.3576 28.8772C22.9355 27.6058 20.7977 27.7095 19.5397 29.364C18.5078 30.7208 18.0519 32.8849 16.4074 33.5803C16.0103 33.7486 15.889 34.2574 16.1572 34.5954C17.2146 35.9268 19.846 38.1271 24.2546 34.9674C24.672 34.6683 25.2335 34.6683 25.6508 34.9674C30.0598 38.1271 32.6908 35.9268 33.7483 34.5954C34.0164 34.2574 33.8955 33.7486 33.498 33.5803V33.5803Z" fill="#FFB200"/>
<path d="M26.7212 43.753C26.7212 43.753 30.9055 47.2503 30.9055 42.5502C30.9055 37.8501 26.7212 41.3471 26.7212 41.3471V43.753Z" fill="#E8738B"/>
<path d="M23.1842 43.753C23.1842 43.753 18.9999 47.2503 18.9999 42.5502C18.9999 37.8501 23.1842 41.3471 23.1842 41.3471V43.753Z" fill="#E8738B"/>
<path d="M25.1644 40.5826H24.741C23.6542 40.5826 22.7734 41.4634 22.7734 42.5502C22.7734 43.637 23.6542 44.5178 24.741 44.5178H25.1644C26.2512 44.5178 27.1324 43.637 27.1324 42.5502C27.132 41.4634 26.2512 40.5826 25.1644 40.5826Z" fill="#FD99C8"/>
<path d="M16.9655 27.9235C17.3702 27.9235 17.6979 27.5955 17.6979 27.1911V25.6145C17.6979 25.2097 17.3702 24.8821 16.9655 24.8821C16.5611 24.8821 16.2331 25.2097 16.2331 25.6145V27.1911C16.2331 27.5955 16.5611 27.9235 16.9655 27.9235Z" fill="black"/>
<path d="M33.9161 27.1911V25.6145C33.9161 25.2097 33.5884 24.8821 33.1837 24.8821C32.7793 24.8821 32.4512 25.2097 32.4512 25.6145V27.1911C32.4512 27.5955 32.7793 27.9235 33.1837 27.9235C33.5884 27.9235 33.9161 27.5955 33.9161 27.1911Z" fill="black"/>
<path d="M46.9757 26.131C46.9757 23.7026 45.0954 21.7067 42.7143 21.519C42.6399 21.1536 42.5537 20.7904 42.4564 20.43H44.728C45.8332 20.43 46.7319 19.5312 46.7319 18.4265V15.9084C46.7319 14.8037 45.8332 13.9049 44.728 13.9049H40.8252C40.8252 13.9049 41.8064 4.37545 41.8068 4.36935C42.044 2.06604 40.1779 0 37.8647 0H34.2544C33.8501 0 33.522 0.328063 33.522 0.73242C33.522 1.13678 33.8501 1.46484 34.2544 1.46484H37.8647C39.3272 1.46484 40.4995 2.76641 40.3499 4.21943L39.9589 8.01695H9.94647C9.94647 8.01695 9.55585 4.22286 9.55547 4.21943C9.40593 2.76451 10.5809 1.46484 12.0407 1.46484H31.3248C31.7295 1.46484 32.0572 1.13678 32.0572 0.73242C32.0572 0.328063 31.7295 0 31.3248 0C31.3248 0 12.0518 0 12.0407 0C9.7256 0 7.86136 2.06832 8.09826 4.36935L9.08016 13.9049H5.17697C4.07223 13.9049 3.17349 14.8037 3.17349 15.9084V18.4265C3.17349 19.5312 4.07223 20.43 5.17697 20.43H7.449C7.35172 20.7904 7.26551 21.1536 7.19112 21.519C4.80999 21.7067 2.92973 23.7026 2.92973 26.131C2.92973 28.6827 5.00569 30.7586 7.55733 30.7586C7.61036 30.7586 7.66338 30.7571 7.71641 30.7552C9.29874 35.6052 12.8884 39.6587 17.6697 41.7579C16.428 42.9504 14.4936 45.4249 14.4936 49.2675C14.4936 49.6722 14.8216 49.9999 15.226 49.9999H34.6794C35.0837 49.9999 35.4118 49.6722 35.4118 49.2675C35.4118 45.4249 33.4774 42.9504 32.2357 41.7583C35.1848 40.4632 37.6808 38.425 39.5317 35.9149L39.9063 36.2895C40.6589 37.0422 41.6477 37.4183 42.6365 37.4183C43.6252 37.4183 44.6136 37.0422 45.3662 36.2895C46.8715 34.7842 46.8715 32.3348 45.3662 30.8296L44.6689 30.1319C46.0468 29.3296 46.9757 27.8369 46.9757 26.131V26.131ZM4.63833 18.4265V15.9084C4.63833 15.6112 4.8798 15.3698 5.17697 15.3698H13.7467C14.1514 15.3698 14.4791 15.0417 14.4791 14.6373C14.4791 14.2326 14.1514 13.9049 13.7467 13.9049H10.5526L10.0975 9.48179H39.8079L39.3528 13.9049H16.6763C16.272 13.9049 15.9439 14.2326 15.9439 14.6373C15.9439 15.0417 16.272 15.3698 16.6763 15.3698H44.728C45.0252 15.3698 45.2671 15.6112 45.2671 15.9084V18.4265C45.2671 18.7236 45.0252 18.9651 44.728 18.9651H5.17697C4.88018 18.9651 4.63833 18.7236 4.63833 18.4265V18.4265ZM7.29793 29.2831C5.67517 29.1507 4.39457 27.7877 4.39457 26.131C4.39457 24.5948 5.49549 23.3108 6.94965 23.0266C6.92943 23.1975 6.91227 23.3688 6.89701 23.5405C6.72726 25.4589 6.86115 27.4074 7.29793 29.2831ZM20.6146 40.8359C21.204 40.8973 21.7259 41.2139 22.208 41.5366C22.2099 41.5382 22.2321 41.5515 22.2317 41.5527C22.1054 41.8685 22.0409 42.2099 22.0409 42.5502C22.0409 42.8897 22.1046 43.2311 22.2313 43.5462C22.0749 43.6507 21.8964 43.7621 21.7049 43.8666C21.3402 44.0654 20.9164 44.2718 20.4842 44.2718C20.298 44.2718 19.7323 44.2714 19.7323 42.5502C19.7323 42.1008 19.7521 41.5988 19.9501 41.1864C20.0813 40.9133 20.3175 40.8046 20.6146 40.8359V40.8359ZM24.1016 41.5038C24.2905 41.3848 24.5102 41.315 24.741 41.315H25.1652C25.8343 41.315 26.4 41.8815 26.4 42.5502C26.4 43.2193 25.8335 43.7846 25.1644 43.7854H24.741C24.0803 43.7854 23.5058 43.2067 23.5058 42.5502C23.5058 42.1199 23.7492 41.7262 24.1016 41.5038V41.5038ZM27.8255 41.4542C28.3104 41.1472 28.8425 40.8252 29.4357 40.8294C30.1704 40.8351 30.1731 42.0604 30.1731 42.5502C30.1731 43.2967 30.0552 43.706 29.9499 43.9231C29.8305 44.1695 29.5944 44.2893 29.327 44.2676C28.8513 44.2287 28.4122 43.9979 28.0086 43.7583C27.8877 43.6862 27.7756 43.6141 27.6745 43.5458C27.747 43.365 27.7981 43.1773 27.8294 42.9851C27.9076 42.5052 27.8545 42.0043 27.6737 41.5527C27.718 41.5229 27.8202 41.4573 27.8255 41.4542V41.4542ZM18.2961 43.2067C18.2972 43.2185 18.4296 44.1028 18.6066 44.4984C18.9259 45.2117 19.5503 45.6832 20.3384 45.732C20.3453 45.7324 20.3526 45.7332 20.3594 45.7332V48.5351H15.9859C16.1801 45.9895 17.3588 44.2267 18.2961 43.2067V43.2067ZM21.8247 45.433C22.3312 45.2235 22.7905 44.9424 23.1243 44.7124C23.5851 45.0599 24.1646 45.2502 24.741 45.2502H25.1644C25.7393 45.2502 26.3214 45.0591 26.7811 44.7124C27.1149 44.942 27.5742 45.2231 28.0807 45.433V48.5351H21.8247V45.433ZM33.9187 48.5351H29.5456V45.7332H29.5479H29.5513C29.5895 45.7309 29.6287 45.7278 29.6688 45.7236C29.6711 45.7236 29.673 45.7233 29.6753 45.7229C30.2273 45.6637 30.9135 45.3876 31.311 44.4713C31.4648 44.1234 31.5632 43.7076 31.6086 43.2178C32.5447 44.2439 33.723 46.0109 33.9187 48.5351V48.5351ZM31.2851 40.5711C30.8182 39.5583 29.9881 39.3638 29.4212 39.3638C28.5194 39.3638 27.6375 39.812 26.9062 40.3033C26.9031 40.3056 26.8181 40.3625 26.7811 40.3876C26.7666 40.377 26.7509 40.3674 26.7364 40.3567C26.2821 40.0287 25.7248 39.8502 25.1644 39.8502H24.741C24.1688 39.8502 23.5851 40.0417 23.1243 40.3876C23.1106 40.3983 22.7921 40.171 22.7642 40.1538C22.0871 39.738 21.3001 39.3638 20.4842 39.3638C19.9173 39.3638 19.0872 39.5583 18.6203 40.5715C13.0512 38.2823 9.16294 33.1386 8.41983 27.2232C8.13488 24.9546 8.32294 22.6226 8.97029 20.43H40.9351C41.1564 21.1792 41.3234 21.9425 41.4367 22.715C41.9731 26.3614 41.2647 30.1628 39.4359 33.3801C39.3917 33.4579 39.3467 33.5353 39.3013 33.6128L36.5341 30.8456C37.8795 29.8282 38.7508 28.2157 38.7508 26.403C38.7508 23.3333 36.2533 20.8362 33.1837 20.8362C30.1144 20.8362 27.6169 23.3333 27.6169 26.403C27.6169 26.699 27.6417 26.9924 27.6878 27.2815C26.7319 27.2979 25.8011 27.6687 25.0599 28.3313C25.0225 28.3649 24.9809 28.3718 24.9527 28.3718C24.9245 28.3718 24.8833 28.3649 24.8459 28.3313C24.0875 27.6534 23.1308 27.28 22.1516 27.28C20.9145 27.28 19.7498 27.8781 18.9568 28.9211C18.5692 29.4303 18.2655 30.0212 17.9718 30.5927C17.4549 31.5986 16.9666 32.5488 16.1221 32.9063C15.2893 33.2584 15.0238 34.3456 15.5838 35.0509C16.2571 35.8993 17.7277 37.3222 20.01 37.3222C21.4809 37.3222 23.0526 36.7301 24.6815 35.5628C24.8405 35.4488 25.0648 35.4488 25.2243 35.5628C26.8528 36.7301 28.4244 37.3222 29.8958 37.3222C32.1777 37.3222 33.6483 35.8993 34.322 35.0509C34.8823 34.3452 34.6149 33.258 33.7837 32.9063C33.3462 32.7213 33.0047 32.3764 32.7049 31.948C32.8636 31.9614 33.0231 31.9698 33.1837 31.9698C33.8966 31.9698 34.5783 31.8336 35.2054 31.5883L38.4838 34.867C36.6958 37.3592 34.2247 39.363 31.2851 40.5711ZM28.4489 28.8501C29.5605 29.1927 30.1357 30.2989 30.6309 31.2618C31.2015 32.3726 31.8466 33.6276 33.1161 34.2124C32.4859 34.9796 31.43 35.8569 29.8954 35.8569C28.7365 35.8569 27.4521 35.3572 26.0773 34.3723C25.412 33.8954 24.493 33.8954 23.8277 34.3723C22.4529 35.3572 21.1685 35.8569 20.0096 35.8569C18.475 35.8569 17.4191 34.9796 16.7893 34.2124C18.0588 33.6276 18.7039 32.3726 19.2745 31.2618C19.8876 30.0693 20.6246 28.7448 22.1512 28.7448C22.7695 28.7448 23.3799 28.9855 23.8693 29.4235C24.4766 29.9663 25.4292 29.9655 26.0357 29.4235C26.6872 28.8413 27.6047 28.5903 28.4489 28.8501ZM31.7558 30.2486C31.752 30.2413 31.7486 30.2348 31.7448 30.228C31.1653 29.129 30.4394 28.0841 29.2557 27.5852C29.1401 27.2022 29.0817 26.8058 29.0817 26.403C29.0817 24.1409 30.9219 22.3007 33.1837 22.3007C35.4458 22.3007 37.2856 24.1409 37.2856 26.403C37.2856 28.6647 35.4458 30.5049 33.1837 30.5049C32.6916 30.5049 32.2124 30.4187 31.7558 30.2486ZM44.3306 31.8652C45.2648 32.7995 45.2648 34.3196 44.3306 35.2535C43.3963 36.1877 41.8766 36.1877 40.9423 35.2535L40.3675 34.6786C41.1251 33.4533 41.7385 32.1365 42.189 30.7552C42.5117 30.7666 42.8344 30.7433 43.1522 30.6873L44.3306 31.8652ZM42.6075 29.2831C42.7822 28.5324 42.9073 27.7698 42.9851 27.0004C43.1007 25.851 43.1095 24.6913 43.0084 23.5405C42.9931 23.3688 42.976 23.1975 42.9557 23.0266C44.4099 23.3108 45.5108 24.5948 45.5108 26.1306C45.5108 27.7877 44.2302 29.1507 42.6075 29.2831Z" fill="black"/>
</svg>
