<svg width="28" height="50" viewBox="0 0 28 50" fill="none" xmlns="http://www.w3.org/2000/svg">
<g clip-path="url(#clip0)">
<path d="M15.3264 50C14.0099 50 12.9429 48.933 12.9429 47.617V28.5675C12.9429 27.2514 14.0099 26.1845 15.3264 26.1845C16.6424 26.1845 17.7094 27.2514 17.7094 28.5675V47.617C17.7094 48.933 16.6424 50 15.3264 50Z" fill="#1F00C7"/>
<path d="M21.0793 50C19.7632 50 18.6963 48.933 18.6963 47.617V28.5675C18.6963 27.2514 19.7632 26.1845 21.0793 26.1845C22.3954 26.1845 23.4623 27.2514 23.4623 28.5675V47.617C23.4623 48.933 22.3954 50 21.0793 50Z" fill="#18009A"/>
<path d="M4.90385 36.1626L0.425399 34.1103C0.145782 33.9821 0.022949 33.6513 0.151123 33.3713L1.13951 31.2141C1.26807 30.9341 1.5988 30.8113 1.87842 30.9395L6.35687 32.9918C6.63649 33.12 6.7597 33.4511 6.63115 33.7307L5.64276 35.8883C5.5142 36.1679 5.18347 36.2911 4.90385 36.1626Z" fill="#0FDE8C"/>
<path d="M4.19278 33.9188C4.43273 33.395 4.26869 32.8064 3.82657 32.6035C3.38406 32.4009 2.83093 32.6611 2.59098 33.1844C2.35142 33.7082 2.51545 34.2968 2.95758 34.4997C3.40008 34.7023 3.95284 34.4421 4.19278 33.9188Z" fill="#277867"/>
<path d="M5.76482 39.1819L0.916722 40.0551C0.613835 40.1096 0.323918 39.9082 0.269368 39.6053L-0.151393 37.2696C-0.205943 36.9667 -0.00452729 36.6768 0.29836 36.6226L5.14646 35.7491C5.44935 35.6945 5.73926 35.8959 5.79381 36.1988L6.21458 38.5346C6.26913 38.8374 6.06771 39.127 5.76482 39.1819Z" fill="#0FDE8C"/>
<path d="M3.90058 37.7468C3.79873 37.18 3.32761 36.7901 2.84887 36.8767C2.36974 36.9629 2.06457 37.4924 2.16642 38.0589C2.26865 38.6257 2.73977 39.0156 3.21851 38.929C3.69726 38.8428 4.00282 38.3133 3.90058 37.7468Z" fill="#277867"/>
<path d="M19.3257 34.6558L14.5153 35.7178C14.2148 35.7842 13.9176 35.5942 13.8512 35.2936L13.3397 32.9762C13.2733 32.6756 13.4629 32.378 13.7635 32.3116L18.5738 31.25C18.8744 31.1836 19.1719 31.3736 19.2383 31.6742L19.7499 33.9913C19.8162 34.2918 19.6263 34.5894 19.3257 34.6558Z" fill="#0FDE8C"/>
<path d="M17.4062 33.2935C17.2822 32.7312 16.7962 32.3601 16.3212 32.465C15.8459 32.5699 15.5613 33.1108 15.6857 33.6735C15.8097 34.2358 16.2957 34.6065 16.7706 34.5016C17.2459 34.3967 17.5305 33.8558 17.4062 33.2935Z" fill="#277867"/>
<path d="M19.8449 39.7079L14.9891 38.8779C14.6859 38.826 14.4818 38.538 14.5337 38.2347L14.9334 35.8952C14.9853 35.5919 15.2733 35.3878 15.577 35.4397L20.4327 36.2701C20.736 36.322 20.9397 36.61 20.8882 36.9133L20.488 39.2525C20.4361 39.5561 20.1481 39.7598 19.8449 39.7079Z" fill="#0FDE8C"/>
<path d="M18.5803 37.7216C18.6772 37.154 18.367 36.6276 17.8875 36.5456C17.408 36.4636 16.9407 36.8572 16.8435 37.4249C16.7466 37.9925 17.0567 38.5193 17.5362 38.6013C18.0157 38.6833 18.4834 38.2896 18.5803 37.7216Z" fill="#277867"/>
<path d="M28.307 14.1705C28.294 11.5921 26.1528 9.4944 23.5341 9.4944H12.9429C12.9429 22.2683 12.9429 28.4473 12.9429 28.5103C12.9429 28.5103 12.9429 28.511 12.9429 28.5141V28.5675H23.4623V13.4663H23.5341C23.9502 13.4663 24.3309 13.8092 24.3351 14.1869V28.7708C24.3351 29.8679 25.2243 30.7568 26.3211 30.7568C27.4182 30.7568 28.307 29.8679 28.307 28.7708V14.1804C28.307 14.1773 28.307 14.1739 28.307 14.1705Z" fill="#110261"/>
<path d="M12.9414 9.49402C10.3291 9.49402 8.19289 11.5868 8.1803 14.1689V28.6892C8.1803 29.7832 9.06721 30.6702 10.1613 30.6702C11.2553 30.6702 12.1422 29.7832 12.1422 28.6892V14.1788C12.1441 13.8008 12.5252 13.4567 12.9414 13.4567H12.9429C12.9429 17.1806 12.9429 23.1106 12.9429 28.5675H18.2019V9.49402H12.9414Z" fill="#1B0398"/>
<path d="M21.2338 9.4944L18.2019 17.4465L15.1722 9.4944H21.2338Z" fill="white"/>
<path d="M19.5179 12.2013L18.845 10.9768L19.4249 9.92165C19.5305 9.72977 19.3917 9.49402 19.1723 9.49402H17.2272C17.0082 9.49402 16.8686 9.72939 16.9743 9.92165L17.5564 10.9806L16.885 12.2013C16.792 12.3707 16.7618 12.5671 16.7996 12.756L17.2139 14.8582L18.2019 17.4465L19.1868 14.8579L19.6034 12.7563C19.6411 12.5671 19.611 12.3707 19.5179 12.2013Z" fill="#FA503C"/>
<path d="M19.5179 12.2013L18.845 10.9768L19.4249 9.92165C19.5305 9.72977 19.3917 9.49402 19.1723 9.49402H18.2019V17.4465L19.1868 14.8579L19.6034 12.7563C19.6412 12.5671 19.611 12.3707 19.5179 12.2013Z" fill="#E0321D"/>
<path d="M22.2596 4.09508C22.2596 6.35681 20.4262 8.19016 18.1645 8.19016C15.9032 8.19016 14.0694 6.35681 14.0694 4.09508C14.0694 1.83334 15.9032 0 18.1645 0C20.4262 0 22.2596 1.83334 22.2596 4.09508Z" fill="#FFB69E"/>
<path d="M28.3078 27.7466V28.7708C28.3078 29.8679 27.4185 30.7571 26.3218 30.7571C25.2247 30.7571 24.3355 29.8679 24.3355 28.7708V27.7466H28.3078Z" fill="white"/>
<path d="M28.3078 28.7197V28.7708C28.3078 29.8679 27.4185 30.7568 26.3218 30.7568C25.2247 30.7568 24.3355 29.8679 24.3355 28.7708V28.7197H28.3078Z" fill="#FFB69E"/>
<path d="M12.9429 24.8608H16.2766V23.1991H12.9429C12.9429 23.8232 12.9429 24.374 12.9429 24.8608Z" fill="#1B224A"/>
<path d="M20.0432 23.1991H23.4623V24.8608H20.0432V23.1991Z" fill="#141A3B"/>
<path d="M13.0562 34.5974H7.44673C6.89856 34.5974 6.45377 34.1526 6.45377 33.604V29.0737C6.45377 28.5252 6.89856 28.0804 7.44673 28.0804H13.0562C13.6048 28.0804 14.0496 28.5252 14.0496 29.0737V33.604C14.0496 34.1526 13.6048 34.5974 13.0562 34.5974ZM8.44008 32.6111H12.0629V30.0671H8.44008V32.6111Z" fill="#965028"/>
<path d="M8.1803 27.7187V28.6892C8.1803 29.7832 9.06721 30.6705 10.1613 30.6705C11.2553 30.6705 12.1422 29.7832 12.1422 28.6892V27.7187H8.1803Z" fill="white"/>
<path d="M8.1803 28.6892C8.1803 29.7832 9.06721 30.6702 10.1613 30.6702C11.2553 30.6702 12.1422 29.7832 12.1422 28.6892H8.1803Z" fill="#FFB69E"/>
<path d="M4.55977 42.041H15.9436C16.6005 42.041 17.133 41.5085 17.133 40.8512V33.091C17.133 32.4337 16.6005 31.9012 15.9436 31.9012H4.55977C3.9025 31.9012 3.36996 32.4337 3.36996 33.091V40.8512C3.36996 41.5085 3.9025 42.041 4.55977 42.041Z" fill="#BA6746"/>
<path d="M10.1216 39.0259C9.3739 39.0007 8.76355 38.6147 8.76355 38.216C8.76355 38.0039 8.95047 37.6926 9.18698 37.6926C9.44867 37.6926 9.66039 38.06 10.1216 38.1413V37.1319C9.54823 36.9137 8.8757 36.6459 8.8757 35.8482C8.8757 35.0571 9.46126 34.6771 10.1216 34.5837V34.4093C10.1216 34.322 10.2211 34.2411 10.3585 34.2411C10.4767 34.2411 10.595 34.322 10.595 34.4093V34.565C10.9814 34.5772 11.71 34.6771 11.71 35.107C11.71 35.2753 11.5983 35.6178 11.324 35.6178C11.1184 35.6178 11.0001 35.4183 10.595 35.3874V36.2968C11.1619 36.5086 11.8222 36.8015 11.8222 37.6427C11.8222 38.4151 11.324 38.8824 10.595 39.0007V39.1815C10.595 39.2689 10.4767 39.3497 10.3581 39.3497C10.2211 39.3497 10.1216 39.2689 10.1216 39.1815V39.0259ZM10.1838 36.1473V35.4061C9.90338 35.4622 9.78513 35.6056 9.78513 35.7548C9.78513 35.9356 9.94725 36.0477 10.1838 36.1473ZM10.5328 37.3001V38.1348C10.7445 38.0852 10.9128 37.9665 10.9128 37.7422C10.9128 37.5366 10.7571 37.4058 10.5328 37.3001Z" fill="#823214"/>
</g>
<defs>
<clipPath id="clip0">
<rect width="28" height="50" fill="white"/>
</clipPath>
</defs>
</svg>
