<svg width="50" height="50" viewBox="0 0 50 50" fill="none" xmlns="http://www.w3.org/2000/svg">
<path d="M25 50C38.8071 50 50 38.8071 50 25C50 11.1929 38.8071 0 25 0C11.1929 0 0 11.1929 0 25C0 38.8071 11.1929 50 25 50Z" fill="#FBD971"/>
<path d="M17.2524 26.8321C16.819 26.8321 16.5393 26.5524 16.5393 26.119V25.1048C15.0583 24.9012 14.1429 24.6571 12.8952 23.6571V24.6071C12.8952 25.0405 12.6155 25.3202 12.1821 25.3202C11.7488 25.3202 11.4702 25.0405 11.4702 24.6071V20.1548C11.4702 19.7214 11.75 19.4417 12.1821 19.4417C12.6155 19.4417 12.8952 19.7214 12.8952 20.1548V21.7738C13.6571 22.6012 14.2274 22.9036 15.5048 23.3917C15.8167 23.5095 16.1631 23.6012 16.5381 23.6655V16.7607C15.156 16.3774 14.1083 16.0119 13.4226 15.6714C12.6631 15.2964 12.0679 14.8226 11.6524 14.2619C11.2238 13.6857 11.0071 13.0143 11.0071 12.2655C11.0071 10.8536 11.481 9.70714 12.4143 8.85714C13.3036 8.04881 14.6905 7.625 16.5381 7.59404V6.66547C16.5405 6.23214 16.8202 5.95238 17.2524 5.95238C17.6845 5.95238 17.9643 6.23214 17.9643 6.66547V7.69643C19.2738 7.93928 20.3976 8.39166 21.306 9.04404C21.5417 9.21309 21.431 9.36071 21.5964 9.49047V8.54047C21.5964 8.10714 21.8762 7.82738 22.3083 7.82738C22.7417 7.82738 23.0214 8.10714 23.0214 8.54047V12.994C23.0214 13.4274 22.7417 13.7071 22.3083 13.7071C21.875 13.7071 21.5964 13.4274 21.5964 12.994V11.4905C20.7917 10.6012 20.0905 9.90238 18.8976 9.41309C18.6048 9.28809 18.294 9.19166 17.9655 9.12738V15.5774C18.1869 15.6369 18.5536 15.7333 19.0667 15.8667C19.9536 16.0976 20.7738 16.3976 21.5024 16.7595C22.2607 17.1357 22.8571 17.6095 23.2726 18.169C23.7012 18.7464 23.9179 19.4417 23.9179 20.2357C23.9179 21.7476 23.3774 22.9679 22.3131 23.8631C21.294 24.7202 19.8321 25.1667 17.9655 25.1893V26.1179C17.9655 26.5524 17.6857 26.8321 17.2524 26.8321ZM14.444 23.7226C14.5631 23.7809 14.6821 23.8345 14.8036 23.8857C14.681 23.8321 14.5607 23.7786 14.444 23.7226ZM17.9655 17.1488V23.7643C19.4262 23.7429 20.5571 23.419 21.3286 22.8012C22.1131 22.1726 22.494 21.3786 22.494 20.375C22.494 19.8488 22.3345 19.4048 22.0048 19.0143C21.6583 18.6059 21.2286 18.2821 20.7262 18.0559C20.1905 17.8143 19.644 17.6155 19.1024 17.4655L17.9655 17.1488ZM22.1083 23.0738C22.006 23.175 21.8964 23.2714 21.7798 23.3655C21.6071 23.5048 21.419 23.6309 21.2179 23.7452C21.4476 23.6179 21.6583 23.4726 21.85 23.3119C21.9405 23.2345 22.0262 23.1559 22.1083 23.0738ZM16.5405 9.02023C15.1536 9.04881 14.1167 9.35 13.456 9.91547C12.7679 10.5048 12.4333 11.2048 12.4333 12.0559C12.4333 12.5821 12.5929 13.0274 12.9226 13.4167C13.269 13.8274 13.6988 14.15 14.2012 14.375C14.7369 14.6167 15.2488 14.8083 15.7226 14.9429C16.019 15.0274 16.2917 15.1071 16.5405 15.1809V9.02023Z" fill="#0FDE8C"/>
<path d="M33.625 26.8321C33.1917 26.8321 32.9119 26.5524 32.9119 26.119V25.1048C31.431 24.9012 30.5155 24.6571 29.2679 23.6571V24.6071C29.2679 25.0405 28.9881 25.3202 28.5548 25.3202C28.1214 25.3202 27.8429 25.0405 27.8429 24.6071V20.1548C27.8429 19.7214 28.1226 19.4417 28.5548 19.4417C28.9881 19.4417 29.2679 19.7214 29.2679 20.1548V21.7738C30.0298 22.6012 30.6 22.9036 31.8774 23.3917C32.1893 23.5095 32.5357 23.6012 32.9107 23.6655V16.7607C31.5286 16.3774 30.481 16.0119 29.7952 15.6714C29.0357 15.2964 28.4405 14.8226 28.025 14.2619C27.5976 13.6869 27.381 13.0155 27.381 12.2667C27.381 10.8548 27.8548 9.70833 28.7881 8.85833C29.6774 8.05 31.0643 7.62619 32.9119 7.59523V6.66547C32.9119 6.23214 33.1929 5.95238 33.625 5.95238C34.0583 5.95238 34.3369 6.23214 34.3369 6.66547V7.69643C35.6464 7.93928 36.7702 8.39166 37.6786 9.04404C37.9143 9.21309 37.8036 9.36071 37.969 9.49047V8.54047C37.969 8.10714 38.2488 7.82738 38.681 7.82738C39.1143 7.82738 39.394 8.10714 39.394 8.54047V12.994C39.394 13.4274 39.1143 13.7071 38.681 13.7071C38.2476 13.7071 37.969 13.4274 37.969 12.994V11.4905C37.1643 10.6012 36.4631 9.90238 35.2702 9.41309C34.9774 9.28809 34.6667 9.19166 34.3381 9.12738V15.5774C34.5595 15.6369 34.9262 15.7333 35.4393 15.8667C36.3262 16.0976 37.1464 16.3976 37.875 16.7595C38.6333 17.1357 39.2298 17.6095 39.6452 18.169C40.0738 18.7464 40.2905 19.4417 40.2905 20.2357C40.2905 21.7476 39.75 22.9679 38.6857 23.8631C37.6667 24.7202 36.2048 25.1667 34.3381 25.1893V26.1179C34.3381 26.5524 34.0583 26.8321 33.625 26.8321ZM30.8167 23.7226C30.9357 23.7809 31.0548 23.8345 31.1762 23.8857C31.0536 23.8321 30.9333 23.7786 30.8167 23.7226ZM34.3381 17.1488V23.7643C35.7988 23.7429 36.9298 23.419 37.7012 22.8012C38.4857 22.1726 38.8667 21.3786 38.8667 20.375C38.8667 19.8488 38.7071 19.4048 38.3774 19.0143C38.031 18.6059 37.6012 18.2821 37.0988 18.0559C36.5631 17.8143 36.0167 17.6155 35.475 17.4655L34.3381 17.1488ZM38.481 23.0738C38.3786 23.175 38.269 23.2714 38.1524 23.3655C37.9798 23.5048 37.7917 23.6309 37.5905 23.7452C37.8202 23.6179 38.0309 23.4726 38.2226 23.3119C38.3119 23.2345 38.3988 23.1559 38.481 23.0738ZM32.9119 9.02023C31.525 9.04881 30.4881 9.35 29.8274 9.91547C29.1393 10.5048 28.8048 11.2048 28.8048 12.0559C28.8048 12.5821 28.9643 13.0274 29.294 13.4167C29.6405 13.8274 30.0702 14.15 30.5726 14.375C31.1083 14.6167 31.6202 14.8083 32.094 14.9429C32.3905 15.0274 32.6631 15.1071 32.9119 15.1809V9.02023Z" fill="#0FDE8C"/>
<path d="M38.0952 32.1429H11.9048C11.9048 39.375 17.7679 45.2381 25 45.2381C32.2321 45.2381 38.0952 39.375 38.0952 32.1429Z" fill="white"/>
<path d="M35.7143 36.9048H33.3333V32.1429C33.3333 31.4845 32.8 30.9524 32.1429 30.9524C31.4857 30.9524 30.9524 31.4845 30.9524 32.1429V36.9048H28.5714V32.1429C28.5714 31.4845 28.0381 30.9524 27.381 30.9524C26.7238 30.9524 26.1905 31.4845 26.1905 32.1429V36.9048H23.8095V32.1429C23.8095 31.4845 23.2762 30.9524 22.619 30.9524C21.9619 30.9524 21.4286 31.4845 21.4286 32.1429V36.9048H19.0476V32.1429C19.0476 31.4845 18.5143 30.9524 17.8571 30.9524C17.2 30.9524 16.6667 31.4845 16.6667 32.1429V36.9048H14.2857C13.6286 36.9048 13.0952 37.4369 13.0952 38.0952C13.0952 38.7536 13.6286 39.2857 14.2857 39.2857H16.6667V42.8571C16.6667 43.5155 17.2 44.0476 17.8571 44.0476C18.5143 44.0476 19.0476 43.5155 19.0476 42.8571V39.2857H21.4286V44.0476C21.4286 44.7059 21.9619 45.2381 22.619 45.2381C23.2762 45.2381 23.8095 44.7059 23.8095 44.0476V39.2857H26.1905V44.0476C26.1905 44.7059 26.7238 45.2381 27.381 45.2381C28.0381 45.2381 28.5714 44.7059 28.5714 44.0476V39.2857H30.9524V42.8571C30.9524 43.5155 31.4857 44.0476 32.1429 44.0476C32.8 44.0476 33.3333 43.5155 33.3333 42.8571V39.2857H35.7143C36.3714 39.2857 36.9048 38.7536 36.9048 38.0952C36.9048 37.4369 36.3714 36.9048 35.7143 36.9048Z" fill="#ECF0F0"/>
<path d="M25 46.4286C17.1226 46.4286 10.7143 40.0202 10.7143 32.1429C10.7143 31.4845 11.2476 30.9524 11.9048 30.9524H38.0952C38.7524 30.9524 39.2857 31.4845 39.2857 32.1429C39.2857 40.0202 32.8774 46.4286 25 46.4286ZM13.1548 33.3333C13.7536 39.3405 18.8381 44.0476 25 44.0476C31.1619 44.0476 36.2464 39.3405 36.8452 33.3333H13.1548Z" fill="#F0C419"/>
</svg>
