<svg width="376" height="478" viewBox="0 0 376 478"  xmlns="http://www.w3.org/2000/svg">
<path d="M124.661 4.99679L5.194 124.464C-1.47 131.13 -1.468 141.936 5.198 148.6C8.398 151.799 12.736 153.596 17.261 153.597L68.461 153.597L68.461 273.064C68.461 282.49 76.102 290.131 85.528 290.131C94.954 290.131 102.595 282.49 102.595 273.064L102.595 136.53C102.595 127.104 94.954 119.463 85.528 119.463L58.459 119.463L136.727 41.1948L214.995 119.463L187.927 119.463C178.501 119.463 170.86 127.104 170.86 136.53L170.86 324.264L119.66 324.264C110.234 324.266 102.595 331.909 102.597 341.334C102.598 345.858 104.395 350.197 107.594 353.397L227.061 472.863C233.726 479.526 244.529 479.526 251.193 472.863L370.66 353.396C373.861 350.196 375.66 345.856 375.661 341.33C375.668 339.087 375.227 336.864 374.364 334.794C371.72 328.418 365.497 324.262 358.594 324.264L307.394 324.264L307.394 204.797C307.394 195.371 299.753 187.73 290.327 187.73C280.901 187.73 273.26 195.371 273.26 204.797L273.26 341.33C273.26 350.756 280.901 358.397 290.327 358.397L317.395 358.397L239.127 436.665L160.859 358.397L187.927 358.397C197.353 358.397 204.994 350.756 204.994 341.33L204.994 153.597L256.194 153.597C265.62 153.595 273.259 145.952 273.257 136.527C273.256 132.003 271.459 127.664 268.26 124.464L148.793 4.99679C142.128 -1.66521 131.325 -1.66521 124.661 4.99679Z" />
</svg>
